<svg xmlns="http://www.w3.org/2000/svg" xmlns:xlink="http://www.w3.org/1999/xlink" width="50" height="50" viewBox="0 0 50 50">
  <g id="Group_4585" data-name="Group 4585" transform="translate(17706 24125)">
    <g id="ghaly-wedinly-K07jvi25Qxg-unsplash" transform="translate(-17706 -24125)" stroke="#fff" stroke-width="2" fill="url(#pattern)">
      <circle cx="25" cy="25" r="25" stroke="none"/>
      <circle cx="25" cy="25" r="24" fill="none"/>
    </g>
    <circle id="Ellipse_440" data-name="Ellipse 440" cx="25" cy="25" r="25" transform="translate(-17706 -24125)" fill="#edeef4"/>
    <g id="user_9_" data-name="user (9)" transform="translate(-17689.842 -24110.824)">
      <g id="Group_631" data-name="Group 631" transform="translate(0 0)">
        <g id="Account_user" data-name="Account/user">
          <path id="Vector" d="M18.437,19.668V17.112a5.408,5.408,0,0,0-1.35-3.615A4.392,4.392,0,0,0,13.828,12H4.609A4.392,4.392,0,0,0,1.35,13.5,5.408,5.408,0,0,0,0,17.112v2.556" transform="translate(0 1.074)" fill="none" stroke="#666" stroke-linecap="round" stroke-linejoin="round" stroke-width="2"/>
          <path id="Vector-2" data-name="Vector" d="M9.062,10.125A5.062,5.062,0,1,0,4,5.062,5.062,5.062,0,0,0,9.062,10.125Z" transform="translate(-0.139)" fill="none" stroke="#666" stroke-linecap="round" stroke-linejoin="round" stroke-width="2"/>
        </g>
      </g>
    </g>
  </g>
</svg>
