<svg xmlns="http://www.w3.org/2000/svg" xmlns:xlink="http://www.w3.org/1999/xlink" width="28" height="28" viewBox="0 0 28 28">
  <g id="Group_4584" data-name="Group 4584" transform="translate(17706 24125)">
    <g id="ghaly-wedinly-K07jvi25Qxg-unsplash" transform="translate(-17706 -24125)" stroke="#fff" stroke-width="2" fill="url(#pattern)">
      <circle cx="14" cy="14" r="14" stroke="none"/>
      <circle cx="14" cy="14" r="13" fill="none"/>
    </g>
    <g id="Ellipse_440" data-name="Ellipse 440" transform="translate(-17706 -24125)" fill="#191919" stroke="#191919" stroke-width="1">
      <circle cx="14" cy="14" r="14" stroke="none"/>
      <circle cx="14" cy="14" r="13.5" fill="none"/>
    </g>
    <g id="user_9_" data-name="user (9)" transform="translate(-17699.646 -24120.094)">
      <g id="Group_631" data-name="Group 631">
        <g id="Account_user" data-name="Account/user" transform="translate(2.695 3.032)">
          <path id="Vector" d="M10.325,16.294V14.863a3.028,3.028,0,0,0-.756-2.024A2.459,2.459,0,0,0,7.743,12H2.581a2.459,2.459,0,0,0-1.825.838A3.028,3.028,0,0,0,0,14.863v1.431" transform="translate(0 -4.679)" fill="none" stroke="#fff" stroke-linecap="round" stroke-linejoin="round" stroke-width="1"/>
          <path id="Vector-2" data-name="Vector" d="M6.835,5.67A2.835,2.835,0,1,0,4,2.835,2.835,2.835,0,0,0,6.835,5.67Z" transform="translate(-1.838)" fill="none" stroke="#fff" stroke-linecap="round" stroke-linejoin="round" stroke-width="1"/>
        </g>
      </g>
    </g>
  </g>
</svg>
