<svg width="112" height="57" viewBox="0 0 112 57" fill="none" xmlns="http://www.w3.org/2000/svg">
<g clip-path="url(#clip0_911_48409)">
<path d="M31.7968 42.1679C32.2526 43.4312 32.73 45.0305 32.3744 47.1033C32.1956 48.0817 30.838 53.408 23.9556 53.8324C22.8515 53.8403 20.1107 53.8776 17.5919 51.6378C14.5604 48.9442 14.9573 45.0737 15.0359 44.2977C15.1105 43.5589 15.4013 41.0756 17.4151 39.0617C18.9888 37.488 20.8494 36.9693 21.5744 36.8063C23.1206 36.4114 27.0245 36.266 28.1876 36.1147C29.9499 35.8848 32.3135 35.4211 34.5906 33.9201C35.3882 33.3936 36.459 32.3641 37.1054 31.0438C38.0524 29.2343 37.6064 27.1595 37.8264 25.3815C38.015 23.9983 38.074 22.2124 41.5162 18.9687C42.5928 17.9863 44.4043 16.1179 45.5242 13.6581C46.0723 12.4518 46.9682 9.86621 46.0507 6.91915C45.0487 4.18821 42.6223 3.31392 42.0682 3.08601C38.5357 1.78341 35.5533 3.38465 35.1544 3.61255C35.1544 3.61255 30.2211 -1.38762 22.3524 0.987707C22.3524 0.987707 21.0577 1.33153 19.4702 2.41605C18.9515 2.74415 18.311 3.48092 16.7 2.89544C16.7 2.89544 13.5014 1.54175 9.62506 2.48678C9.62506 2.48678 1.21808 4.05854 0.0510464 12.3575C0.0510464 12.3575 -0.933271 20.7016 5.7428 23.625C5.7428 23.625 7.11023 24.295 8.98653 24.4207C9.58969 24.4718 11.7116 24.354 12.8491 24.6467C14.1753 24.9453 15.3679 25.8196 15.415 28.6625C15.415 28.6625 15.3659 30.0044 15.3679 30.0712C15.3738 30.1773 15.3659 30.2775 15.531 30.3149C15.531 30.3149 15.698 30.3502 15.7628 30.1577C15.7628 30.1577 16.7432 28.0378 16.1125 25.9729C15.8807 25.2145 15.195 22.7488 10.5603 22.6643C8.59162 22.4698 4.97067 21.6486 3.34389 16.6778C2.98239 15.3045 2.81146 13.2789 3.84489 11.0647C3.84489 11.0647 5.99035 6.30224 11.409 6.38279C11.409 6.38279 12.5643 6.30813 15.2952 7.13331C16.1538 7.36318 18.2973 7.99385 20.2659 7.13331C20.8357 6.88379 22.2876 6.00556 23.213 5.66174C24.883 5.04089 28.2328 4.31985 31.7123 7.26887C31.7123 7.26887 33.4825 8.69525 34.3528 9.86425C34.3528 9.86425 34.5395 10.1157 34.8185 9.86425C35.4963 9.32985 36.6849 8.29641 38.1565 7.81309C38.5927 7.66967 39.4218 7.40836 40.2823 7.65788C41.1782 7.93687 42.3885 8.93494 40.9425 12.4753C40.9425 12.4753 40.2862 14.0491 38.7656 15.8821C38.7656 15.8821 36.2154 19.0492 35.8087 22.9354C35.8087 22.9354 35.5906 24.5033 35.7792 27.8433C35.7458 28.7117 36.2704 30.9239 32.565 31.2009C32.2172 31.2265 27.7652 31.5349 24.5981 31.8414C19.4564 32.2029 16.6489 33.6745 14.5466 36.0675C10.075 41.1541 11.6349 46.8282 11.8295 47.8774C11.8295 47.8774 13.301 54.6163 20.6981 55.9503C20.6981 55.9503 29.5373 57.7657 33.1838 50.3981C33.1838 50.3981 35.7792 45.7319 32.1642 41.6041C32.1642 41.6041 31.8282 41.2308 31.6671 41.105C31.6671 41.105 31.559 41.0009 31.4529 41.0972C31.4215 41.1227 31.3822 41.1836 31.4215 41.2701C31.4215 41.2701 31.6494 41.7789 31.7987 42.1679H31.7968Z" fill="white"/>
<path d="M67.4503 26.7038C70.637 26.7038 72.4013 28.9043 72.4013 31.8847C72.4013 34.8652 70.4307 37.2719 67.3363 37.2719C63.9668 37.2719 62.2929 34.82 62.2929 32.091C62.2929 29.0654 64.401 26.7038 67.4267 26.7038H67.4503ZM67.2675 28.0555C65.7783 28.0555 64.4246 29.4072 64.4246 31.8376C64.4246 34.5646 65.8235 35.9183 67.519 35.9183C68.8707 35.9183 70.2696 34.7728 70.2696 32.0439C70.2696 30.0949 69.4209 28.0555 67.2892 28.0555H67.2656H67.2675Z" fill="white"/>
<path d="M78.8652 26.7038C82.052 26.7038 83.8163 28.9043 83.8163 31.8847C83.8163 34.8652 81.8457 37.2719 78.7513 37.2719C75.3818 37.2719 73.7079 34.82 73.7079 32.091C73.7079 29.0654 75.816 26.7038 78.8417 26.7038H78.8652ZM78.6825 28.0555C77.1933 28.0555 75.8396 29.4072 75.8396 31.8376C75.8396 34.5646 77.2385 35.9183 78.934 35.9183C80.2857 35.9183 81.6846 34.7728 81.6846 32.0439C81.6846 30.0949 80.8358 28.0555 78.7041 28.0555H78.6806H78.6825Z" fill="white"/>
<path d="M92.6182 28.4229C92.3195 28.2402 91.6554 28.0791 90.8303 28.0791C89.066 28.0791 87.2781 29.3404 87.2781 32.0223C87.2781 34.2227 88.6298 35.6216 90.4864 35.6216C91.1977 35.6216 92.068 35.323 92.6182 34.9104V28.4229ZM92.6182 21.4364C92.7596 21.4207 92.903 21.4128 93.0445 21.4128C94.1035 21.4128 94.6339 21.9433 94.6339 23.0043V34.6098C94.6339 35.6648 95.0013 35.8927 95.689 36.0086V36.0774C95.5966 36.6275 95.0937 37.27 94.5652 37.27C93.4885 37.27 93.0288 36.6511 92.8461 35.9635C91.9285 36.7199 90.4845 37.27 89.5905 37.27C87.1386 37.27 85.1444 35.4821 85.1444 32.2737C85.1444 29.0654 87.6199 26.7038 90.8519 26.7038C91.7222 26.7038 92.3647 26.9337 92.6162 27.024V21.4364H92.6182Z" fill="white"/>
<path d="M105.017 27.7805C104.33 30.2324 103.436 32.8239 102.198 35.5057C101.257 37.5804 99.9269 39.8438 99.0585 41.0265L98.6931 41.5295C98.5595 41.7142 98.4121 41.8871 98.2471 42.0442C97.8777 42.39 97.3571 42.7299 96.9563 42.4431C96.6557 42.2289 96.3629 41.5413 96.3904 41.1837L96.4376 41.1169C96.7735 41.1051 97.0604 40.8792 97.5024 40.2603L97.7382 39.9361C98.4337 38.9518 99.2353 37.6924 99.8621 36.4213C99.7481 36.2601 99.5418 35.8476 99.3807 35.435C99.1646 34.875 96.135 27.0084 96.135 27.0084C96.2509 26.9494 96.3688 26.8944 96.4906 26.8472C97.3905 26.4975 98.0152 26.7746 98.365 27.6744L100.917 34.3799C101.563 32.8946 102.357 30.6352 102.913 28.7648L103.222 27.7196C103.485 26.8394 104.057 26.529 104.937 26.7922C105.055 26.8276 105.171 26.8689 105.287 26.918L104.691 28.9063" fill="white"/>
<path d="M58.3281 29.4367C58.4775 29.421 58.6248 29.4131 58.7741 29.4131C59.8822 29.4131 60.4382 29.9691 60.4382 31.0792V35.8731C60.0001 36.2405 59.6288 36.5018 58.7879 36.8122C58.1002 37.0421 56.7014 37.3387 55.6699 37.3387C51.6364 37.3387 47.648 35.4369 47.648 29.9357C47.648 25.2361 51.269 22.3264 55.7387 22.3264C57.3144 22.3264 58.5286 22.6486 59.3419 22.9925L60.8096 23.6113C60.7762 23.7233 60.7369 23.8333 60.6917 23.9394C60.3557 24.7351 59.7899 24.967 58.9922 24.631L58.3478 24.356C57.4637 24.0475 56.5069 23.908 55.6011 23.908C52.2769 23.908 49.9172 26.132 49.9172 29.7766C49.9172 34.1775 53.0117 35.9202 55.9921 35.9202C56.7485 35.9202 57.894 35.7375 58.3301 35.484V29.4387L58.3281 29.4367Z" fill="white"/>
<path d="M100.178 54.192C100.155 54.9484 99.6518 55.6361 99.2392 55.8424C98.8502 56.0487 97.9091 56.3473 96.97 56.3473C93.7616 56.3473 92.0189 54.4671 92.0189 51.2135C92.0189 48.349 93.7616 45.7811 96.8089 45.7811C99.4671 45.7811 100.591 47.7517 100.636 49.6084C100.636 49.8382 100.636 50.1349 100.591 50.3196C100.522 50.687 99.3984 51.0072 98.5968 51.1448C97.9779 51.2371 95.6851 51.2823 94.0347 51.2135C94.0799 53.4592 95.4788 54.7441 97.4965 54.7441C98.5516 54.7441 99.697 54.3551 100.11 54.1252L100.178 54.194V54.192ZM96.5338 47.0641C95.41 47.0641 94.2882 48.0956 94.1271 49.9286C95.7322 49.9738 97.7716 49.9522 98.1842 49.9286C98.4592 49.905 98.6655 49.7223 98.6655 49.4473C98.6891 48.0956 97.9779 47.0641 96.5574 47.0641H96.5338Z" fill="white"/>
<path d="M76.8907 47.3155C77.2129 47.3155 77.5253 47.3548 77.82 47.4157C78.4546 47.5788 78.7532 47.8165 78.8574 48.0975L78.93 48.1191C79.2503 48.0405 79.769 47.5886 79.8692 47.2645C80.0499 46.6868 79.1972 46.2467 78.7748 46.0758C78.7748 46.0758 78.0204 45.7556 76.9594 45.7791C73.8415 45.7791 71.4131 48.0248 71.4131 51.2351C71.4131 55.1783 74.2324 56.3473 76.6156 56.3473C77.6235 56.3473 78.5646 56.1174 79.1147 55.7736C79.435 55.4985 79.6884 54.9032 79.7336 54.3747L79.6648 54.306C79.0695 54.5574 78.0833 54.7637 77.2345 54.7637C75.6293 54.7637 73.5212 53.9386 73.5212 51.0052C73.5212 48.85 74.8965 47.3155 76.8907 47.3155Z" fill="white"/>
<path d="M58.1729 54.5417C57.8822 54.5594 57.613 54.4238 57.2358 54.0447L52.3044 48.96L58.4008 42.2682C58.3105 42.1661 58.2162 42.0678 58.116 41.9774C57.3733 41.2957 56.6601 41.3252 55.9764 42.0698L50.0567 48.573V42.1543C50.0567 41.0874 49.5243 40.555 48.4594 40.555C48.316 40.555 48.1726 40.5629 48.0311 40.5786V54.5516C48.0311 55.6184 48.5636 56.1508 49.6284 56.1508C49.7719 56.1508 49.9153 56.143 50.0567 56.1272V49.1054L56.1513 55.5398C56.5756 55.9131 57.2967 56.4003 57.7584 55.9995C58.0551 55.7422 58.2947 54.9838 58.2279 54.6085L58.171 54.5437L58.1729 54.5417Z" fill="white"/>
<path d="M61.3676 41.4863C62.0316 41.4863 62.4442 41.9676 62.4442 42.6317C62.4442 43.2958 62.008 43.8243 61.3204 43.8243C60.7015 43.8243 60.1966 43.4353 60.1966 42.6788C60.1966 41.8537 60.8607 41.4863 61.342 41.4863H61.3656H61.3676ZM62.401 47.3823C62.401 46.3155 61.8686 45.7831 60.8037 45.7831C60.6603 45.7831 60.5168 45.7909 60.3754 45.8067V54.2686C60.3695 54.8502 60.4717 56.0742 61.2399 56.1469C61.6721 56.1862 62.4619 55.7991 62.7114 55.4593L62.7212 55.363C62.4305 55.0938 62.3971 54.6616 62.403 53.7834V47.3843L62.401 47.3823Z" fill="white"/>
<path d="M90.1721 53.7912C90.1682 54.6675 90.1996 55.0958 90.4904 55.365L90.4806 55.4612C90.231 55.8011 89.4471 56.1862 89.0149 56.1469C88.2487 56.0762 88.1485 54.8561 88.1544 54.2765V50.186C88.1544 48.1682 87.1916 47.4118 85.9323 47.4118C84.8556 47.4118 83.8458 48.123 83.388 48.5808V56.1253C83.2446 56.141 83.1011 56.1489 82.9597 56.1489C81.8948 56.1489 81.3624 55.6164 81.3624 54.5496V40.5766C81.5058 40.5609 81.6492 40.553 81.7907 40.553C82.8555 40.553 83.388 41.0855 83.388 42.1523V47.2979C84.2583 46.565 85.4057 45.7851 86.8026 45.7851C89.3705 45.7851 90.1721 47.8244 90.1721 50.0249V53.7912Z" fill="white"/>
<path d="M104.308 56.1253C104.165 56.141 104.021 56.1489 103.88 56.1489C102.815 56.1489 102.286 55.6165 102.286 54.5496V48.1427C102.286 47.294 102.173 46.905 101.874 46.6751V46.5827C102.08 46.2389 102.791 45.8028 103.204 45.8028C103.937 45.8028 104.143 46.9482 104.19 47.4983C105.153 46.5592 106.414 45.7792 107.674 45.7792C110.356 45.7792 111.067 47.8421 111.067 49.9974V53.7893C111.065 54.6655 111.096 55.0938 111.387 55.363L111.377 55.4593C111.128 55.7992 110.344 56.1843 109.912 56.145C109.145 56.0742 109.045 54.8542 109.051 54.2746V50.0426C109.051 48.2999 108.271 47.406 106.919 47.406C105.75 47.406 104.86 48.1388 104.31 48.7361V56.1234L104.308 56.1253Z" fill="white"/>
<path d="M70.9318 54.2981L70.861 54.251C70.4563 54.5123 69.7647 54.752 69.0496 54.752C68.2401 54.752 67.4778 54.3944 67.358 53.0132L67.299 48.1663V45.7752H69.0869C69.1066 45.7752 69.1262 45.7752 69.1458 45.7752H69.1517C69.6547 45.7713 70.584 45.6691 70.641 45.0601C70.6744 44.7025 70.3541 44.0482 70.0712 43.8419L69.9926 43.8341C69.7942 44.0482 69.4916 44.0934 68.9179 44.0974H67.301V42.1543C67.301 41.0874 66.7686 40.555 65.7037 40.555C65.5603 40.555 65.4168 40.5629 65.2754 40.5786L65.2675 44.0974H65.0593C64.1771 44.0974 63.735 44.5394 63.735 45.4196C63.735 45.5375 63.7409 45.6573 63.7547 45.7752H65.2656V53.2038C65.2656 55.0152 66.1006 56.3493 68.244 56.3493C69.1026 56.3493 70.0084 56.1115 70.4838 55.7048C70.9121 55.3708 71.032 54.7755 70.9357 54.2981H70.9318Z" fill="white"/>
</g>
<defs>
<clipPath id="clip0_911_48409">
<rect width="111.385" height="56" fill="white" transform="translate(0 0.34729)"/>
</clipPath>
</defs>
</svg>
