<svg width="80" height="41" viewBox="0 0 80 41" fill="none" xmlns="http://www.w3.org/2000/svg">
<g clip-path="url(#clip0_2705_32859)">
<path d="M22.712 29.9967C23.0375 30.899 23.3786 32.0414 23.1246 33.5219C22.9968 34.2208 22.0271 38.0253 17.1112 38.3284C16.3225 38.334 14.3648 38.3607 12.5657 36.7609C10.4003 34.8369 10.6838 32.0722 10.7399 31.5179C10.7932 30.9902 11.0009 29.2164 12.4394 27.778C13.5635 26.6539 14.8924 26.2834 15.4103 26.1669C16.5147 25.8848 19.3032 25.781 20.134 25.6729C21.3928 25.5087 23.081 25.1775 24.7075 24.1054C25.2773 23.7293 26.0421 22.9939 26.5038 22.0508C27.1803 20.7583 26.8617 19.2764 27.0189 18.0064C27.1536 17.0184 27.1957 15.7427 29.6544 13.4258C30.4234 12.7241 31.7173 11.3895 32.5173 9.6325C32.9088 8.77083 33.5487 6.92401 32.8933 4.81897C32.1776 2.8683 30.4445 2.2438 30.0487 2.08101C27.5255 1.15058 25.3952 2.29432 25.1103 2.45711C25.1103 2.45711 21.5865 -1.11444 15.966 0.582222C15.966 0.582222 15.0412 0.827811 13.9073 1.60247C13.5368 1.83683 13.0793 2.36309 11.9285 1.94489C11.9285 1.94489 9.64387 0.97797 6.87504 1.65299C6.87504 1.65299 0.870058 2.77568 0.0364617 8.70347C0.0364617 8.70347 -0.666622 14.6635 4.102 16.7517C4.102 16.7517 5.07874 17.2303 6.41895 17.3201C6.84978 17.3566 8.36541 17.2724 9.17795 17.4815C10.1252 17.6948 10.9771 18.3193 11.0107 20.35C11.0107 20.35 10.9757 21.3085 10.9771 21.3562C10.9813 21.432 10.9757 21.5035 11.0935 21.5302C11.0935 21.5302 11.2128 21.5555 11.2591 21.4179C11.2591 21.4179 11.9594 19.9037 11.5089 18.4288C11.3433 17.8871 10.8536 16.1259 7.54304 16.0655C6.13687 15.9266 3.55048 15.34 2.38849 11.7895C2.13028 10.8085 2.00818 9.36165 2.74635 7.78006C2.74635 7.78006 4.27882 4.37831 8.14929 4.43585C8.14929 4.43585 8.97447 4.38252 10.9251 4.97194C11.5384 5.13613 13.0695 5.58661 14.4756 4.97194C14.8826 4.79371 15.9197 4.16641 16.5807 3.92082C17.7735 3.47736 20.1663 2.96232 22.6516 5.06877C22.6516 5.06877 23.916 6.08761 24.5377 6.92261C24.5377 6.92261 24.6711 7.10224 24.8703 6.92261C25.3545 6.54089 26.2035 5.80273 27.2546 5.4575C27.5662 5.35505 28.1584 5.16841 28.7731 5.34663C29.413 5.54591 30.2775 6.25882 29.2446 8.78767C29.2446 8.78767 28.7759 9.91177 27.6897 11.2211C27.6897 11.2211 25.8681 13.4833 25.5776 16.2592C25.5776 16.2592 25.4219 17.3791 25.5566 19.7648C25.5327 20.385 25.9074 21.9652 23.2607 22.1631C23.0123 22.1814 19.8323 22.4017 17.5701 22.6206C13.8975 22.8788 11.8921 23.9299 10.3905 25.6392C7.19641 29.2725 8.31068 33.3254 8.44961 34.0748C8.44961 34.0748 9.50073 38.8884 14.7844 39.8413C14.7844 39.8413 21.0981 41.138 23.7027 35.8754C23.7027 35.8754 25.5566 32.5424 22.9744 29.5939C22.9744 29.5939 22.7344 29.3273 22.6193 29.2375C22.6193 29.2375 22.5422 29.1631 22.4664 29.2318C22.4439 29.2501 22.4159 29.2936 22.4439 29.3553C22.4439 29.3553 22.6067 29.7188 22.7134 29.9967H22.712Z" fill="#C42929"/>
<path d="M48.1789 18.9492C50.4552 18.9492 51.7154 20.521 51.7154 22.6499C51.7154 24.7788 50.3078 26.4979 48.0975 26.4979C45.6908 26.4979 44.4951 24.7465 44.4951 22.7972C44.4951 20.6361 46.0009 18.9492 48.1621 18.9492H48.1789ZM48.0484 19.9147C46.9847 19.9147 46.0178 20.8802 46.0178 22.6162C46.0178 24.5641 47.017 25.531 48.2281 25.531C49.1936 25.531 50.1928 24.7128 50.1928 22.7636C50.1928 21.3714 49.5865 19.9147 48.0639 19.9147H48.047H48.0484Z" fill="white"/>
<path d="M56.3325 18.9492C58.6088 18.9492 59.869 20.521 59.869 22.6499C59.869 24.7788 58.4614 26.4979 56.2511 26.4979C53.8443 26.4979 52.6487 24.7465 52.6487 22.7972C52.6487 20.6361 54.1545 18.9492 56.3157 18.9492H56.3325ZM56.202 19.9147C55.1382 19.9147 54.1713 20.8802 54.1713 22.6162C54.1713 24.5641 55.1705 25.531 56.3816 25.531C57.3471 25.531 58.3463 24.7128 58.3463 22.7636C58.3463 21.3714 57.7401 19.9147 56.2174 19.9147H56.2006H56.202Z" fill="white"/>
<path d="M66.156 20.1791C65.9427 20.0486 65.4684 19.9335 64.879 19.9335C63.6187 19.9335 62.3417 20.8344 62.3417 22.75C62.3417 24.3218 63.3072 25.321 64.6334 25.321C65.1414 25.321 65.7631 25.1077 66.156 24.813V20.1791ZM66.156 15.1887C66.2571 15.1775 66.3595 15.1719 66.4605 15.1719C67.217 15.1719 67.5959 15.5508 67.5959 16.3086V24.5983C67.5959 25.3519 67.8583 25.5146 68.3495 25.5974V25.6466C68.2835 26.0395 67.9242 26.4984 67.5467 26.4984C66.7777 26.4984 66.4493 26.0563 66.3188 25.5652C65.6634 26.1055 64.632 26.4984 63.9934 26.4984C62.242 26.4984 60.8176 25.2213 60.8176 22.9297C60.8176 20.638 62.5859 18.9511 64.8944 18.9511C65.5161 18.9511 65.975 19.1153 66.1546 19.1799V15.1887H66.156Z" fill="white"/>
<path d="M75.0126 19.7204C74.5214 21.4718 73.8829 23.3228 72.9987 25.2384C72.3265 26.7204 71.3765 28.3371 70.7562 29.1819L70.4951 29.5411C70.3997 29.6731 70.2945 29.7965 70.1766 29.9088C69.9127 30.1558 69.5409 30.3986 69.2546 30.1937C69.0399 30.0407 68.8308 29.5496 68.8504 29.2941L68.8841 29.2464C69.1241 29.238 69.329 29.0766 69.6447 28.6346L69.8131 28.403C70.3099 27.6999 70.8825 26.8004 71.3301 25.8924C71.2487 25.7773 71.1014 25.4826 70.9863 25.1879C70.8319 24.788 68.668 19.1689 68.668 19.1689C68.7508 19.1268 68.835 19.0875 68.922 19.0538C69.5647 18.804 70.011 19.0019 70.2608 19.6446L72.0838 24.4343C72.5455 23.3734 73.1124 21.7595 73.5096 20.4235L73.7299 19.6769C73.9179 19.0482 74.3263 18.8265 74.955 19.0145C75.0392 19.0398 75.122 19.0693 75.2048 19.1043L74.7796 20.5245" fill="white"/>
<path d="M41.6631 20.903C41.7697 20.8918 41.875 20.8861 41.9817 20.8861C42.7732 20.8861 43.1703 21.2833 43.1703 22.0762V25.5004C42.8574 25.7628 42.5921 25.9495 41.9915 26.1712C41.5003 26.3354 40.5011 26.5473 39.7643 26.5473C36.8832 26.5473 34.0344 25.1888 34.0344 21.2594C34.0344 17.9026 36.6208 15.8242 39.8135 15.8242C40.939 15.8242 41.8062 16.0544 42.3872 16.3L43.4355 16.742C43.4117 16.822 43.3836 16.9006 43.3513 16.9764C43.1114 17.5447 42.7072 17.7103 42.1374 17.4704L41.6771 17.2739C41.0456 17.0536 40.3622 16.9539 39.7152 16.9539C37.3407 16.9539 35.6553 18.5425 35.6553 21.1458C35.6553 24.2893 37.8656 25.5341 39.9945 25.5341C40.5348 25.5341 41.353 25.4036 41.6645 25.2225V20.9044L41.6631 20.903Z" fill="white"/>
<path d="M71.5559 38.5859C71.5391 39.1262 71.1798 39.6174 70.8851 39.7647C70.6073 39.9121 69.9351 40.1254 69.2643 40.1254C66.9726 40.1254 65.7278 38.7824 65.7278 36.4584C65.7278 34.4123 66.9726 32.5781 69.1492 32.5781C71.0479 32.5781 71.8506 33.9857 71.8829 35.3119C71.8829 35.4761 71.8829 35.688 71.8506 35.8199C71.8015 36.0823 70.9988 36.3111 70.4262 36.4093C69.9842 36.4753 68.3465 36.5075 67.1676 36.4584C67.1999 38.0625 68.1991 38.9803 69.6404 38.9803C70.394 38.9803 71.2121 38.7024 71.5068 38.5382L71.5559 38.5873V38.5859ZM68.9527 33.4945C68.15 33.4945 67.3487 34.2313 67.2336 35.5406C68.3801 35.5729 69.8368 35.5575 70.1315 35.5406C70.328 35.5238 70.4754 35.3933 70.4754 35.1968C70.4922 34.2313 69.9842 33.4945 68.9695 33.4945H68.9527Z" fill="white"/>
<path d="M54.9218 33.6725C55.152 33.6725 55.3751 33.7006 55.5856 33.7441C56.0389 33.8606 56.2522 34.0304 56.3266 34.2311L56.3785 34.2465C56.6073 34.1904 56.9778 33.8676 57.0493 33.636C57.1785 33.2235 56.5694 32.9091 56.2677 32.787C56.2677 32.787 55.7288 32.5583 54.971 32.5751C52.7438 32.5751 51.0093 34.1791 51.0093 36.4722C51.0093 39.2888 53.0231 40.1238 54.7254 40.1238C55.4453 40.1238 56.1175 39.9596 56.5105 39.714C56.7392 39.5175 56.9202 39.0923 56.9525 38.7148L56.9034 38.6657C56.4782 38.8453 55.7737 38.9927 55.1674 38.9927C54.0209 38.9927 52.5151 38.4033 52.5151 36.308C52.5151 34.7686 53.4974 33.6725 54.9218 33.6725Z" fill="white"/>
<path d="M41.552 38.8343C41.3443 38.8469 41.1521 38.7501 40.8826 38.4792L37.3602 34.8473L41.7148 30.0675C41.6502 29.9945 41.5829 29.9243 41.5113 29.8598C40.9808 29.3728 40.4714 29.3939 39.9831 29.9257L35.7547 34.5709V29.9861C35.7547 29.2241 35.3744 28.8438 34.6138 28.8438C34.5113 28.8438 34.4089 28.8494 34.3079 28.8606V38.8413C34.3079 39.6033 34.6882 39.9836 35.4488 39.9836C35.5512 39.9836 35.6537 39.978 35.7547 39.9668V34.9512L40.1079 39.5472C40.4111 39.8138 40.9261 40.1619 41.2559 39.8756C41.4678 39.6917 41.639 39.15 41.5913 38.882L41.5506 38.8357L41.552 38.8343Z" fill="white"/>
<path d="M43.834 29.5117C44.3083 29.5117 44.603 29.8555 44.603 30.3299C44.603 30.8042 44.2915 31.1817 43.8003 31.1817C43.3582 31.1817 42.9976 30.9039 42.9976 30.3636C42.9976 29.7741 43.4719 29.5117 43.8157 29.5117H43.8326H43.834ZM44.5721 33.7232C44.5721 32.9612 44.1918 32.5809 43.4312 32.5809C43.3288 32.5809 43.2263 32.5865 43.1253 32.5977V38.642C43.1211 39.0574 43.194 39.9317 43.7427 39.9836C44.0515 40.0117 44.6156 39.7352 44.7939 39.4924L44.8009 39.4237C44.5932 39.2314 44.5693 38.9227 44.5735 38.2954V33.7246L44.5721 33.7232Z" fill="white"/>
<path d="M64.4086 38.2996C64.4058 38.9255 64.4283 39.2314 64.636 39.4237L64.629 39.4925C64.4507 39.7352 63.8908 40.0103 63.5821 39.9822C63.0348 39.9317 62.9632 39.0602 62.9674 38.6462V35.7244C62.9674 34.2832 62.2797 33.7429 61.3802 33.7429C60.6111 33.7429 59.8898 34.2509 59.5628 34.5779V39.9668C59.4604 39.978 59.3579 39.9836 59.2569 39.9836C58.4963 39.9836 58.116 39.6033 58.116 38.8413V28.8606C58.2184 28.8494 58.3209 28.8438 58.4219 28.8438C59.1825 28.8438 59.5628 29.2241 59.5628 29.9861V33.6615C60.1845 33.138 61.0041 32.5809 62.0019 32.5809C63.8361 32.5809 64.4086 34.0376 64.4086 35.6094V38.2996Z" fill="white"/>
<path d="M74.5058 39.9682C74.4034 39.9794 74.301 39.9851 74.1999 39.9851C73.4393 39.9851 73.0618 39.6048 73.0618 38.8427V34.2664C73.0618 33.6601 72.9804 33.3823 72.7671 33.2181V33.1521C72.9144 32.9065 73.4225 32.595 73.7172 32.595C74.2406 32.595 74.388 33.4131 74.4217 33.8061C75.1093 33.1353 76.0103 32.5781 76.9098 32.5781C78.8254 32.5781 79.3334 34.0517 79.3334 35.5911V38.2996C79.332 38.9255 79.3545 39.2315 79.5622 39.4237L79.5551 39.4925C79.3769 39.7353 78.817 40.0103 78.5082 39.9823C77.9609 39.9317 77.8894 39.0603 77.8936 38.6463V35.6234C77.8936 34.3786 77.3364 33.7401 76.3709 33.7401C75.5359 33.7401 74.9002 34.2636 74.5073 34.6902V39.9668L74.5058 39.9682Z" fill="white"/>
<path d="M50.6654 38.6603L50.6149 38.6266C50.3258 38.8132 49.8318 38.9844 49.321 38.9844C48.7428 38.9844 48.1983 38.729 48.1127 37.7425L48.0706 34.2804V32.5725H49.3477C49.3617 32.5725 49.3757 32.5725 49.3898 32.5725H49.394C49.7532 32.5697 50.417 32.4967 50.4577 32.0617C50.4816 31.8062 50.2528 31.3389 50.0507 31.1916L49.9946 31.186C49.8529 31.3389 49.6367 31.3712 49.227 31.374H48.072V29.9861C48.072 29.2241 47.6917 28.8438 46.9311 28.8438C46.8286 28.8438 46.7262 28.8494 46.6251 28.8606L46.6195 31.374H46.4708C45.8407 31.374 45.5249 31.6898 45.5249 32.3185C45.5249 32.4027 45.5291 32.4883 45.5389 32.5725H46.6181V37.8786C46.6181 39.1725 47.2146 40.1254 48.7456 40.1254C49.3589 40.1254 50.0058 39.9556 50.3454 39.6651C50.6514 39.4265 50.737 39.0013 50.6682 38.6603H50.6654Z" fill="white"/>
</g>
<defs>
<clipPath id="clip0_2705_32859">
<rect width="79.5607" height="40" fill="white" transform="translate(0 0.125)"/>
</clipPath>
</defs>
</svg>
