<svg width="112" height="58" viewBox="0 0 112 58" fill="none" xmlns="http://www.w3.org/2000/svg">
<g clip-path="url(#clip0_66_383)">
<path d="M31.7968 41.9943C32.2526 43.2576 32.73 44.8569 32.3744 46.9296C32.1956 47.9081 30.838 53.2344 23.9556 53.6587C22.8515 53.6666 20.1107 53.7039 17.5919 51.4642C14.5604 48.7706 14.9573 44.9001 15.0359 44.124C15.1105 43.3853 15.4013 40.9019 17.4151 38.8881C18.9888 37.3144 20.8494 36.7957 21.5744 36.6326C23.1206 36.2377 27.0245 36.0923 28.1876 35.941C29.9499 35.7112 32.3135 35.2475 34.5906 33.7465C35.3882 33.2199 36.459 32.1904 37.1054 30.8701C38.0524 29.0606 37.6064 26.9859 37.8264 25.2078C38.015 23.8247 38.074 22.0388 41.5162 18.795C42.5928 17.8127 44.4043 15.9443 45.5242 13.4844C46.0723 12.2781 46.9682 9.69257 46.0507 6.74551C45.0487 4.01457 42.6223 3.14027 42.0682 2.91237C38.5357 1.60977 35.5533 3.211 35.1544 3.43891C35.1544 3.43891 30.2211 -1.56127 22.3524 0.814062C22.3524 0.814062 21.0577 1.15789 19.4702 2.2424C18.9515 2.57051 18.311 3.30727 16.7 2.72179C16.7 2.72179 13.5014 1.36811 9.62506 2.31313C9.62506 2.31313 1.21808 3.8849 0.0510464 12.1838C0.0510464 12.1838 -0.933271 20.5279 5.7428 23.4514C5.7428 23.4514 7.11023 24.1214 8.98653 24.2471C9.58969 24.2982 11.7116 24.1803 12.8491 24.473C14.1753 24.7717 15.3679 25.646 15.415 28.4889C15.415 28.4889 15.3659 29.8308 15.3679 29.8976C15.3738 30.0037 15.3659 30.1039 15.531 30.1412C15.531 30.1412 15.698 30.1766 15.7628 29.984C15.7628 29.984 16.7432 27.8641 16.1125 25.7992C15.8807 25.0408 15.195 22.5751 10.5603 22.4907C8.59162 22.2962 4.97067 21.4749 3.34389 16.5042C2.98239 15.1309 2.81146 13.1053 3.84489 10.891C3.84489 10.891 5.99035 6.12859 11.409 6.20914C11.409 6.20914 12.5643 6.13448 15.2952 6.95966C16.1538 7.18953 18.2973 7.8202 20.2659 6.95966C20.8357 6.71014 22.2876 5.83192 23.213 5.4881C24.883 4.86725 28.2328 4.1462 31.7123 7.09523C31.7123 7.09523 33.4825 8.5216 34.3528 9.6906C34.3528 9.6906 34.5395 9.94208 34.8185 9.6906C35.4963 9.1562 36.6849 8.12277 38.1565 7.63945C38.5927 7.49603 39.4218 7.23472 40.2823 7.48424C41.1782 7.76323 42.3885 8.7613 40.9425 12.3017C40.9425 12.3017 40.2862 13.8754 38.7656 15.7085C38.7656 15.7085 36.2154 18.8756 35.8087 22.7618C35.8087 22.7618 35.5906 24.3296 35.7792 27.6696C35.7458 28.538 36.2704 30.7503 32.565 31.0273C32.2172 31.0528 27.7652 31.3613 24.5981 31.6678C19.4564 32.0293 16.6489 33.5009 14.5466 35.8939C10.075 40.9805 11.6349 46.6546 11.8295 47.7037C11.8295 47.7037 13.301 54.4427 20.6981 55.7767C20.6981 55.7767 29.5373 57.5921 33.1838 50.2244C33.1838 50.2244 35.7792 45.5583 32.1642 41.4304C32.1642 41.4304 31.8282 41.0571 31.6671 40.9314C31.6671 40.9314 31.559 40.8273 31.4529 40.9235C31.4215 40.9491 31.3822 41.01 31.4215 41.0964C31.4215 41.0964 31.6494 41.6053 31.7987 41.9943H31.7968Z" fill="#D6001C"/>
<path d="M67.4503 26.5302C70.637 26.5302 72.4013 28.7306 72.4013 31.7111C72.4013 34.6915 70.4307 37.0983 67.3363 37.0983C63.9668 37.0983 62.2929 34.6464 62.2929 31.9174C62.2929 28.8917 64.401 26.5302 67.4267 26.5302H67.4503ZM67.2675 27.8819C65.7783 27.8819 64.4246 29.2336 64.4246 31.6639C64.4246 34.3909 65.8235 35.7446 67.519 35.7446C68.8707 35.7446 70.2696 34.5992 70.2696 31.8702C70.2696 29.9212 69.4209 27.8819 67.2892 27.8819H67.2656H67.2675Z" fill="black"/>
<path d="M78.8652 26.5302C82.052 26.5302 83.8163 28.7306 83.8163 31.7111C83.8163 34.6915 81.8457 37.0983 78.7513 37.0983C75.3818 37.0983 73.7079 34.6464 73.7079 31.9174C73.7079 28.8917 75.816 26.5302 78.8417 26.5302H78.8652ZM78.6825 27.8819C77.1933 27.8819 75.8396 29.2336 75.8396 31.6639C75.8396 34.3909 77.2385 35.7446 78.934 35.7446C80.2857 35.7446 81.6846 34.5992 81.6846 31.8702C81.6846 29.9212 80.8358 27.8819 78.7041 27.8819H78.6806H78.6825Z" fill="black"/>
<path d="M92.6182 28.2493C92.3195 28.0665 91.6554 27.9054 90.8303 27.9054C89.066 27.9054 87.2781 29.1668 87.2781 31.8486C87.2781 34.0491 88.6298 35.4479 90.4864 35.4479C91.1977 35.4479 92.068 35.1493 92.6182 34.7367V28.2493ZM92.6182 21.2628C92.7596 21.2471 92.903 21.2392 93.0445 21.2392C94.1035 21.2392 94.6339 21.7697 94.6339 22.8306V34.4361C94.6339 35.4912 95.0013 35.7191 95.689 35.835V35.9038C95.5966 36.4539 95.0937 37.0963 94.5652 37.0963C93.4885 37.0963 93.0288 36.4775 92.8461 35.7898C91.9285 36.5462 90.4845 37.0963 89.5905 37.0963C87.1386 37.0963 85.1444 35.3085 85.1444 32.1001C85.1444 28.8917 87.6199 26.5301 90.8519 26.5301C91.7222 26.5301 92.3647 26.76 92.6162 26.8504V21.2628H92.6182Z" fill="black"/>
<path d="M105.017 27.6068C104.33 30.0588 103.436 32.6502 102.198 35.3321C101.257 37.4068 99.9269 39.6701 99.0585 40.8529L98.6931 41.3558C98.5595 41.5405 98.4121 41.7134 98.2471 41.8706C97.8777 42.2164 97.3571 42.5563 96.9563 42.2694C96.6557 42.0553 96.3629 41.3676 96.3904 41.0101L96.4376 40.9433C96.7735 40.9315 97.0604 40.7055 97.5024 40.0866L97.7382 39.7625C98.4337 38.7782 99.2353 37.5188 99.8621 36.2476C99.7481 36.0865 99.5418 35.6739 99.3807 35.2613C99.1646 34.7014 96.135 26.8347 96.135 26.8347C96.2509 26.7758 96.3688 26.7208 96.4906 26.6736C97.3905 26.3239 98.0152 26.6009 98.365 27.5007L100.917 34.2063C101.563 32.721 102.357 30.4616 102.913 28.5912L103.222 27.5459C103.485 26.6657 104.057 26.3553 104.937 26.6186C105.055 26.654 105.171 26.6952 105.287 26.7443L104.691 28.7326" fill="black"/>
<path d="M58.3281 29.263C58.4775 29.2473 58.6248 29.2395 58.7741 29.2395C59.8822 29.2395 60.4382 29.7955 60.4382 30.9055V35.6994C60.0001 36.0668 59.6288 36.3281 58.7879 36.6385C58.1002 36.8684 56.7014 37.1651 55.6699 37.1651C51.6364 37.1651 47.648 35.2633 47.648 29.7621C47.648 25.0625 51.269 22.1528 55.7387 22.1528C57.3144 22.1528 58.5286 22.475 59.3419 22.8188L60.8096 23.4377C60.7762 23.5497 60.7369 23.6597 60.6917 23.7658C60.3557 24.5615 59.7899 24.7933 58.9922 24.4574L58.3478 24.1823C57.4637 23.8739 56.5069 23.7344 55.6011 23.7344C52.2769 23.7344 49.9172 25.9584 49.9172 29.6029C49.9172 34.0039 53.0117 35.7466 55.9921 35.7466C56.7485 35.7466 57.894 35.5639 58.3301 35.3104V29.265L58.3281 29.263Z" fill="black"/>
<path d="M100.178 54.0184C100.155 54.7748 99.6518 55.4624 99.2392 55.6687C98.8502 55.875 97.9091 56.1737 96.97 56.1737C93.7616 56.1737 92.0189 54.2934 92.0189 51.0399C92.0189 48.1754 93.7616 45.6075 96.8089 45.6075C99.4671 45.6075 100.591 47.5781 100.636 49.4347C100.636 49.6646 100.636 49.9613 100.591 50.146C100.522 50.5134 99.3984 50.8336 98.5968 50.9711C97.9779 51.0635 95.6851 51.1087 94.0347 51.0399C94.0799 53.2856 95.4788 54.5705 97.4965 54.5705C98.5516 54.5705 99.697 54.1815 100.11 53.9516L100.178 54.0204V54.0184ZM96.5338 46.8904C95.41 46.8904 94.2882 47.9219 94.1271 49.755C95.7322 49.8002 97.7716 49.7786 98.1842 49.755C98.4592 49.7314 98.6655 49.5487 98.6655 49.2736C98.6891 47.9219 97.9779 46.8904 96.5574 46.8904H96.5338Z" fill="black"/>
<path d="M76.8907 47.1419C77.2129 47.1419 77.5253 47.1812 77.82 47.2421C78.4546 47.4052 78.7532 47.6429 78.8574 47.9238L78.93 47.9455C79.2503 47.8669 79.769 47.415 79.8692 47.0908C80.0499 46.5132 79.1972 46.0731 78.7748 45.9022C78.7748 45.9022 78.0204 45.5819 76.9594 45.6055C73.8415 45.6055 71.4131 47.8511 71.4131 51.0615C71.4131 55.0046 74.2324 56.1736 76.6156 56.1736C77.6235 56.1736 78.5646 55.9438 79.1147 55.5999C79.435 55.3249 79.6884 54.7296 79.7336 54.2011L79.6648 54.1323C79.0695 54.3838 78.0833 54.5901 77.2345 54.5901C75.6293 54.5901 73.5212 53.7649 73.5212 50.8316C73.5212 48.6763 74.8965 47.1419 76.8907 47.1419Z" fill="black"/>
<path d="M58.1729 54.3681C57.8822 54.3858 57.613 54.2502 57.2358 53.871L52.3044 48.7864L58.4008 42.0946C58.3105 41.9924 58.2162 41.8942 58.116 41.8038C57.3733 41.122 56.6601 41.1515 55.9764 41.8961L50.0567 48.3993V41.9806C50.0567 40.9138 49.5243 40.3813 48.4594 40.3813C48.316 40.3813 48.1726 40.3892 48.0311 40.4049V54.3779C48.0311 55.4447 48.5636 55.9772 49.6284 55.9772C49.7719 55.9772 49.9153 55.9693 50.0567 55.9536V48.9317L56.1513 55.3662C56.5756 55.7395 57.2967 56.2267 57.7584 55.8259C58.0551 55.5685 58.2947 54.8101 58.2279 54.4349L58.171 54.3701L58.1729 54.3681Z" fill="black"/>
<path d="M61.3676 41.3126C62.0316 41.3126 62.4442 41.794 62.4442 42.458C62.4442 43.1221 62.008 43.6506 61.3204 43.6506C60.7015 43.6506 60.1966 43.2616 60.1966 42.5052C60.1966 41.68 60.8607 41.3126 61.342 41.3126H61.3656H61.3676ZM62.401 47.2087C62.401 46.1419 61.8686 45.6094 60.8037 45.6094C60.6603 45.6094 60.5168 45.6173 60.3754 45.633V54.095C60.3695 54.6766 60.4717 55.9006 61.2399 55.9733C61.6721 56.0126 62.4619 55.6255 62.7114 55.2856L62.7212 55.1893C62.4305 54.9202 62.3971 54.4879 62.403 53.6097V47.2107L62.401 47.2087Z" fill="black"/>
<path d="M90.1721 53.6176C90.1682 54.4938 90.1996 54.9221 90.4904 55.1913L90.4806 55.2876C90.231 55.6275 89.4471 56.0126 89.0149 55.9733C88.2487 55.9025 88.1485 54.6824 88.1544 54.1029V50.0123C88.1544 47.9946 87.1916 47.2382 85.9323 47.2382C84.8556 47.2382 83.8458 47.9494 83.388 48.4072V55.9516C83.2446 55.9674 83.1011 55.9752 82.9597 55.9752C81.8948 55.9752 81.3624 55.4428 81.3624 54.376V40.403C81.5058 40.3873 81.6492 40.3794 81.7907 40.3794C82.8555 40.3794 83.388 40.9118 83.388 41.9787V47.1242C84.2583 46.3914 85.4057 45.6114 86.8026 45.6114C89.3705 45.6114 90.1721 47.6508 90.1721 49.8512V53.6176Z" fill="black"/>
<path d="M104.308 55.9517C104.165 55.9674 104.021 55.9752 103.88 55.9752C102.815 55.9752 102.286 55.4428 102.286 54.376V47.9691C102.286 47.1203 102.173 46.7313 101.874 46.5014V46.4091C102.08 46.0653 102.791 45.6291 103.204 45.6291C103.937 45.6291 104.143 46.7745 104.19 47.3246C105.153 46.3855 106.414 45.6055 107.674 45.6055C110.356 45.6055 111.067 47.6685 111.067 49.8238V53.6156C111.065 54.4919 111.096 54.9202 111.387 55.1894L111.377 55.2856C111.128 55.6255 110.344 56.0106 109.912 55.9713C109.145 55.9006 109.045 54.6805 109.051 54.1009V49.8689C109.051 48.1262 108.271 47.2323 106.919 47.2323C105.75 47.2323 104.86 47.9651 104.31 48.5624V55.9497L104.308 55.9517Z" fill="black"/>
<path d="M70.9318 54.1245L70.861 54.0773C70.4563 54.3386 69.7647 54.5783 69.0496 54.5783C68.2401 54.5783 67.4778 54.2207 67.358 52.8395L67.299 47.9926V45.6016H69.0869C69.1066 45.6016 69.1262 45.6016 69.1458 45.6016H69.1517C69.6547 45.5976 70.584 45.4955 70.641 44.8864C70.6744 44.5288 70.3541 43.8746 70.0712 43.6683L69.9926 43.6604C69.7942 43.8746 69.4916 43.9198 68.9179 43.9237H67.301V41.9806C67.301 40.9138 66.7686 40.3813 65.7037 40.3813C65.5603 40.3813 65.4168 40.3892 65.2754 40.4049L65.2675 43.9237H65.0593C64.1771 43.9237 63.735 44.3658 63.735 45.246C63.735 45.3638 63.7409 45.4837 63.7547 45.6016H65.2656V53.0301C65.2656 54.8416 66.1006 56.1756 68.244 56.1756C69.1026 56.1756 70.0084 55.9379 70.4838 55.5312C70.9121 55.1972 71.032 54.6019 70.9357 54.1245H70.9318Z" fill="black"/>
</g>
<defs>
<clipPath id="clip0_66_383">
<rect width="111.385" height="56" fill="white" transform="translate(0 0.173645)"/>
</clipPath>
</defs>
</svg>
