<svg xmlns="http://www.w3.org/2000/svg" width="41.5" height="41.5" viewBox="0 0 41.5 41.5"><g transform="translate(-1435.25 -254.25)"><circle cx="20" cy="20" r="20" transform="translate(1436 255)" fill="#D6001C" stroke="#fff" stroke-width="2"/><path d="M382.559,249.089a4.954,4.954,0,0,1,.31,2.652,4.557,4.557,0,0,1-4.523,3.615,4.808,4.808,0,0,1-3.419-1.179,4.658,4.658,0,0,1,2.14-7.969c.831-.212,2.928-.29,3.554-.372a7.942,7.942,0,0,0,3.44-1.179,4.144,4.144,0,0,0,1.352-1.545c.509-.972.269-2.087.387-3.042.1-.744.132-1.7,1.982-3.446a9.18,9.18,0,0,0,2.154-2.854,5.126,5.126,0,0,0,.283-3.621,3.553,3.553,0,0,0-2.14-2.059,4.583,4.583,0,0,0-3.715.283,7.025,7.025,0,0,0-6.878-1.411,5.61,5.61,0,0,0-1.548.767,1.347,1.347,0,0,1-1.488.257,6.614,6.614,0,0,0-3.8-.22s-4.517.845-5.144,5.3c0,0-.529,4.483,3.058,6.054a5.136,5.136,0,0,0,1.743.428,12.5,12.5,0,0,1,2.075.122c.712.161,1.354.63,1.378,2.157,0,0-.027.721-.025.757,0,.057,0,.11.088.131a.111.111,0,0,0,.125-.084,3.544,3.544,0,0,0,.187-2.248c-.125-.408-.493-1.732-2.983-1.778a4.271,4.271,0,0,1-3.877-3.217,4.393,4.393,0,0,1,.269-3.016,4.524,4.524,0,0,1,4.064-2.516,6.868,6.868,0,0,1,2.088.4,4.058,4.058,0,0,0,2.671,0c.306-.134,1.086-.606,1.583-.791a4.383,4.383,0,0,1,4.567.863,10.034,10.034,0,0,1,1.419,1.4.159.159,0,0,0,.25,0,5.97,5.97,0,0,1,1.793-1.1,1.933,1.933,0,0,1,1.142-.083c.482.149,1.131.686.354,2.589a8.085,8.085,0,0,1-1.169,1.83,8.18,8.18,0,0,0-1.588,3.79,15.336,15.336,0,0,0-.016,2.637c-.018.467.264,1.655-1.727,1.8-.187.014-2.578.18-4.281.345-2.763.195-4.271.985-5.4,2.27a6.973,6.973,0,0,0-1.459,6.346,5.97,5.97,0,0,0,4.765,4.338s4.749.976,6.709-2.983a4.257,4.257,0,0,0-.548-4.725,3.36,3.36,0,0,0-.267-.268.085.085,0,0,0-.115,0,.075.075,0,0,0-.018.093s.123.273.2.483" transform="translate(1078.047 33.407)" fill="#fff"/></g></svg>