<svg width="24" height="24" viewBox="0 0 24 24" fill="none" xmlns="http://www.w3.org/2000/svg">
<path d="M11.3125 16.125V12.6875H7.875C7.49687 12.6875 7.1875 12.3781 7.1875 12C7.1875 11.6219 7.49687 11.3125 7.875 11.3125H11.3125V7.875C11.3125 7.49687 11.6219 7.1875 12 7.1875C12.3781 7.1875 12.6875 7.49687 12.6875 7.875V11.3125H16.125C16.5031 11.3125 16.8125 11.6219 16.8125 12C16.8125 12.3781 16.5031 12.6875 16.125 12.6875H12.6875V16.125C12.6875 16.5031 12.3781 16.8125 12 16.8125C11.6219 16.8125 11.3125 16.5031 11.3125 16.125ZM23 12C23 18.0758 18.0758 23 12 23C5.92422 23 1 18.0758 1 12C1 5.92422 5.92422 1 12 1C18.0758 1 23 5.92422 23 12ZM12 2.375C6.68477 2.375 2.375 6.68477 2.375 12C2.375 17.3152 6.68477 21.625 12 21.625C17.3152 21.625 21.625 17.3152 21.625 12C21.625 6.68477 17.3152 2.375 12 2.375Z" fill="#C42929"/>
</svg>
