<svg width="24" height="24" viewBox="0 0 24 24" fill="none" xmlns="http://www.w3.org/2000/svg">
<path d="M16.5 12L11.3438 17.1562L9 14.8125" stroke="currentColor" stroke-linecap="round" stroke-linejoin="round"/>
<path d="M12.25 0.9C10.635 0.9 9.30204 2.09615 9.0852 3.65H8.8125C7.89582 3.65 7.11193 4.22201 6.79664 5.025H6.75C5.17797 5.025 3.9 6.30297 3.9 7.875V20.25C3.9 21.822 5.17797 23.1 6.75 23.1H17.75C19.322 23.1 20.6 21.822 20.6 20.25V7.875C20.6 6.30297 19.322 5.025 17.75 5.025H17.7034C17.3881 4.22201 16.6042 3.65 15.6875 3.65H15.4148C15.198 2.09615 13.865 0.9 12.25 0.9ZM4.7875 7.875C4.7875 6.82509 5.61298 5.96711 6.65 5.91501V6.5C6.65 7.31578 7.30922 7.975 8.125 7.975H16.375C17.1908 7.975 17.85 7.31578 17.85 6.5V5.91501C18.887 5.96712 19.7125 6.82509 19.7125 7.875V20.25C19.7125 21.3334 18.8334 22.2125 17.75 22.2125H6.75C5.66656 22.2125 4.7875 21.3334 4.7875 20.25V7.875ZM9.94375 4.09375C9.94375 2.82124 10.9775 1.7875 12.25 1.7875C13.5225 1.7875 14.5562 2.82124 14.5562 4.09375C14.5562 4.33804 14.7557 4.5375 15 4.5375H15.6875C16.3928 4.5375 16.9625 5.10718 16.9625 5.8125V6.5C16.9625 6.8229 16.6979 7.0875 16.375 7.0875H8.125C7.8021 7.0875 7.5375 6.8229 7.5375 6.5V5.8125C7.5375 5.10718 8.10718 4.5375 8.8125 4.5375H9.5C9.74429 4.5375 9.94375 4.33804 9.94375 4.09375ZM11.6932 3.88065C11.5455 4.02834 11.4625 4.22864 11.4625 4.4375C11.4625 4.64636 11.5455 4.84666 11.6932 4.99435C11.8408 5.14203 12.0411 5.225 12.25 5.225C12.4589 5.225 12.6592 5.14203 12.8068 4.99435C12.9545 4.84666 13.0375 4.64636 13.0375 4.4375C13.0375 4.22864 12.9545 4.02834 12.8068 3.88065C12.6592 3.73297 12.4589 3.65 12.25 3.65C12.0411 3.65 11.8408 3.73297 11.6932 3.88065Z" fill="currentColor" stroke="currentColor" stroke-width="0.2"/>
</svg>
