<svg width="24" height="24" viewBox="0 0 24 24" fill="none" xmlns="http://www.w3.org/2000/svg">
<path d="M20.7644 9.25128C20.7375 9.25128 20.7053 9.25128 20.6784 9.25665C18.534 9.37591 14.6404 9.81425 12.0017 11.2969C9.36387 9.81425 5.46944 9.37376 3.32497 9.25557C3.29918 9.25128 3.26695 9.25128 3.23988 9.25128C2.36447 9.25128 1 9.87012 1 11.4086V19.0196C1 20.21 1.91323 21.1555 3.07915 21.2156C4.55664 21.2962 8.25769 21.6078 10.6858 22.8272C10.8457 22.926 11.0992 22.9819 11.3141 22.9991L12.6893 23C12.9042 22.9839 13.0804 22.9275 13.3176 22.8254C15.7457 21.6058 19.4459 21.2942 20.9243 21.2139C22.0923 21.1555 23.0034 20.21 23.0034 19.0583V11.4086C23.0034 9.87012 21.6411 9.25128 20.7644 9.25128ZM11.3098 21.5981C11.3055 21.5938 11.3141 21.6024 11.3098 21.5981C8.74717 20.3088 5.09556 19.9461 3.14877 19.8443C2.71386 19.8189 2.37521 19.4751 2.37521 19.0583V11.4086C2.37521 11.1454 2.45042 10.9789 2.62769 10.8392C2.8213 10.6952 3.07915 10.6265 3.25105 10.6265C4.84114 10.7167 8.80433 11.082 11.3141 12.4916L11.3098 21.5981ZM21.6282 19.0583C21.6282 19.4719 21.2898 19.8159 20.8546 19.8426C18.91 19.9446 15.2592 20.3071 12.6936 21.5964C12.6882 21.6018 12.699 21.5964 12.6936 21.5964L12.6893 12.4916C15.1991 11.082 19.1614 10.7167 20.7472 10.6265H20.7633C20.773 10.6265 21.6282 10.648 21.6282 11.4086V19.0583ZM12.0017 9.25128C14.2794 9.25128 16.1273 7.40333 16.1273 5.12564C16.1273 2.84794 14.2794 1 12.0017 1C9.72401 1 7.87606 2.84794 7.87606 5.12564C7.87606 7.40333 9.72401 9.25128 12.0017 9.25128ZM12.0017 2.37521C13.5166 2.37521 14.7521 3.61076 14.7521 5.12564C14.7521 6.64052 13.5166 7.87606 12.0017 7.87606C10.4868 7.87606 9.25128 6.63837 9.25128 5.12564C9.25128 3.6129 10.489 2.37521 12.0017 2.37521Z" fill="currentColor"/>
</svg>
