<svg width="16" height="16" viewBox="0 0 16 16" fill="none" xmlns="http://www.w3.org/2000/svg">
<path d="M13.8429 6.1676C13.825 6.1676 13.8035 6.1676 13.7856 6.17118C12.356 6.25068 9.76026 6.54292 8.00113 7.53135C6.24258 6.54292 3.64629 6.24925 2.21665 6.17046C2.19946 6.1676 2.17797 6.1676 2.15992 6.1676C1.57631 6.1676 0.666666 6.58016 0.666666 7.60584V12.6798C0.666666 13.4734 1.27548 14.1037 2.05277 14.1438C3.03776 14.1976 5.50512 14.4053 7.12386 15.2182C7.23044 15.2841 7.39948 15.3214 7.54273 15.3328L8.45954 15.3334C8.60279 15.3227 8.72025 15.2851 8.8784 15.217C10.4971 14.4039 12.9639 14.1962 13.9495 14.1427C14.7282 14.1037 15.3356 13.4734 15.3356 12.7056V7.60584C15.3356 6.58016 14.4274 6.1676 13.8429 6.1676ZM7.53986 14.3988C7.537 14.396 7.54273 14.4017 7.53986 14.3988C5.83145 13.5393 3.39704 13.2975 2.09918 13.2296C1.80924 13.2127 1.58347 12.9835 1.58347 12.7056V7.60584C1.58347 7.43036 1.63361 7.31934 1.75179 7.22623C1.88086 7.13025 2.05277 7.08441 2.16737 7.08441C3.22743 7.14457 5.86955 7.3881 7.54273 8.32783L7.53986 14.3988ZM14.4188 12.7056C14.4188 12.9813 14.1932 13.2107 13.9031 13.2285C12.6067 13.2965 10.1728 13.5382 8.4624 14.3977C8.45882 14.4013 8.46598 14.3977 8.4624 14.3977L8.45954 8.32783C10.1327 7.3881 12.7743 7.14457 13.8315 7.08441H13.8422C13.8487 7.08441 14.4188 7.09873 14.4188 7.60584V12.7056ZM8.00113 6.1676C9.5196 6.1676 10.7516 4.93564 10.7516 3.41717C10.7516 1.89871 9.5196 0.666748 8.00113 0.666748C6.48267 0.666748 5.25071 1.89871 5.25071 3.41717C5.25071 4.93564 6.48267 6.1676 8.00113 6.1676ZM8.00113 1.58356C9.01105 1.58356 9.83475 2.40725 9.83475 3.41717C9.83475 4.4271 9.01105 5.25079 8.00113 5.25079C6.99121 5.25079 6.16752 4.42566 6.16752 3.41717C6.16752 2.40868 6.99264 1.58356 8.00113 1.58356Z" fill="white"/>
</svg>
