<svg width="24" height="24" viewBox="0 0 24 24" fill="none" xmlns="http://www.w3.org/2000/svg">
<path d="M19.15 4H5.4C4.79156 4 4.3 4.49259 4.3 5.1L4.3003 12.8C4.3003 14.6226 5.77773 16.1 7.6003 16.1H14.2003C16.0219 16.1 17.5 14.6219 17.5 12.8V11.7H19.15C21.2744 11.7 23 9.97438 23 7.85C23 5.72563 21.2744 4 19.15 4ZM16.4 12.8C16.4 14.0131 15.4131 15 14.2 15H7.6C6.38691 15 5.4 14.0131 5.4 12.8V5.1H16.4V12.8ZM19.15 10.6H17.5V5.1H19.15C20.6659 5.1 21.9 6.33337 21.9 7.85C21.9 9.36663 20.6659 10.6 19.15 10.6ZM20.25 17.2C19.946 17.2 19.7 17.446 19.7 17.75C19.7 18.0529 19.4529 18.3 19.15 18.3H2.65C2.34716 18.3 2.1 18.0525 2.1 17.75C2.1 17.4475 1.85388 17.2 1.55 17.2C1.24612 17.2 1 17.4475 1 17.75C1 18.6609 1.74009 19.4 2.65 19.4H19.15C20.0599 19.4 20.8 18.6599 20.8 17.75C20.8 17.4475 20.5525 17.2 20.25 17.2Z" fill="currentColor"/>
</svg>
