<svg width="24" height="24" viewBox="0 0 24 24" fill="none" xmlns="http://www.w3.org/2000/svg">
<path d="M7.1875 13C7.1875 10.3402 9.34023 8.1875 12 8.1875C14.6598 8.1875 16.8125 10.3402 16.8125 13C16.8125 15.6598 14.6598 17.8125 12 17.8125C9.34023 17.8125 7.1875 15.6598 7.1875 13ZM12 9.5625C10.1008 9.5625 8.5625 11.1008 8.5625 13C8.5625 14.8992 10.1008 16.4375 12 16.4375C13.8992 16.4375 15.4375 14.8992 15.4375 13C15.4375 11.1008 13.8992 9.5625 12 9.5625ZM16.5934 3.41023L17.0402 4.75H20.25C21.7668 4.75 23 5.9832 23 7.5V18.5C23 20.0168 21.7668 21.25 20.25 21.25H3.75C2.23105 21.25 1 20.0168 1 18.5V7.5C1 5.9832 2.23105 4.75 3.75 4.75H6.95977L7.40664 3.41023C7.68594 2.56805 8.47227 2 9.36172 2H14.6383C15.5277 2 16.3141 2.56805 16.5934 3.41023ZM3.75 6.125C2.99074 6.125 2.375 6.73945 2.375 7.5V18.5C2.375 19.2605 2.99074 19.875 3.75 19.875H20.25C21.0105 19.875 21.625 19.2605 21.625 18.5V7.5C21.625 6.73945 21.0105 6.125 20.25 6.125H16.052L15.2914 3.84508C15.1969 3.56449 14.9348 3.375 14.6383 3.375H9.36172C9.06523 3.375 8.80312 3.56449 8.70859 3.84508L7.94805 6.125H3.75Z" fill="currentColor"/>
</svg>
