<svg width="24" height="24" viewBox="0 0 24 24" fill="none" xmlns="http://www.w3.org/2000/svg">
<mask id="path-1-inside-1_870_39056" fill="white">
<path d="M16.3752 16.3957C16.9759 16.0482 17.1284 15.1049 17.6161 14.6172C18.1038 14.1295 19.047 13.9779 19.3946 13.3767C19.7375 12.7842 19.4017 11.8926 19.5825 11.2158C19.7568 10.5605 20.4615 9.95898 20.4615 9.25C20.4615 8.54102 19.7194 7.93859 19.5446 7.28504C19.3638 6.60828 19.6998 5.71668 19.357 5.12414C19.0096 4.52344 18.0667 4.37133 17.579 3.88363C17.0913 3.39594 16.9392 2.45277 16.3384 2.10516C15.7472 1.763 14.8513 2.0972 14.1775 1.91717C13.5607 1.74207 12.9592 1 12.2502 1C11.5412 1 10.9396 1.74207 10.2865 1.91695C9.60761 2.09742 8.71386 1.76227 8.12433 2.1043C7.52362 2.45191 7.37151 3.39508 6.88382 3.88234C6.39655 4.37004 5.45296 4.52215 5.10534 5.12285C4.76245 5.71367 5.09847 6.60742 4.91757 7.28203C4.74226 7.93945 4.00022 8.54102 4.00022 9.25C4.00022 9.95898 4.74229 10.5614 4.91717 11.215C5.09794 11.8917 4.76184 12.7833 5.10456 13.3759C5.45253 13.9766 6.39526 14.127 6.88253 14.6168C7.37023 15.1045 7.52233 16.0477 8.12347 16.3957C8.71386 16.7373 9.61062 16.403 10.2839 16.5834C10.9396 16.7566 11.5412 17.5 12.2502 17.5C12.9592 17.5 13.5616 16.7579 14.2156 16.583C14.8928 16.4043 15.7822 16.7395 16.3752 16.3957ZM12.2115 16.1035C11.8665 15.9316 11.3178 15.4444 10.601 15.2532C9.88304 15.0608 9.18136 15.1973 8.7839 15.1794C8.57107 14.8426 8.33745 14.1632 7.81667 13.6428C7.29632 13.122 6.61999 12.8909 6.27968 12.6752C6.30288 12.2793 6.43651 11.5746 6.24573 10.8613C6.05388 10.1433 5.56812 9.59848 5.39538 9.25086C5.56708 8.90604 6.05409 8.3584 6.24616 7.63953C6.43669 6.92625 6.30331 6.22672 6.31908 5.82324C6.65656 5.60964 7.33443 5.37766 7.8565 4.85559C8.3744 4.33781 8.61073 3.65203 8.82558 3.31816C9.21659 3.30227 9.92558 3.4359 10.6389 3.24512C11.3582 3.05283 11.8991 2.56879 12.2493 2.39477C12.5942 2.5663 13.1418 3.05348 13.8602 3.24555C14.5795 3.43766 15.2786 3.30119 15.6769 3.31907C15.8849 3.64778 16.126 4.33786 16.6442 4.85563C17.1611 5.37297 17.8473 5.61231 18.1812 5.82329C18.1964 6.22173 18.0629 6.925 18.2539 7.64C18.4459 8.35801 18.9315 8.90243 19.1043 9.25004C18.9334 9.59379 18.446 10.1429 18.2535 10.8614C18.0642 11.5699 18.1959 12.2407 18.1806 12.6777C17.843 12.8912 17.1649 13.1237 16.6432 13.6453C16.1263 14.1622 15.8874 14.848 15.6764 15.1814C15.2813 15.1992 14.579 15.0622 13.8597 15.2546C13.1439 15.4461 12.5982 15.9316 12.2115 16.1035ZM15.9928 9.25C15.9928 7.15742 14.3002 5.46875 12.2502 5.46875C10.2001 5.46875 8.46894 7.15742 8.46894 9.25C8.46894 11.3374 10.1615 13.0312 12.2115 13.0312C14.2616 13.0312 15.9928 11.3383 15.9928 9.25ZM12.2502 11.6562C10.9225 11.6562 9.84394 10.5777 9.84394 9.25C9.84394 7.92313 10.9233 6.84375 12.2115 6.84375C13.4997 6.84375 14.6178 7.92227 14.6178 9.25C14.6178 10.5777 13.5779 11.6562 12.2502 11.6562ZM19.3572 16.9027C19.2176 16.5496 18.8167 16.3785 18.4652 16.5167C18.1127 16.6564 17.9397 17.056 18.0792 17.4092L19.1199 20.041L17.0797 19.759L16.021 21.5758L14.9502 18.9461C14.8072 18.5936 14.4036 18.4244 14.0547 18.5688C13.7029 18.7118 13.5339 19.1127 13.6774 19.4642L14.7473 22.0935C14.9658 22.6305 15.4557 22.9742 16.0916 23C16.6429 23 17.1392 22.6938 17.3858 22.2012L17.8335 21.3143L18.7578 21.4996C19.2786 21.6091 19.8187 21.4177 20.1616 21.0055C20.5033 20.5953 20.5926 20.0318 20.3959 19.5351L19.3572 16.9027ZM10.4455 18.5699C10.0958 18.4249 9.69226 18.5954 9.55003 18.9472L8.47925 21.5769L7.4205 19.7602L5.38206 20.0415L6.42062 17.4105C6.56026 17.0574 6.38704 16.6577 6.03458 16.5181C5.68198 16.3785 5.28323 16.5504 5.14358 16.9027L4.10288 19.5346C3.90617 20.0313 3.99546 20.5946 4.33719 21.005C4.68163 21.4185 5.21891 21.6065 5.7384 21.5L6.66567 21.314L7.11297 22.2C7.36073 22.692 7.85504 22.9984 8.46305 22.9984C9.03969 22.9755 9.53641 22.6284 9.7534 22.0939L10.8242 19.4642C10.9697 19.1113 10.7978 18.7117 10.4455 18.5699Z"/>
</mask>
<path d="M16.3752 16.3957C16.9759 16.0482 17.1284 15.1049 17.6161 14.6172C18.1038 14.1295 19.047 13.9779 19.3946 13.3767C19.7375 12.7842 19.4017 11.8926 19.5825 11.2158C19.7568 10.5605 20.4615 9.95898 20.4615 9.25C20.4615 8.54102 19.7194 7.93859 19.5446 7.28504C19.3638 6.60828 19.6998 5.71668 19.357 5.12414C19.0096 4.52344 18.0667 4.37133 17.579 3.88363C17.0913 3.39594 16.9392 2.45277 16.3384 2.10516C15.7472 1.763 14.8513 2.0972 14.1775 1.91717C13.5607 1.74207 12.9592 1 12.2502 1C11.5412 1 10.9396 1.74207 10.2865 1.91695C9.60761 2.09742 8.71386 1.76227 8.12433 2.1043C7.52362 2.45191 7.37151 3.39508 6.88382 3.88234C6.39655 4.37004 5.45296 4.52215 5.10534 5.12285C4.76245 5.71367 5.09847 6.60742 4.91757 7.28203C4.74226 7.93945 4.00022 8.54102 4.00022 9.25C4.00022 9.95898 4.74229 10.5614 4.91717 11.215C5.09794 11.8917 4.76184 12.7833 5.10456 13.3759C5.45253 13.9766 6.39526 14.127 6.88253 14.6168C7.37023 15.1045 7.52233 16.0477 8.12347 16.3957C8.71386 16.7373 9.61062 16.403 10.2839 16.5834C10.9396 16.7566 11.5412 17.5 12.2502 17.5C12.9592 17.5 13.5616 16.7579 14.2156 16.583C14.8928 16.4043 15.7822 16.7395 16.3752 16.3957ZM12.2115 16.1035C11.8665 15.9316 11.3178 15.4444 10.601 15.2532C9.88304 15.0608 9.18136 15.1973 8.7839 15.1794C8.57107 14.8426 8.33745 14.1632 7.81667 13.6428C7.29632 13.122 6.61999 12.8909 6.27968 12.6752C6.30288 12.2793 6.43651 11.5746 6.24573 10.8613C6.05388 10.1433 5.56812 9.59848 5.39538 9.25086C5.56708 8.90604 6.05409 8.3584 6.24616 7.63953C6.43669 6.92625 6.30331 6.22672 6.31908 5.82324C6.65656 5.60964 7.33443 5.37766 7.8565 4.85559C8.3744 4.33781 8.61073 3.65203 8.82558 3.31816C9.21659 3.30227 9.92558 3.4359 10.6389 3.24512C11.3582 3.05283 11.8991 2.56879 12.2493 2.39477C12.5942 2.5663 13.1418 3.05348 13.8602 3.24555C14.5795 3.43766 15.2786 3.30119 15.6769 3.31907C15.8849 3.64778 16.126 4.33786 16.6442 4.85563C17.1611 5.37297 17.8473 5.61231 18.1812 5.82329C18.1964 6.22173 18.0629 6.925 18.2539 7.64C18.4459 8.35801 18.9315 8.90243 19.1043 9.25004C18.9334 9.59379 18.446 10.1429 18.2535 10.8614C18.0642 11.5699 18.1959 12.2407 18.1806 12.6777C17.843 12.8912 17.1649 13.1237 16.6432 13.6453C16.1263 14.1622 15.8874 14.848 15.6764 15.1814C15.2813 15.1992 14.579 15.0622 13.8597 15.2546C13.1439 15.4461 12.5982 15.9316 12.2115 16.1035ZM15.9928 9.25C15.9928 7.15742 14.3002 5.46875 12.2502 5.46875C10.2001 5.46875 8.46894 7.15742 8.46894 9.25C8.46894 11.3374 10.1615 13.0312 12.2115 13.0312C14.2616 13.0312 15.9928 11.3383 15.9928 9.25ZM12.2502 11.6562C10.9225 11.6562 9.84394 10.5777 9.84394 9.25C9.84394 7.92313 10.9233 6.84375 12.2115 6.84375C13.4997 6.84375 14.6178 7.92227 14.6178 9.25C14.6178 10.5777 13.5779 11.6562 12.2502 11.6562ZM19.3572 16.9027C19.2176 16.5496 18.8167 16.3785 18.4652 16.5167C18.1127 16.6564 17.9397 17.056 18.0792 17.4092L19.1199 20.041L17.0797 19.759L16.021 21.5758L14.9502 18.9461C14.8072 18.5936 14.4036 18.4244 14.0547 18.5688C13.7029 18.7118 13.5339 19.1127 13.6774 19.4642L14.7473 22.0935C14.9658 22.6305 15.4557 22.9742 16.0916 23C16.6429 23 17.1392 22.6938 17.3858 22.2012L17.8335 21.3143L18.7578 21.4996C19.2786 21.6091 19.8187 21.4177 20.1616 21.0055C20.5033 20.5953 20.5926 20.0318 20.3959 19.5351L19.3572 16.9027ZM10.4455 18.5699C10.0958 18.4249 9.69226 18.5954 9.55003 18.9472L8.47925 21.5769L7.4205 19.7602L5.38206 20.0415L6.42062 17.4105C6.56026 17.0574 6.38704 16.6577 6.03458 16.5181C5.68198 16.3785 5.28323 16.5504 5.14358 16.9027L4.10288 19.5346C3.90617 20.0313 3.99546 20.5946 4.33719 21.005C4.68163 21.4185 5.21891 21.6065 5.7384 21.5L6.66567 21.314L7.11297 22.2C7.36073 22.692 7.85504 22.9984 8.46305 22.9984C9.03969 22.9755 9.53641 22.6284 9.7534 22.0939L10.8242 19.4642C10.9697 19.1113 10.7978 18.7117 10.4455 18.5699Z" fill="white" stroke="white" stroke-width="2" mask="url(#path-1-inside-1_870_39056)"/>
</svg>
