<svg width="16" height="11" viewBox="0 0 16 11" fill="none" xmlns="http://www.w3.org/2000/svg">
<path d="M5.33333 2.81671V4.00004C5.33333 5.474 6.52604 6.66671 8 6.66671C9.47396 6.66671 10.6667 5.474 10.6667 4.00004V2.81671C11.0729 2.58129 11.3333 2.14525 11.3333 1.66671C11.3333 0.931291 10.735 0.333374 10 0.333374C9.60229 0.333374 9.24479 0.508499 9 0.785874C8.75625 0.508499 8.39792 0.333374 8 0.333374C7.60208 0.333374 7.24583 0.508499 7 0.785874C6.75625 0.508499 6.39792 0.333374 6 0.333374C5.265 0.333374 4.66667 0.931291 4.66667 1.66671C4.66667 2.14525 4.92646 2.58129 5.33333 2.81671ZM8 6.00004C6.89708 6.00004 6 5.10275 6 4.00004H10C10 5.10212 9.10208 6.00004 8 6.00004ZM6 1.00004C6.36792 1.00004 6.66667 1.29921 6.66667 1.66671C6.66667 1.85096 6.81575 2.00004 7 2.00004C7.18425 2.00004 7.33333 1.85087 7.33333 1.66671C7.33333 1.29921 7.63208 1.00004 8 1.00004C8.36792 1.00004 8.66667 1.29921 8.66667 1.66671C8.66667 1.85096 8.81575 2.00004 9 2.00004C9.18425 2.00004 9.33333 1.85087 9.33333 1.66671C9.33333 1.29921 9.63208 1.00004 10 1.00004C10.3679 1.00004 10.6667 1.29921 10.6667 1.66671C10.6667 1.94567 10.4876 2.19692 10.2221 2.29129C10.0896 2.33858 10 2.46462 10 2.60629V3.33337H6V2.60629C6 2.46533 5.91146 2.33942 5.77792 2.29212C5.5125 2.19692 5.33333 1.94567 5.33333 1.66671C5.33333 1.29921 5.63125 1.00004 6 1.00004ZM11 7.86046V7.00004C11 6.88644 10.9421 6.78067 10.8464 6.71921C10.75 6.65837 10.6312 6.65004 10.5271 6.69796L8.14583 7.79754L5.46042 6.69171C5.35625 6.64842 5.24042 6.6611 5.14792 6.72296C5.05542 6.78481 5 6.88962 5 7.00004V7.86067C4.00708 8.26462 3.33333 9.24796 3.33333 10.3334C3.33333 10.7009 3.63208 11 4 11H12C12.3679 11 12.6667 10.7009 12.6667 10.3334C12.6667 9.24796 11.9938 8.26462 11 7.86046ZM6 9.00004V10.3334H4C4 9.45483 4.58729 8.66629 5.42833 8.41608C5.56875 8.35629 5.66667 8.24379 5.66667 8.09587V7.49796L7.31896 8.17837L6.19333 8.69754C6.075 8.75212 6 8.87087 6 9.00004ZM6.66667 10.3334V9.21317L10.3333 7.52087V8.09671C10.3333 8.24417 10.4303 8.374 10.5717 8.41608C11.4125 8.64796 12 9.45421 12 10.3334H6.66667ZM8.33333 9.00004C8.14925 9.00004 8 9.14925 8 9.33337C8 9.51746 8.14925 9.66671 8.33333 9.66671C8.51742 9.66671 8.66667 9.51746 8.66667 9.33337C8.66667 9.15004 8.51667 9.00004 8.33333 9.00004ZM9.66667 9.00004C9.48258 9.00004 9.33333 9.14925 9.33333 9.33337C9.33333 9.51746 9.48258 9.66671 9.66667 9.66671C9.85075 9.66671 10 9.51746 10 9.33337C10 9.15004 9.85 9.00004 9.66667 9.00004Z" fill="white"/>
<path d="M12.4001 3.80005H14.0276C15.1151 3.80005 16.0001 4.72755 16.0001 5.86755V6.20005C16.0001 6.42005 15.8212 6.60005 15.6001 6.60005C15.379 6.60005 15.2001 6.42115 15.2001 6.20005V5.86755C15.2001 5.16755 14.6526 4.60005 14.0271 4.60005H12.4001C12.2401 4.60005 12.0826 4.63755 11.9313 4.7086C11.733 4.8035 11.4934 4.718 11.3985 4.51875C11.3036 4.3195 11.3888 4.08092 11.5884 3.986C11.8481 3.86255 12.1211 3.80005 12.4001 3.80005Z" fill="white"/>
<path d="M4.60275 4.5177C4.50825 4.71692 4.26845 4.80247 4.07 4.70755C3.9175 4.63755 3.76 4.60005 3.6 4.60005H1.973C1.32625 4.60005 0.8 5.16755 0.8 5.86755V6.20005C0.8 6.42005 0.6211 6.60005 0.4 6.60005C0.1789 6.60005 0 6.42115 0 6.20005V5.86755C0 4.72755 0.88525 3.80005 1.973 3.80005H3.6C3.88 3.80005 4.1525 3.86255 4.4129 3.98495C4.61252 4.0797 4.69768 4.31847 4.60275 4.5177Z" fill="white"/>
</svg>
