<svg width="24" height="24" viewBox="0 0 24 24" fill="none" xmlns="http://www.w3.org/2000/svg">
<path d="M18.7807 18.7806C18.4876 19.0737 18.0133 19.0737 17.7199 18.7806L11.501 12.5603L5.28067 18.7806C4.98756 19.0737 4.51333 19.0737 4.21989 18.7806C3.92678 18.4875 3.92678 18.0133 4.21989 17.7198L10.4416 11.5009L4.22083 5.28061C3.92772 4.9875 3.92772 4.51327 4.22083 4.21983C4.51394 3.92672 4.98817 3.92672 5.28161 4.21983L11.501 10.4416L17.7213 4.22124C18.0144 3.92813 18.4886 3.92813 18.7821 4.22124C19.0752 4.51435 19.0752 4.98858 18.7821 5.28202L12.5604 11.5009L18.7807 17.7212C19.076 18.0119 19.076 18.49 18.7807 18.7806Z" fill="currentColor"/>
</svg>
