<svg width="40" height="41" viewBox="0 0 40 41" fill="none" xmlns="http://www.w3.org/2000/svg">
<circle cx="20" cy="20.5" r="20" fill="white"/>
<circle cx="20" cy="20.5" r="19.5" stroke="black" stroke-opacity="0.14"/>
<path d="M20.5334 11.5C16.1422 11.5 12.5684 15.0565 12.5669 19.4277C12.5649 20.819 12.9317 22.1861 13.6302 23.3913L12.5 27.5L16.7233 26.3999C17.8913 27.0331 19.2002 27.3649 20.5303 27.3648H20.5334C24.9241 27.3648 28.4984 23.8083 28.5 19.4366C28.5009 18.3948 28.2955 17.3631 27.8956 16.4003C27.4956 15.4375 26.909 14.5626 26.1692 13.8255C25.4293 13.0885 24.5508 12.5038 23.5838 12.1047C22.6168 11.7057 21.5803 11.5002 20.5334 11.5ZM20.5334 26.0232C19.348 26.0232 18.1844 25.706 17.1645 25.1049L16.9223 24.9619L14.4129 25.6162L15.082 23.1844L14.9241 22.935C14.3782 22.07 14.0418 21.0906 13.9414 20.074C13.8411 19.0574 13.9795 18.0316 14.3459 17.0774C14.7122 16.1232 15.2963 15.2668 16.0522 14.5758C16.8081 13.8848 17.7151 13.3781 18.7015 13.0957C19.6879 12.8133 20.7267 12.763 21.736 12.9486C22.7453 13.1343 23.6975 13.5508 24.5173 14.1655C25.3371 14.7801 26.0021 15.5759 26.4599 16.4902C26.9177 17.4044 27.1556 18.412 27.155 19.4335C27.1519 23.067 24.183 26.0232 20.5334 26.0232ZM24.1656 21.0878C23.9666 20.9888 22.9875 20.5116 22.8054 20.4435C22.6232 20.3754 22.4895 20.3445 22.3574 20.5425C22.2253 20.7405 21.8431 21.1874 21.7257 21.3194C21.6083 21.4514 21.4931 21.4682 21.2941 21.3692C21.0951 21.2702 20.4518 21.0606 19.6933 20.3859C19.1016 19.862 18.7021 19.2119 18.5878 19.0133C18.4736 18.8148 18.5752 18.7079 18.6752 18.6089C18.7647 18.5204 18.8742 18.3779 18.9737 18.2621C19.0555 18.1619 19.1225 18.0506 19.1727 17.9315C19.199 17.8768 19.2112 17.8164 19.2083 17.7558C19.2053 17.6951 19.1873 17.6362 19.1558 17.5842C19.1063 17.4852 18.7084 16.5103 18.542 16.1137C18.381 15.7271 18.2167 15.7795 18.0946 15.7737C17.9725 15.768 17.8456 15.7664 17.713 15.7664C17.6121 15.7691 17.5128 15.7925 17.4214 15.8351C17.33 15.8778 17.2484 15.9387 17.1818 16.0142C16.9997 16.2127 16.4854 16.6921 16.4854 17.667C16.4854 18.6419 17.1987 19.5843 17.2982 19.7164C17.3976 19.8484 18.7021 21.8496 20.6987 22.7076C21.0693 22.8674 21.4481 23.0073 21.8336 23.1267C22.2397 23.2498 22.6691 23.2768 23.0875 23.2053C23.4697 23.1487 24.2651 22.726 24.4309 22.2624C24.5967 21.7987 24.5967 21.4032 24.5467 21.3194C24.4967 21.2356 24.3646 21.1874 24.1656 21.0878Z" fill="#269324"/>
</svg>
