<svg width="40" height="41" viewBox="0 0 40 41" fill="none" xmlns="http://www.w3.org/2000/svg">
<circle cx="20" cy="20.5" r="20" fill="white"/>
<circle cx="20" cy="20.5" r="19.5" stroke="black" stroke-opacity="0.14"/>
<path d="M26.5485 16.9946C26.5485 17.146 26.5485 17.3024 26.5485 17.4538C26.5485 22.1212 22.9963 27.5 16.4399 27.5C14.5108 27.5051 12.6215 26.9548 11 25.9156C11.2846 25.9487 11.5711 25.9639 11.8576 25.961C13.4566 25.962 15.0096 25.4289 16.2674 24.4473C15.5251 24.4351 14.8054 24.192 14.2092 23.7522C13.613 23.3124 13.1704 22.6979 12.9436 21.995C13.165 22.0312 13.389 22.0498 13.6134 22.0505C13.9303 22.0513 14.246 22.0106 14.5522 21.9294C13.7471 21.7685 13.023 21.3351 12.5031 20.7031C11.9831 20.0711 11.6994 19.2795 11.7003 18.463V18.4226C12.1941 18.6947 12.7449 18.8485 13.3089 18.8717C12.8217 18.549 12.4222 18.1117 12.146 17.5984C11.8697 17.0852 11.7253 16.5121 11.7257 15.93C11.7224 15.304 11.8889 14.6887 12.2077 14.1488C13.1007 15.2407 14.2144 16.1337 15.4768 16.77C16.7391 17.4063 18.1219 17.7716 19.5354 17.8423C19.4786 17.5769 19.4497 17.3064 19.4492 17.035C19.4486 16.3263 19.6624 15.6338 20.0629 15.0475C20.4634 14.4612 21.032 14.0083 21.6948 13.7476C22.3576 13.4869 23.0839 13.4305 23.7794 13.5858C24.4749 13.741 25.1073 14.1007 25.5944 14.6181C26.3888 14.4635 27.1509 14.1751 27.8475 13.7653C27.582 14.5791 27.0284 15.2694 26.2896 15.708C26.9897 15.6274 27.6738 15.4438 28.3195 15.163C27.8316 15.8658 27.2297 16.4831 26.5383 16.9896L26.5485 16.9946Z" fill="#29A8C4"/>
</svg>
