<svg width="41" height="40" viewBox="0 0 41 40" fill="none" xmlns="http://www.w3.org/2000/svg">
<g clip-path="url(#clip0_870_37918)">
<circle cx="20.5" cy="20" r="20" fill="white"/>
<circle cx="20.5" cy="20" r="19.5" stroke="black" stroke-opacity="0.14"/>
<path d="M30.0835 15.1906C29.8529 14.3341 29.1776 13.6588 28.3212 13.4282C26.7565 13 20.4976 13 20.4976 13C20.4976 13 14.2388 13 12.6741 13.4118C11.8341 13.6424 11.1424 14.3341 10.9118 15.1906C10.5 16.7553 10.5 20 10.5 20C10.5 20 10.5 23.2612 10.9118 24.8094C11.1424 25.6659 11.8176 26.3412 12.6741 26.5718C14.2553 27 20.4976 27 20.4976 27C20.4976 27 26.7565 27 28.3212 26.5882C29.1776 26.3576 29.8529 25.6824 30.0835 24.8259C30.4953 23.2612 30.4953 20.0165 30.4953 20.0165C30.4953 20.0165 30.5118 16.7553 30.0835 15.1906Z" fill="#FF0000"/>
<path d="M18.5049 17.0039V22.9992L23.7096 20.0016L18.5049 17.0039Z" fill="white"/>
</g>
<defs>
<clipPath id="clip0_870_37918">
<rect width="40" height="40" fill="white" transform="translate(0.5)"/>
</clipPath>
</defs>
</svg>
