<svg width="40" height="41" viewBox="0 0 40 41" fill="none" xmlns="http://www.w3.org/2000/svg">
<circle cx="20" cy="20.5" r="20" fill="white"/>
<circle cx="20" cy="20.5" r="19.5" stroke="black" stroke-opacity="0.14"/>
<path d="M15.6393 16.6179C17.0958 15.1382 19.5224 15.1382 21.0026 16.6179C22.4117 18.027 22.4651 20.2815 21.1866 21.7855L21.0293 21.9665C20.8573 22.1652 20.5577 22.186 20.3589 22.0139C20.1631 21.8448 20.1394 21.5452 20.3114 21.3465L20.4716 21.1625C21.4476 20.0353 21.3883 18.3444 20.3322 17.2913C19.2228 16.1789 17.4221 16.1789 16.3126 17.2913L12.6164 20.9846C11.5043 22.097 11.5043 23.9006 12.6164 25.013C13.7289 26.1254 15.5325 26.1254 16.6449 25.013L17.3153 24.3426C17.4992 24.1557 17.8018 24.1557 17.9857 24.3426C18.1726 24.5265 18.1726 24.8261 17.9857 25.013L17.3153 25.6834C15.8321 27.1667 13.4281 27.1667 11.9451 25.6834C10.4623 24.2002 10.4623 21.7707 11.9451 20.3141L15.6393 16.6179ZM24.334 24.0103C22.8774 25.4906 20.4776 25.4906 18.9973 24.0103C17.5882 22.6013 17.5081 20.3468 18.7867 18.8428L18.9706 18.6618C19.1427 18.4631 19.4423 18.4423 19.641 18.6143C19.8368 18.7834 19.8605 19.083 19.6885 19.2818L19.5283 19.4657C18.5523 20.593 18.6117 22.2839 19.6677 23.337C20.7772 24.4494 22.5778 24.4494 23.6873 23.337L27.3835 19.6437C28.4959 18.5313 28.4959 16.7277 27.3835 15.6155C26.2711 14.5034 24.4675 14.5034 23.355 15.6155L22.6846 16.2857C22.5007 16.4726 22.1981 16.4726 22.0142 16.2857C21.8273 16.0751 21.8273 15.8021 22.0142 15.6155L22.6846 14.9442C24.1678 13.4613 26.5707 13.4613 28.0539 14.9442C29.5371 16.4014 29.5371 18.8309 28.0539 20.2874L24.334 24.0103Z" fill="#C42929"/>
</svg>
