<svg width="40" height="41" viewBox="0 0 40 41" fill="none" xmlns="http://www.w3.org/2000/svg">
<circle cx="20" cy="20.5" r="20" fill="white"/>
<circle cx="20" cy="20.5" r="19.5" stroke="black" stroke-opacity="0.14"/>
<path d="M13.8125 15.5312C13.2421 15.5312 12.7812 15.9921 12.7812 16.5625V17.8483L19.0848 22.4696C19.6294 22.8692 20.3706 22.8692 20.9152 22.4696L27.2188 17.8483V16.5625C27.2188 15.9921 26.7579 15.5312 26.1875 15.5312H13.8125ZM12.7812 19.1277V24.8125C12.7812 25.3829 13.2421 25.8438 13.8125 25.8438H26.1875C26.7579 25.8438 27.2188 25.3829 27.2188 24.8125V19.1277L21.5243 23.3011C20.6155 23.9649 19.3812 23.9649 18.4757 23.3011L12.7812 19.1277ZM11.75 16.5625C11.75 15.4249 12.6749 14.5 13.8125 14.5H26.1875C27.3251 14.5 28.25 15.4249 28.25 16.5625V24.8125C28.25 25.9501 27.3251 26.875 26.1875 26.875H13.8125C12.6749 26.875 11.75 25.9501 11.75 24.8125V16.5625Z" fill="#C42929"/>
</svg>
