<svg width="25" height="24" viewBox="0 0 25 24" fill="none" xmlns="http://www.w3.org/2000/svg">
<path d="M21.6665 11.5C21.6699 12.8199 21.3616 14.1219 20.7665 15.3C20.0609 16.7118 18.9763 17.8992 17.634 18.7293C16.2917 19.5594 14.7447 19.9994 13.1665 20C11.8466 20.0035 10.5446 19.6951 9.3665 19.1L3.6665 21L5.5665 15.3C4.97144 14.1219 4.66306 12.8199 4.6665 11.5C4.66711 9.92179 5.10712 8.37488 5.93722 7.03258C6.76733 5.69028 7.95476 4.6056 9.3665 3.90003C10.5446 3.30496 11.8466 2.99659 13.1665 3.00003H13.6665C15.7509 3.11502 17.7195 3.99479 19.1956 5.47089C20.6717 6.94699 21.5515 8.91568 21.6665 11V11.5Z" stroke="#C42929" stroke-width="1.5" stroke-linecap="round" stroke-linejoin="round"/>
</svg>
