<svg width="16" height="16" viewBox="0 0 16 16" fill="none" xmlns="http://www.w3.org/2000/svg">
<g clip-path="url(#clip0_3942_30182)">
<path d="M14.8621 2.35986C15.4902 2.98705 15.4902 4.00311 14.8621 4.63116L5.89451 13.6017C5.56758 13.9257 5.16609 14.1637 4.72445 14.2957L1.25498 15.3166C1.09381 15.3625 0.919649 15.3195 0.800922 15.199C0.682183 15.0814 0.637773 14.9065 0.685166 14.7459L1.70551 11.2759C1.83542 10.8342 2.07431 10.4327 2.39981 10.1058L11.3692 1.13732C11.9972 0.510217 13.0124 0.510217 13.6405 1.13732L14.8621 2.35986ZM10.4457 3.35786L12.6425 5.52879L14.214 3.98304C14.4836 3.71347 14.4836 3.27756 14.214 3.00885L12.9923 1.7863C12.7228 1.51759 12.2868 1.51759 12.0173 1.7863L10.4457 3.35786ZM9.79759 4.00598L3.04879 10.7568C2.8317 10.9719 2.67254 11.2414 2.58593 11.5368L1.80302 14.1982L4.46348 13.4152C4.75886 13.3292 5.02844 13.1686 5.24352 12.9507L11.9685 6.20272L9.79759 4.00598Z" fill="#C42929"/>
</g>
<defs>
<clipPath id="clip0_3942_30182">
<rect width="16" height="16" fill="white"/>
</clipPath>
</defs>
</svg>
