<svg width="24" height="24" viewBox="0 0 24 24" fill="none" xmlns="http://www.w3.org/2000/svg">
<path d="M23.2891 11.5312C23.5469 11.7578 23.5703 12.1211 23.3086 12.4141C23.1172 12.6719 22.7188 12.6953 22.4609 12.4336L21 11.1445V18.875C21 20.6016 19.6016 22 17.875 22H6.62501C4.89923 22 3.50001 20.6016 3.50001 18.875V11.1445L2.03868 12.4336C1.7797 12.6953 1.38473 12.6719 1.15638 12.4141C0.927977 12.1211 0.952665 11.7578 1.21149 11.5312L11.8359 2.15633C12.0742 1.94789 12.4258 1.94789 12.6641 2.15633L23.2891 11.5312ZM6.62501 20.75H9.12501V14.5C9.12501 13.8086 9.6836 13.25 10.375 13.25H14.125C14.8164 13.25 15.375 13.8086 15.375 14.5V20.75H17.875C18.9102 20.75 19.75 19.9102 19.75 18.875V10.0742L12.25 3.45859L4.75001 10.0742V18.875C4.75001 19.9102 5.58985 20.75 6.62501 20.75ZM10.375 20.75H14.125V14.5H10.375V20.75Z" fill="currentColor"/>
</svg>
