<svg width="24" height="24" viewBox="0 0 24 24" fill="none" xmlns="http://www.w3.org/2000/svg">
<path d="M21.9141 8.91551C22.0286 8.64119 22.0286 8.33562 21.9141 8.06131C21.4453 7.94211 21.0358 8.29638 20.8897 8.48841C20.4279 9.59957 19.4278 11.2663 17.9312 12.6553C16.4347 14.0442 14.445 15.1554 12.0004 15.1554C9.55589 15.1554 7.56622 14.0442 6.06962 12.6553C4.57407 11.2663 3.57403 9.59957 3.11116 8.48841C2.80009 7.9109 2.29775 7.96305 2.08546 8.06131C1.97151 8.33562 1.97151 8.64119 2.08546 8.91551C2.60211 10.1551 3.68827 11.9295 5.31334 13.4678C6.94813 14.9887 9.19476 16.2665 12.0004 16.2665C14.8061 16.2665 17.0527 14.9887 18.6882 13.4678C20.3133 11.9295 21.4001 10.1551 21.9141 8.91551Z" fill="currentColor"/>
<rect x="4.49365" y="11.2143" width="1" height="4" rx="0.5" transform="rotate(45 4.49365 11.2143)" fill="currentColor"/>
<rect x="6.88281" y="14" width="1" height="4" rx="0.5" transform="rotate(28.0818 6.88281 14)" fill="currentColor"/>
<rect x="10.8826" y="16" width="1" height="4" rx="0.5" fill="currentColor"/>
<rect width="1" height="4" rx="0.5" transform="matrix(-0.882276 0.470732 0.470732 0.882276 16.8823 14)" fill="currentColor"/>
<rect width="1" height="4" rx="0.5" transform="matrix(-0.707107 0.707107 0.707107 0.707107 19.707 11.2143)" fill="currentColor"/>
</svg>
