<svg width="20" height="17" viewBox="0 0 20 17" fill="none" xmlns="http://www.w3.org/2000/svg">
<path d="M14.4451 8.27811C14.4451 10.7331 12.4554 12.7228 10.0004 12.7228C7.54547 12.7228 5.5558 10.7331 5.5558 8.27811C5.5558 5.82315 7.54547 3.83348 10.0004 3.83348C12.4554 3.83348 14.4451 5.82315 14.4451 8.27811ZM10.0004 4.94464C8.12883 4.94464 6.66696 6.40651 6.66696 8.27811C6.66696 10.1185 8.12883 11.6116 10.0004 11.6116C11.8408 11.6116 13.3339 10.1185 13.3339 8.27811C13.3339 6.40651 11.8408 4.94464 10.0004 4.94464ZM16.6882 3.29873C18.3133 4.80574 19.4002 6.58012 19.9141 7.85101C20.0286 8.12533 20.0286 8.4309 19.9141 8.70522C19.4002 9.94485 18.3133 11.7192 16.6882 13.2575C15.0527 14.7784 12.8061 16.0562 10.0004 16.0562C7.19476 16.0562 4.94813 14.7784 3.31334 13.2575C1.68827 11.7192 0.602114 9.94485 0.0854594 8.70522C-0.0284865 8.4309 -0.0284865 8.12533 0.0854594 7.85101C0.602114 6.58012 1.68827 4.80574 3.31334 3.29873C4.94813 1.77922 7.19476 0.5 10.0004 0.5C12.8061 0.5 15.0527 1.77922 16.6882 3.29873ZM1.11116 8.27811C1.57403 9.38927 2.57407 11.056 4.06962 12.445C5.56622 13.8339 7.55589 14.9451 10.0004 14.9451C12.445 14.9451 14.4347 13.8339 15.9312 12.445C17.4278 11.056 18.4279 9.38927 18.8897 8.27811C18.4279 7.1357 17.4278 5.46897 15.9312 4.11127C14.4347 2.72197 12.445 1.61116 10.0004 1.61116C7.55589 1.61116 5.56622 2.72197 4.06962 4.11127C2.57407 5.46897 1.57403 7.1357 1.11116 8.27811Z" fill="white"/>
</svg>
