<svg width="24" height="24" viewBox="0 0 24 24" fill="none" xmlns="http://www.w3.org/2000/svg">
<path d="M11.9969 14C13.7909 14 15.2188 12.545 15.2188 10.75C15.2188 8.955 13.7644 7.5 11.9969 7.5C10.2028 7.5 8.775 8.955 8.775 10.75C8.74688 12.5437 10.2031 14 11.9969 14ZM11.9969 8.5C13.2369 8.5 14.2456 9.50938 14.2456 10.75C14.2456 11.9906 13.2344 13 11.9969 13C10.7594 13 9.74687 11.9906 9.74687 10.75C9.74687 9.50938 10.7562 8.5 11.9969 8.5ZM13.5594 15H10.4406C7.9875 15 6 16.8656 6 19.1656C6 19.6281 6.39687 20 6.8875 20H17.1125C17.6031 20 18 19.6281 18 19.1656C18 16.8656 16.0125 15 13.5594 15ZM7.00625 19C7.10066 17.3309 8.60594 16 10.4156 16H13.5594C15.3962 16 16.9 17.3309 16.9688 19H7.00625ZM18 9C19.3806 9 20.5 7.88063 20.5 6.5C20.5 5.11937 19.3813 4 18 4C16.6194 4 15.5 5.11937 15.5 6.5C15.5 7.88063 16.6187 9 18 9ZM18 5C18.8272 5 19.5 5.67281 19.5 6.5C19.5 7.32719 18.8281 8 18 8C17.1719 8 16.5 7.32719 16.5 6.5C16.5 5.67281 17.1719 5 18 5ZM6 9C7.38062 9 8.5 7.88063 8.5 6.5C8.5 5.11937 7.38125 4 6 4C4.61937 4 3.5 5.11937 3.5 6.5C3.5 7.88063 4.61937 9 6 9ZM6 5C6.82719 5 7.5 5.67281 7.5 6.5C7.5 7.32719 6.82812 8 6 8C5.17188 8 4.5 7.32812 4.5 6.5C4.5 5.67188 5.17188 5 6 5ZM19.5344 10H17.5C17.1512 10 16.81 10.0781 16.4853 10.2324C16.2358 10.3511 16.1294 10.6493 16.248 10.8984C16.3666 11.1474 16.6661 11.2543 16.9139 11.1357C17.1031 11.0469 17.3 11 17.5 11H19.5338C20.3156 11 21 11.7094 21 12.5844V13C21 13.2764 21.2236 13.5 21.5 13.5C21.7764 13.5 22 13.275 22 13V12.5844C22 11.1594 20.8937 10 19.5344 10ZM7.0875 11.1344C7.33556 11.253 7.63531 11.1461 7.75344 10.8971C7.87209 10.648 7.76564 10.3496 7.51613 10.2311C7.19063 10.0781 6.85 10 6.5 10H4.46625C3.10656 10 2 11.1594 2 12.5844V13C2 13.2764 2.22363 13.5 2.5 13.5C2.77637 13.5 3 13.275 3 13V12.5844C3 11.7094 3.65781 11 4.46625 11H6.5C6.7 11 6.89687 11.0469 7.0875 11.1344Z" fill="#C42929"/>
</svg>
