<svg width="24" height="24" viewBox="0 0 24 24" fill="none" xmlns="http://www.w3.org/2000/svg">
<g clip-path="url(#clip0_67_886)">
<path d="M8 8.725V10.5C8 12.7109 9.78906 14.5 12 14.5C14.2109 14.5 16 12.7109 16 10.5V8.725C16.6094 8.37187 17 7.71781 17 7C17 5.89688 16.1025 5 15 5C14.4034 5 13.8672 5.26269 13.5 5.67875C13.1344 5.26269 12.5969 5 12 5C11.4031 5 10.8687 5.26269 10.5 5.67875C10.1344 5.26269 9.59687 5 9 5C7.8975 5 7 5.89688 7 7C7 7.71781 7.38969 8.37187 8 8.725ZM12 13.5C10.3456 13.5 9 12.1541 9 10.5H15C15 12.1531 13.6531 13.5 12 13.5ZM9 6C9.55187 6 10 6.44875 10 7C10 7.27638 10.2236 7.5 10.5 7.5C10.7764 7.5 11 7.27625 11 7C11 6.44875 11.4481 6 12 6C12.5519 6 13 6.44875 13 7C13 7.27638 13.2236 7.5 13.5 7.5C13.7764 7.5 14 7.27625 14 7C14 6.44875 14.4481 6 15 6C15.5519 6 16 6.44875 16 7C16 7.41844 15.7314 7.79531 15.3331 7.93688C15.1344 8.00781 15 8.19687 15 8.40937V9.5H9V8.40937C9 8.19794 8.86719 8.00906 8.66687 7.93812C8.26875 7.79531 8 7.41844 8 7C8 6.44875 8.44687 6 9 6ZM16.5 16.2906V15C16.5 14.8296 16.4131 14.6709 16.2695 14.5787C16.125 14.4875 15.9469 14.475 15.7906 14.5469L12.2187 16.1962L8.19062 14.5375C8.03437 14.4726 7.86062 14.4916 7.72187 14.5844C7.58312 14.6772 7.5 14.8344 7.5 15V16.2909C6.01062 16.8969 5 18.3719 5 20C5 20.5513 5.44812 21 6 21H18C18.5519 21 19 20.5513 19 20C19 18.3719 17.9906 16.8969 16.5 16.2906ZM9 18V20H6C6 18.6822 6.88094 17.4994 8.1425 17.1241C8.35312 17.0344 8.5 16.8656 8.5 16.6438V15.7469L10.9784 16.7675L9.29 17.5463C9.1125 17.6281 9 17.8062 9 18ZM10 20V18.3197L15.5 15.7812V16.645C15.5 16.8662 15.6455 17.0609 15.8575 17.1241C17.1187 17.4719 18 18.6812 18 20H10ZM12.5 18C12.2239 18 12 18.2238 12 18.5C12 18.7761 12.2239 19 12.5 19C12.7761 19 13 18.7761 13 18.5C13 18.225 12.775 18 12.5 18ZM14.5 18C14.2239 18 14 18.2238 14 18.5C14 18.7761 14.2239 19 14.5 19C14.7761 19 15 18.7761 15 18.5C15 18.225 14.775 18 14.5 18Z" fill="currentColor"/>
<path d="M18.6 10.2H21.0413C22.6725 10.2 24 11.5912 24 13.3012V13.8C24 14.13 23.7317 14.4 23.4 14.4C23.0684 14.4 22.8 14.1316 22.8 13.8V13.3012C22.8 12.2512 21.9788 11.4 21.0405 11.4H18.6C18.36 11.4 18.1238 11.4562 17.8968 11.5628C17.5994 11.7052 17.24 11.5769 17.0976 11.278C16.9553 10.9792 17.083 10.6213 17.3824 10.4789C17.772 10.2937 18.1815 10.2 18.6 10.2Z" fill="currentColor"/>
<path d="M6.90413 11.2765C6.76238 11.5753 6.40268 11.7036 6.105 11.5612C5.87625 11.4562 5.64 11.4 5.4 11.4H2.9595C1.98937 11.4 1.2 12.2512 1.2 13.3012V13.8C1.2 14.13 0.93165 14.4 0.6 14.4C0.26835 14.4 0 14.1316 0 13.8V13.3012C0 11.5912 1.32788 10.2 2.9595 10.2H5.4C5.82 10.2 6.22875 10.2937 6.61935 10.4773C6.91877 10.6195 7.04651 10.9776 6.90413 11.2765Z" fill="currentColor"/>
<circle cx="4" cy="6" r="2" stroke="currentColor" stroke-width="1.1"/>
<circle cx="20" cy="6" r="2" stroke="currentColor" stroke-width="1.1"/>
</g>
<defs>
<clipPath id="clip0_67_886">
<rect width="24" height="24" fill="white"/>
</clipPath>
</defs>
</svg>
