<svg width="24" height="24" viewBox="0 0 24 24" fill="none" xmlns="http://www.w3.org/2000/svg">
<path d="M12 1C18.0758 1 23 5.92422 23 12C23 18.0758 18.0758 23 12 23C5.92422 23 1 18.0758 1 12C1 5.92422 5.92422 1 12 1ZM12 21.625C12.7176 21.625 13.7359 21.0063 14.6598 19.1629C15.0852 18.3121 15.4418 17.2465 15.6566 16.125H8.30469C8.5582 17.2465 8.91484 18.3121 9.34023 19.1629C10.2641 21.0063 11.2824 21.625 12 21.625ZM8.05977 14.75H15.9402C16.0605 13.882 16.125 12.9582 16.125 12C16.125 11.0418 16.0605 10.118 15.9402 9.25H8.05977C7.93945 10.118 7.875 11.0418 7.875 12C7.875 12.9582 7.93945 13.882 8.05977 14.75ZM15.6566 7.875C15.4418 6.71484 15.0852 5.68789 14.6598 4.83668C13.7359 2.99246 12.7176 2.375 12 2.375C11.2824 2.375 10.2641 2.99246 9.34023 4.83668C8.91484 5.68789 8.5582 6.71484 8.30469 7.875H15.6566ZM17.2895 9.25C17.4398 10.1309 17.5 11.0504 17.5 12C17.5 12.9496 17.4398 13.8691 17.2895 14.75H21.2254C21.4875 13.8777 21.625 12.9539 21.625 12C21.625 11.0461 21.4875 10.1223 21.2254 9.25H17.2895ZM15.0723 2.87602C15.9746 4.09332 16.6879 5.82969 17.1004 7.875H20.6969C19.5883 5.5332 17.5559 3.71219 15.0723 2.87602ZM8.92773 2.87602C6.44414 3.71219 4.41344 5.5332 3.30141 7.875H6.89961C7.31211 5.82969 8.02539 4.09332 8.92773 2.87602ZM2.375 12C2.375 12.9539 2.51422 13.8777 2.77375 14.75H6.67188C6.56016 13.8691 6.5 12.9496 6.5 12C6.5 11.0504 6.56016 10.1309 6.67188 9.25H2.77375C2.51422 10.1223 2.375 11.0461 2.375 12ZM20.6969 16.125H17.1004C16.6879 18.1703 15.9746 19.9062 15.0723 21.1223C17.5559 20.2887 19.5883 18.4668 20.6969 16.125ZM6.89961 16.125H3.30141C4.41344 18.4668 6.44414 20.2887 8.92773 21.1223C8.02539 19.9062 7.31211 18.1703 6.89961 16.125Z" fill="currentColor"/>
</svg>
