<svg width="18" height="18" viewBox="0 0 18 18" fill="none" xmlns="http://www.w3.org/2000/svg">
<path fill-rule="evenodd" clip-rule="evenodd" d="M17.64 9.19937C17.64 8.55937 17.58 7.94937 17.48 7.35938H9V10.8394H13.84C13.63 11.9594 13 12.9194 12.04 13.5594V15.8194H14.95C16.65 14.2494 17.63 11.9494 17.63 9.19937H17.64Z" fill="#3529C4"/>
<path fill-rule="evenodd" clip-rule="evenodd" d="M8.99996 18.0009C11.43 18.0009 13.47 17.1909 14.96 15.8209L12.05 13.5609C11.24 14.1009 10.21 14.4209 8.99996 14.4209C6.65996 14.4209 4.66996 12.8409 3.95996 10.7109H0.959961V13.0409C2.43996 15.9809 5.47996 18.0009 8.99996 18.0009Z" fill="#269324"/>
<path fill-rule="evenodd" clip-rule="evenodd" d="M3.96 10.7109C3.78 10.1709 3.68 9.59094 3.68 9.00094C3.68 8.41094 3.78 7.83094 3.96 7.29094V4.96094H0.96C0.35 6.18094 0 7.55094 0 9.00094C0 10.4509 0.35 11.8309 0.96 13.0409L3.97 10.7109H3.96Z" fill="#FED236"/>
<path fill-rule="evenodd" clip-rule="evenodd" d="M8.99996 3.5798C10.32 3.5798 11.51 4.0298 12.44 4.9298L15.02 2.3498C13.46 0.899802 11.42 0.00980259 8.99996 0.00980259C5.47996 -0.000197412 2.43996 2.0198 0.959961 4.9598L3.96996 7.2898C4.67996 5.1598 6.65996 3.5798 9.00996 3.5798H8.99996Z" fill="#C42929"/>
</svg>
