<svg viewBox="0 0 32 25.3" xmlns="http://www.w3.org/2000/svg">
<path fill="currentColor" d="M30.4,3.3H17.6c-0.9,0-1.6-0.7-1.6-1.6v0C16,0.7,16.7,0,17.6,0l12.7,0C31.3,0,32,0.7,32,1.6v0  C32,2.5,31.3,3.3,30.4,3.3z"/>
<path fill="currentColor" d="M14.4,25.3H1.6c-0.9,0-1.6-0.7-1.6-1.6v0C0,22.7,0.7,22,1.6,22h12.7c0.9,0,1.6,0.7,1.6,1.6v0  C16,24.5,15.3,25.3,14.4,25.3z"/>
<path fill="currentColor" d="M30.4,14.5H1.6c-0.9,0-1.6-0.7-1.6-1.6l0,0c0-0.9,0.7-1.6,1.6-1.6h28.8c0.9,0,1.6,0.7,1.6,1.6v0  C32,13.8,31.3,14.5,30.4,14.5z"/>
</svg>