<svg width="24" height="24" viewBox="0 0 24 24" fill="none" xmlns="http://www.w3.org/2000/svg">
<path d="M12 1C5.92422 1 1 5.92422 1 12C1 18.0758 5.92422 23 12 23C18.0758 23 23 18.0758 23 12C23 5.92422 18.0758 1 12 1ZM12 21.625C6.69336 21.625 2.375 17.3066 2.375 12C2.375 6.69336 6.69336 2.375 12 2.375C17.3066 2.375 21.625 6.69336 21.625 12C21.625 17.3066 17.3066 21.625 12 21.625ZM11.3125 15.7812C10.7432 15.7812 10.2812 16.2432 10.2812 16.8125C10.2812 17.3818 10.7432 17.8438 11.3125 17.8438C11.8818 17.8438 12.3438 17.3818 12.3438 16.8125C12.3438 16.2432 11.884 15.7812 11.3125 15.7812ZM13.2719 6.5H10.7281C9.15547 6.5 7.875 7.78047 7.875 9.35312V9.76562C7.875 10.1456 8.18248 10.4531 8.5625 10.4531C8.94252 10.4531 9.25 10.1438 9.25 9.76562V9.35312C9.25 8.53672 9.91172 7.875 10.7281 7.875H13.274C14.0883 7.875 14.75 8.53672 14.75 9.35312C14.75 9.88937 14.4586 10.3844 14.017 10.6302L11.4199 11.927C10.9301 12.202 10.625 12.7176 10.625 13.2805V14.0625C10.625 14.4406 10.9344 14.75 11.3125 14.75C11.6906 14.75 12 14.4406 12 14.0625V13.2805C12 13.218 12.0336 13.1603 12.0618 13.1442L14.6575 11.8457C15.5621 11.3426 16.125 10.3887 16.125 9.35312C16.125 7.78047 14.8445 6.5 13.2719 6.5Z" fill="currentColor" />
</svg>
