<svg width="24" height="24" viewBox="0 0 24 24" fill="none" xmlns="http://www.w3.org/2000/svg">
<path d="M12 1C5.92422 1 1 5.92422 1 12C1 18.0758 5.92422 23 12 23C18.0758 23 23 18.0758 23 12C23 5.92422 18.0758 1 12 1ZM12 21.625C6.69336 21.625 2.375 17.3066 2.375 12C2.375 6.69336 6.69336 2.375 12 2.375C17.3066 2.375 21.625 6.69336 21.625 12C21.625 17.3066 17.3066 21.625 12 21.625ZM12 8.90625C12.5693 8.90625 13.0312 8.44477 13.0312 7.875C13.0312 7.30566 12.5693 6.84375 12 6.84375C11.4307 6.84375 10.9688 7.30352 10.9688 7.875C10.9688 8.44648 11.4285 8.90625 12 8.90625ZM14.0625 16.125H12.6875V11.3125C12.6875 10.9344 12.3781 10.625 12 10.625H10.625C10.2469 10.625 9.9375 10.9344 9.9375 11.3125C9.9375 11.6906 10.2469 12 10.625 12H11.3125V16.125H9.9375C9.55937 16.125 9.25 16.4344 9.25 16.8125C9.25 17.1906 9.55937 17.5 9.9375 17.5H14.0625C14.4422 17.5 14.75 17.1922 14.75 16.8125C14.75 16.4344 14.4406 16.125 14.0625 16.125Z" fill="currentColor"/>
</svg>
