<svg width="24" height="24" viewBox="0 0 24 24" fill="currentColor" xmlns="http://www.w3.org/2000/svg">
<path d="M16.125 11.625C16.125 11.4491 16.0579 11.2732 15.9236 11.139L9.73606 4.95152C9.46751 4.68297 9.03223 4.68297 8.76411 4.95152C8.49598 5.22008 8.49555 5.65535 8.76411 5.92348L13.7789 10.9375H1.6875C1.30748 10.9375 1 11.2469 1 11.625C1 12.0031 1.30748 12.3125 1.6875 12.3125H13.7789L8.76445 17.327C8.4959 17.5955 8.4959 18.0308 8.76445 18.2989C9.03301 18.567 9.46828 18.5675 9.73641 18.2989L15.9239 12.1114C16.0563 11.9773 16.125 11.8012 16.125 11.625ZM19.5625 2H15.4375C15.0594 2 14.75 2.30766 14.75 2.6875C14.75 3.06734 15.0594 3.375 15.4375 3.375H19.5625C20.7012 3.375 21.625 4.30012 21.625 5.4375V17.8125C21.625 18.9499 20.6999 19.875 19.5625 19.875H15.4375C15.0575 19.875 14.75 20.1825 14.75 20.5625C14.75 20.9425 15.0575 21.25 15.4375 21.25H19.5625C21.4587 21.25 23 19.7083 23 17.8125V5.4375C23 3.54172 21.4574 2 19.5625 2Z" />
</svg>
