<svg width="24" height="24" viewBox="0 0 24 24" fill="none" xmlns="http://www.w3.org/2000/svg">
<path d="M19.5625 2H15.4375C15.0594 2 14.75 2.30766 14.75 2.6875C14.75 3.06734 15.0594 3.375 15.4375 3.375H19.5625C20.7012 3.375 21.625 4.30012 21.625 5.4375V17.8125C21.625 18.9499 20.6999 19.875 19.5625 19.875H15.4375C15.0575 19.875 14.75 20.1825 14.75 20.5625C14.75 20.9425 15.0575 21.25 15.4375 21.25H19.5625C21.4587 21.25 23 19.7083 23 17.8125V5.4375C23 3.54172 21.4574 2 19.5625 2Z" fill="currentColor"/>
<path d="M1.20144 12.6111C1.06712 12.4769 1 12.301 1 12.1251C1 11.9489 1.06875 11.7728 1.20109 11.6387L7.38859 5.4512C7.65672 5.18265 8.09199 5.18308 8.36055 5.4512C8.6291 5.71933 8.6291 6.1546 8.36055 6.42315L3.34609 11.4376L15.4375 11.4376C15.8175 11.4376 16.125 11.747 16.125 12.1251C16.125 12.5032 15.8175 12.8126 15.4375 12.8126L3.34609 12.8126L8.36089 17.8266C8.62945 18.0948 8.62902 18.53 8.36089 18.7986C8.09277 19.0671 7.65749 19.0671 7.38894 18.7986L1.20144 12.6111Z" fill="currentColor"/>
</svg>
