<svg width="24" height="24" viewBox="0 0 24 24" fill="none" xmlns="http://www.w3.org/2000/svg">
<path d="M3.75 5.375C2.98945 5.375 2.375 5.98945 2.375 6.75V8.46445L10.7797 14.6262C11.5059 15.159 12.4941 15.159 13.2203 14.6262L21.625 8.46445V6.75C21.625 5.98945 21.0105 5.375 20.25 5.375H3.75ZM2.375 10.1703V17.75C2.375 18.5105 2.98945 19.125 3.75 19.125H20.25C21.0105 19.125 21.625 18.5105 21.625 17.75V10.1703L14.0324 15.7348C12.8207 16.6199 11.175 16.6199 9.96758 15.7348L2.375 10.1703ZM1 6.75C1 5.2332 2.2332 4 3.75 4H20.25C21.7668 4 23 5.2332 23 6.75V17.75C23 19.2668 21.7668 20.5 20.25 20.5H3.75C2.2332 20.5 1 19.2668 1 17.75V6.75Z" fill="currentColor"/>
</svg>
