<svg width="24" height="24" viewBox="0 0 24 24" fill="none" xmlns="http://www.w3.org/2000/svg">
<path d="M20.8 3H3.2C1.98484 3 1 3.98484 1 5.2V16.2C1 17.4152 1.98484 18.4 3.2 18.4H20.8C22.0152 18.4 23 17.4152 23 16.2V5.2C23 3.98484 22.0134 3 20.8 3ZM21.9 16.2C21.9 16.8064 21.4064 17.3 20.8 17.3H3.2C2.59363 17.3 2.1 16.8064 2.1 16.2V5.2C2.1 4.59363 2.59363 4.1 3.2 4.1H20.8C21.4064 4.1 21.9 4.59363 21.9 5.2V16.2ZM19.15 19.5H4.85C4.5475 19.5 4.3 19.7475 4.3 20.05C4.3 20.3525 4.5475 20.6 4.85 20.6H19.15C19.4538 20.6 19.7 20.3537 19.7 20.05C19.7 19.7475 19.4525 19.5 19.15 19.5Z" fill="currentColor"/>
<path d="M9.8097 6.96499L9.80976 6.96496C10.0937 6.80575 10.4415 6.81235 10.7193 6.982L10.7193 6.98202L15.2188 9.73139L15.2192 9.73164C15.4867 9.89623 15.65 10.1866 15.65 10.5C15.65 10.8109 15.4886 11.1042 15.2162 11.2562L10.7218 14.0031C10.4426 14.1882 10.0934 14.1948 9.8097 14.0355L9.8097 6.96499ZM9.8097 6.96499C9.52583 7.12434 9.35 7.42449 9.35 7.75002V13.25C9.35 13.5761 9.52579 13.8761 9.80969 14.0355L9.8097 6.96499ZM10.3021 7.66471L10.3021 7.66473L14.8007 10.4135C14.8329 10.4339 14.85 10.4661 14.85 10.5C14.85 10.534 14.8329 10.5662 14.8007 10.5866L10.3023 13.3359C10.3023 13.3359 10.3023 13.336 10.3023 13.336C10.2729 13.3538 10.2423 13.3528 10.2163 13.3337L10.2008 13.3224L10.183 13.3153C10.1713 13.3107 10.15 13.2906 10.15 13.25V7.75002C10.15 7.71395 10.1695 7.68049 10.2013 7.66257L10.1277 7.53189L10.201 7.66274C10.2325 7.64508 10.2711 7.64579 10.3021 7.66471Z" fill="currentColor" stroke="currentColor" stroke-width="0.3" />
</svg>
