<svg width="24" height="24" viewBox="0 0 24 24" fill="none" xmlns="http://www.w3.org/2000/svg">
<path d="M21 9V5C21 2.79086 19.2091 1 17 1H6C3.79086 1 2 2.79086 2 5V19C2 21.2091 3.79086 23 6 23H13" stroke="currentColor" stroke-width="1.3" stroke-linecap="round"/>
<path d="M6.125 10.9688C5.55566 10.9688 5.09375 11.4285 5.09375 12C5.09375 12.5693 5.55566 13.0312 6.125 13.0312C6.69477 13.0312 7.15625 12.5693 7.15625 12C7.15625 11.4285 6.69648 10.9688 6.125 10.9688ZM6.125 16.4688C5.55566 16.4688 5.09375 16.9302 5.09375 17.5C5.09375 18.0693 5.55566 18.5312 6.125 18.5312C6.69477 18.5312 7.15625 18.0693 7.15625 17.5C7.15625 16.9285 6.69648 16.4688 6.125 16.4688ZM6.125 5.46875C5.55566 5.46875 5.09375 5.92852 5.09375 6.5C5.09375 7.06934 5.55566 7.53125 6.125 7.53125C6.69477 7.53125 7.15625 7.06934 7.15625 6.5C7.15625 5.92852 6.69648 5.46875 6.125 5.46875ZM17.125 5.8125H9.5625C9.18437 5.8125 8.875 6.12187 8.875 6.5C8.875 6.87812 9.18248 7.1875 9.5625 7.1875H17.125C17.505 7.1875 17.8125 6.88002 17.8125 6.5C17.8125 6.11998 17.5031 5.8125 17.125 5.8125Z" fill="currentColor"/>
<path d="M9.5625 16.8125H11.125C11.5031 16.8125 11.8125 17.12 11.8125 17.5C11.8125 17.88 11.505 18.1875 11.125 18.1875H9.5625C9.18248 18.1875 8.875 17.8781 8.875 17.5C8.875 17.1219 9.18437 16.8125 9.5625 16.8125Z" fill="currentColor"/>
<path d="M9.5625 11.3125H11.125C11.5031 11.3125 11.8125 11.62 11.8125 12C11.8125 12.38 11.505 12.6875 11.125 12.6875H9.5625C9.18248 12.6875 8.875 12.3781 8.875 12C8.875 11.6219 9.18437 11.3125 9.5625 11.3125Z" fill="currentColor"/>
<path d="M17.0493 11.0253C16.9556 11.0405 16.873 11.0921 16.8173 11.1688L17.0493 11.0253ZM17.0493 11.0253C17.143 11.0102 17.2367 11.0328 17.3148 11.0881L17.0493 11.0253ZM17.6689 16.0413L17.6689 16.0413L17.9597 15.2105L18.0572 15.2323C18.0572 15.2323 18.0572 15.2323 18.0572 15.2323C18.1228 14.9396 18.1207 14.6333 18.0534 14.341L17.5563 11.3039L17.5563 11.3036C17.5364 11.1847 17.4709 11.0781 17.3737 11.0073L17.3737 11.0073L17.3726 11.0065C17.2738 10.9365 17.1537 10.9072 17.0335 10.9265L17.0333 10.9266C16.913 10.9461 16.8074 11.0124 16.7364 11.11L16.7364 11.11C16.6648 11.2085 16.6362 11.3311 16.6561 11.4506C16.6561 11.4507 16.6562 11.4508 16.6562 11.4509L17.1559 14.5104L17.1556 14.5104L17.1576 14.5185C17.1986 14.6826 17.2026 14.8525 17.1679 15.0181C17.1331 15.1837 17.0618 15.3364 16.9582 15.4666C16.8441 15.6055 16.7063 15.7133 16.5526 15.7705L16.544 15.7737L16.5362 15.7784C16.3815 15.8708 16.2095 15.9139 16.0329 15.9182H14.9717C14.7948 15.916 14.6207 15.8749 14.4617 15.7968L14.4607 15.7963C14.3024 15.7206 14.1619 15.6077 14.0495 15.4714C13.9444 15.3368 13.8717 15.1775 13.8375 15.0099C13.8033 14.841 13.8096 14.6481 13.8531 14.5029L13.854 14.5031L13.8561 14.4902L14.3509 11.4504L14.3511 11.4504L14.3516 11.4458C14.365 11.3288 14.3327 11.2117 14.262 11.1181L14.2619 11.118C14.191 11.0242 14.0865 10.9615 13.9706 10.9427L13.9706 10.9427C13.8546 10.9239 13.7361 10.9505 13.6391 11.0168L13.639 11.0169C13.5422 11.0833 13.4744 11.1845 13.4504 11.2997L13.4503 11.2996L13.4496 11.304L12.9575 14.3203C12.885 14.6173 12.881 14.9258 12.9458 15.225L12.9459 15.2251C13.011 15.5232 13.1438 15.805 13.3344 16.0447L13.3344 16.0447L13.3351 16.0456C13.5318 16.2871 13.7806 16.4848 14.0653 16.6016C14.3492 16.758 14.6585 16.8298 14.9704 16.8322H14.9711H15.0461V22.067C15.0461 22.1872 15.0943 22.3042 15.1802 22.3899C15.2658 22.4754 15.3827 22.524 15.5031 22.524C15.6235 22.524 15.7403 22.4754 15.8259 22.3899C15.9115 22.3043 15.9601 22.1874 15.9601 22.067V16.8322H16.0341V16.8322L16.0356 16.8322C16.349 16.8275 16.658 16.7549 16.9414 16.6168L16.9415 16.6169L16.9463 16.6142C17.2196 16.4616 17.4681 16.287 17.6689 16.0413ZM13.4126 15.9825C13.2317 15.7549 13.1054 15.4871 13.0436 15.2038L14.1086 16.5113C13.8392 16.4019 13.6016 16.2145 13.4126 15.9825ZM13.9546 11.0414C14.0452 11.0561 14.1269 11.1051 14.1822 11.1783L13.6956 11.0994C13.7714 11.0475 13.864 11.0267 13.9546 11.0414ZM22.186 18.9318V22.0447C22.186 22.1823 22.2326 22.3001 22.3202 22.3876C22.415 22.4825 22.5394 22.5017 22.643 22.5017C22.7467 22.5017 22.871 22.4825 22.9658 22.3876C23.0534 22.3001 23.1 22.1823 23.1 22.0447V12.7824V12.7824V12.7824V12.7823V12.7823V12.7822V12.7822V12.7822V12.7821V12.7821V12.782V12.782V12.7819V12.7819V12.7819V12.7818V12.7818V12.7817V12.7817V12.7817V12.7816V12.7816V12.7815V12.7815V12.7814V12.7814V12.7814V12.7813V12.7813V12.7812V12.7812V12.7812V12.7811V12.7811V12.781V12.781V12.781V12.7809V12.7809V12.7808V12.7808V12.7808V12.7807V12.7807V12.7806V12.7806V12.7806V12.7805V12.7805V12.7804V12.7804V12.7803V12.7803V12.7803V12.7802V12.7802V12.7801V12.7801V12.7801V12.78V12.78V12.7799V12.7799V12.7799V12.7798V12.7798V12.7797V12.7797V12.7797V12.7796V12.7796V12.7795V12.7795V12.7795V12.7794V12.7794V12.7793V12.7793V12.7793V12.7792V12.7792V12.7791V12.7791V12.7791V12.779V12.779V12.779V12.7789V12.7789V12.7788V12.7788V12.7788V12.7787V12.7787V12.7786V12.7786V12.7786V12.7785V12.7785V12.7784V12.7784V12.7784V12.7783V12.7783V12.7782V12.7782V12.7782V12.7781V12.7781V12.778V12.778V12.778V12.7779V12.7779V12.7779V12.7778V12.7778V12.7777V12.7777V12.7777V12.7776V12.7776V12.7775V12.7775V12.7775V12.7774V12.7774V12.7773V12.7773V12.7773V12.7772V12.7772V12.7772V12.7771V12.7771V12.777V12.777V12.777V12.7769V12.7769V12.7768V12.7768V12.7768V12.7767V12.7767V12.7767V12.7766V12.7766V12.7765V12.7765V12.7765V12.7764V12.7764V12.7763V12.7763V12.7763V12.7762V12.7762V12.7762V12.7761V12.7761V12.776V12.776V12.776V12.7759V12.7759V12.7759V12.7758V12.7758V12.7757V12.7757V12.7757V12.7756V12.7756V12.7755V12.7755V12.7755V12.7754V12.7754V12.7754V12.7753V12.7753V12.7752V12.7752V12.7752V12.7751V12.7751V12.7751V12.775V12.775V12.7749V12.7749V12.7749V12.7748V12.7748V12.7748V12.7747V12.7747V12.7746V12.7746V12.7746V12.7745V12.7745V12.7745V12.7744V12.7744V12.7743V12.7743V12.7743V12.7742V12.7742V12.7742V12.7741V12.7741V12.774V12.774V12.774V12.7739V12.7739V12.7739V12.7738V12.7738V12.7737V12.7737V12.7737V12.7736V12.7736V12.7736V12.7735V12.7735V12.7735V12.7734V12.7734V12.7733V12.7733V12.7733V12.7732V12.7732V12.7732V12.7731V12.7731V12.773V12.773V12.773V12.7729V12.7729V12.7729V12.7728V12.7728V12.7727V12.7727V12.7727V12.7726V12.7726V12.7726V12.7725V12.7725V12.7725V12.7724V12.7724V12.7723V12.7723V12.7723V12.7722V12.7722V12.7722V12.7721V12.7721V12.772V12.772V12.772V12.7719V12.7719V12.7719V12.7718V12.7718V12.7718V12.7717V12.7717V12.7716V12.7716V12.7716V12.7715V12.7715V12.7715V12.7714V12.7714V12.7713V12.7713V12.7713V12.7712V12.7712V12.7712V12.7711V12.7711V12.7711V12.771V12.771V12.7709V12.7709V12.7709V12.7708V12.7708V12.7708V12.7707V12.7707V12.7706V12.7706V12.7706V12.7705V12.7705V12.7705V12.7704V12.7704V12.7704V12.7703V12.7703V12.7702V12.7702V12.7702V12.7701V12.7701V12.7701V12.77V12.77V12.77V12.7699V12.7699V12.7698V12.7698V12.7698V12.7697V12.7697V12.7697V12.7696V12.7696V12.7695V12.7695V12.7695V12.7694V12.7694V12.7694V12.7693V12.7693V12.7693V12.7692V12.7692V12.7691V12.7691V12.7691V12.769V12.769V12.769V12.7689V12.7689V12.7689V12.7688V12.7688V12.7687V12.7687V12.7687V12.7686V12.7686V12.7686V12.7685V12.7685V12.7685V12.7684V12.7684V12.7683V12.7683V12.7683V12.7682V12.7682V12.7682V12.7681V12.7681V12.768V12.768V12.768V12.7679V12.7679V12.7679V12.7678V12.7678V12.7678V12.7677V12.7677V12.7676V12.7676V12.7676V12.7675V12.7675V12.7675V12.7674V12.7674V12.7674V12.7673V12.7673V12.7672V12.7672V12.7672V12.7671V12.7671V12.7671V12.767V12.767V12.7669V12.7669V12.7669V12.7668V12.7668V12.7668V12.7667V12.7667V12.7667V12.7666V12.7666V12.7665V12.7665V12.7665V12.7664V12.7664V12.7664V12.7663V12.7663V12.7662V12.7662V12.7662V12.7661V12.7661V12.7661V12.766V12.766V12.766V12.7659V12.7659V12.7658V12.7658V12.7658V12.7657V12.7657V12.7657V12.7656V12.7656V12.7655V12.7655V12.7655V12.7654V12.7654V12.7654V12.7653V12.7653V12.7652V12.7652V12.7652V12.7651V12.7651V12.7651V12.765V12.765V12.7649V12.7649V12.7649V12.7648V12.7648V12.7648V12.7647V12.7647V12.7646V12.7646V12.7646V12.7645V12.7645V12.7645V12.7644V12.7644V12.7644V12.7643V12.7643V12.7642V12.7642V12.7642V12.7641V12.7641V12.7641V12.764V12.764V12.7639V12.7639V12.7639V12.7638V12.7638V12.7638V12.7637V12.7637V12.7636V12.7636V12.7636V12.7635V12.7635V12.7634V12.7634V12.7634V12.7633V12.7633V12.7633V12.7632V12.7632V12.7631V12.7631V12.7631V12.763V11.7144C23.1 11.5811 23.0669 11.4504 23.0062 11.3336L23.0062 11.3336L23.0054 11.3321C22.943 11.2168 22.8546 11.1156 22.7245 11.0403C22.6282 10.9627 22.4996 10.9184 22.3726 10.9047C22.2453 10.891 22.0909 10.9069 21.9802 10.9594C21.2 11.2727 20.5292 11.8129 20.0568 12.5101C19.5838 13.2082 19.3301 14.0322 19.33 14.8754C19.33 14.8755 19.33 14.8757 19.33 14.8758L19.3122 17.4142V17.4149C19.3122 17.6146 19.3502 17.8119 19.4033 17.9921L19.4068 18.0041L19.4132 18.0149C19.416 18.0195 19.4188 18.0242 19.4216 18.0289C19.51 18.1778 19.6185 18.3605 19.7559 18.5002L19.7565 18.5008C19.8998 18.6442 20.069 18.756 20.2519 18.8344L20.2519 18.8344L20.2533 18.835C20.4449 18.9136 20.6474 18.9318 20.8402 18.9318H22.186ZM20.8114 13.021C21.1538 12.515 21.6295 12.1153 22.1854 11.8654L22.1618 18.0401H20.8402C20.7591 18.0401 20.6791 18.0246 20.6057 17.9926L20.6057 17.9926L20.6037 17.9918C20.5302 17.9616 20.463 17.916 20.4044 17.8596C20.3486 17.8016 20.3027 17.7323 20.2722 17.6581C20.2417 17.5836 20.2262 17.503 20.2262 17.422C20.2262 17.4218 20.2262 17.4217 20.2262 17.4216L20.244 14.8765H20.244L20.244 14.8755C20.2419 14.215 20.4389 13.5676 20.8112 13.0213L20.8114 13.021Z" fill="currentColor" stroke="currentColor" stroke-width="0.2"/>
</svg>
