<svg width="24" height="24" viewBox="0 0 24 24" fill="none" xmlns="http://www.w3.org/2000/svg">
<path d="M10.8988 1.6875C10.8988 1.30783 11.2469 1 11.5863 1C12.0031 1 12.3125 1.30783 12.3125 1.6875V2.40895C15.7887 2.75398 18.5 5.68359 18.5 9.25V10.5004C18.5 12.3781 19.2477 14.1785 20.5754 15.5105L20.6914 15.6266C21.048 15.9832 21.25 16.4301 21.25 16.9715C21.25 18.0242 20.3992 18.875 19.3465 18.875H3.90266C2.85207 18.875 2 18.0242 2 16.9715C2 16.4301 2.20049 15.9832 2.5573 15.6266L2.67547 15.5105C4.00363 14.1785 4.75 12.3781 4.75 10.5004V9.25C4.75 5.68359 7.46133 2.75398 10.9375 2.40895L10.8988 1.6875ZM11.5863 3.75C8.58711 3.75 6.08633 6.21211 6.08633 9.25V10.5004C6.08633 12.7434 5.23383 14.8961 3.64785 16.4816L3.52969 16.5977C3.43043 16.6965 3.33633 16.834 3.33633 16.9715C3.33633 17.2637 3.61133 17.5 3.90266 17.5H19.3465C19.6387 17.5 19.875 17.2637 19.875 16.9715C19.875 16.834 19.8191 16.6965 19.7203 16.5977L19.6043 16.4816C18.0145 14.8961 17.125 12.7434 17.125 10.5004V9.25C17.125 6.21211 14.6629 3.75 11.5863 3.75ZM11.5863 21.625C12.2223 21.625 12.7336 21.2426 12.9227 20.7098C13.0473 20.3488 13.4426 20.1254 13.7992 20.2887C14.1559 20.4176 14.3449 20.8086 14.2203 21.1652C13.8422 22.2352 12.8238 23 11.5863 23C10.4262 23 9.40781 22.2352 9.02969 21.1652C8.90508 20.8086 9.09414 20.4176 9.45078 20.2887C9.80742 20.1254 10.2027 20.3488 10.3273 20.7098C10.5164 21.2426 11.0277 21.625 11.5863 21.625Z" fill="currentColor" />
</svg>
