<svg width="25" height="24" viewBox="0 0 25 24" fill="none" xmlns="http://www.w3.org/2000/svg">
<path d="M3.66448 8.42762C3.58767 8.32977 3.53571 8.21406 3.51327 8.09078C3.49082 7.96749 3.49854 7.84045 3.53578 7.72095C3.57302 7.60146 3.63865 7.49321 3.72675 7.40585C3.81484 7.31848 3.92269 7.25469 4.04076 7.22016L4.77572 6.96126C4.89174 6.92912 4.99826 6.86842 5.08596 6.78447C5.17366 6.70052 5.23988 6.59588 5.27876 6.47974C5.31765 6.36359 5.32802 6.23948 5.309 6.11828C5.28998 5.99709 5.24214 5.8825 5.16967 5.78457L4.82793 5.1542C4.75977 5.06103 4.71374 4.95295 4.69349 4.83851C4.67325 4.72406 4.67933 4.60637 4.71126 4.49474C4.74319 4.3831 4.80007 4.28057 4.87746 4.19524C4.95485 4.1099 5.05064 4.0441 5.1572 4.00303L6.20155 3.55277C6.30607 3.51117 6.39942 3.44478 6.47384 3.35908C6.54826 3.27338 6.60166 3.17082 6.62959 3.05989C6.65752 2.94896 6.65919 2.83283 6.63448 2.72111C6.60977 2.60938 6.55939 2.50526 6.48748 2.41735V2.4121C6.26184 2.03238 6.78144 1.84327 7.17758 2.1607C8.26885 3.0965 9.17106 4.24048 9.83375 5.52867C10.4685 6.58714 11.0233 7.69349 11.4933 8.83811C11.7999 9.53959 12.3458 10.1033 13.0294 10.424C13.713 10.7448 14.4875 10.8007 15.2085 10.5814C16.3651 10.1999 17.5484 9.90865 18.7481 9.71012C20.4172 9.42045 21.2786 9.14654 22.8529 9.5105C23.3975 9.63583 23.6437 10.1897 23.1792 10.2437H23.1719C22.5839 10.3105 22.3134 10.7 22.5038 11.1997L22.9447 12.3509C23.1402 12.8582 22.8771 13.2635 22.2943 13.3505L21.5461 13.4631C20.9339 13.5554 20.6803 13.9936 20.9258 14.5317L21.2823 15.3084C21.5336 15.857 21.2624 16.3027 20.6274 16.3823L20.0652 16.4573C19.4324 16.5369 19.1612 16.9826 19.4074 17.5259L19.7962 18.3874C19.8565 18.4894 19.8901 18.6054 19.8937 18.7245C19.8974 18.8435 19.8709 18.9615 19.8169 19.0671C19.7629 19.1726 19.6832 19.2622 19.5855 19.3272C19.4878 19.3922 19.3753 19.4304 19.2589 19.4381L18.5975 19.5814C18.4359 19.5927 18.28 19.6467 18.1451 19.7381C18.0101 19.8296 17.9008 19.9553 17.8279 20.1029C17.7549 20.2505 17.7208 20.4149 17.7289 20.5801C17.7371 20.7452 17.7872 20.9054 17.8742 21.0448L18.0653 21.45C18.2336 21.8087 17.7265 21.9295 17.3069 21.6323C16.1221 20.7889 15.6473 19.9896 14.6808 18.3874C13.9829 17.2382 13.474 15.9801 13.1741 14.663C13.1116 14.2939 12.962 13.9459 12.7383 13.649C12.5147 13.352 12.2236 13.1151 11.8902 12.9587C11.5569 12.8023 11.1913 12.731 10.8249 12.751C10.4586 12.771 10.1025 12.8817 9.78745 13.0736C8.61408 13.7002 7.3477 14.1253 6.03912 14.3321C4.67941 14.6585 3.26706 14.684 1.89688 14.4071C1.4559 14.2968 1.25454 13.8405 1.59556 13.725L1.98727 13.5996C2.13875 13.5606 2.27915 13.4859 2.39714 13.3813C2.51513 13.2767 2.60742 13.1454 2.66656 12.9977C2.7257 12.8501 2.75003 12.6903 2.73762 12.5313C2.7252 12.3723 2.6764 12.2185 2.5951 12.0823L2.32169 11.4954C2.26297 11.3975 2.22732 11.2871 2.21748 11.1727C2.20764 11.0584 2.22389 10.9433 2.26499 10.8364C2.30608 10.7296 2.37091 10.634 2.45433 10.557C2.53776 10.4801 2.63752 10.4239 2.74578 10.393L3.55938 10.1034C3.67692 10.0686 3.7842 10.0047 3.87173 9.91733C3.95926 9.83001 4.02433 9.72196 4.06112 9.60279C4.09792 9.48361 4.10531 9.357 4.08265 9.23421C4.06 9.11141 4.008 8.99623 3.93126 8.8989L3.66448 8.42762Z" fill="currentColor"/>
</svg>
