<svg width="87" height="26" viewBox="0 0 87 26" fill="none" xmlns="http://www.w3.org/2000/svg">
<path d="M75.0784 9.52873C75.1156 9.56199 75.1631 9.58144 75.213 9.5838C75.2629 9.58617 75.312 9.57132 75.3522 9.54174C76.005 9.06114 76.0843 8.63447 76.0365 8.36225C75.9887 8.09002 75.7619 7.71183 74.9563 7.47603C74.9386 7.47035 74.9216 7.46562 74.9071 7.46066C74.9603 7.42116 75.0254 7.37669 75.084 7.33696C75.576 7.00016 76.4913 6.37387 76.3702 5.15725C76.3683 5.12804 76.3606 5.09951 76.3475 5.07335C76.3343 5.04719 76.3161 5.02395 76.2938 5.005C76.2715 4.98605 76.2456 4.97178 76.2176 4.96305C76.1897 4.95432 76.1603 4.9513 76.1312 4.95418C76.102 4.95705 76.0738 4.96576 76.0481 4.97979C76.0224 4.99381 75.9998 5.01286 75.9816 5.0358C75.9635 5.05875 75.9501 5.08511 75.9423 5.11333C75.9346 5.14155 75.9326 5.17105 75.9364 5.20006C76.031 6.15983 75.3135 6.65178 74.8378 6.97746C74.5526 7.17211 74.3466 7.31354 74.3837 7.54296C74.4209 7.77238 74.6997 7.85563 74.8345 7.89442C75.2886 8.02687 75.5705 8.22554 75.6077 8.4384C75.6448 8.65127 75.4575 8.92397 75.094 9.19123C75.0709 9.2082 75.0515 9.22954 75.0367 9.25404C75.0219 9.27853 75.0121 9.3057 75.0078 9.33399C75.0035 9.36228 75.0049 9.39113 75.0117 9.41891C75.0186 9.44668 75.0309 9.47283 75.0479 9.49586C75.0567 9.50793 75.067 9.51896 75.0784 9.52873Z" fill="white"/>
<path d="M73.9149 2.52578C73.8902 2.49494 73.8735 2.45847 73.8662 2.41961C73.859 2.38076 73.8615 2.34072 73.8735 2.30306C73.8855 2.2654 73.9066 2.23128 73.9349 2.20375C73.9633 2.17621 73.998 2.15611 74.036 2.14522L74.2725 2.06363C74.3098 2.0535 74.3441 2.03437 74.3723 2.00791C74.4006 1.98145 74.4219 1.94847 74.4344 1.91187C74.4469 1.87526 74.4502 1.83615 74.4441 1.79795C74.438 1.75975 74.4226 1.72364 74.3993 1.69277L74.2893 1.4941C74.2674 1.46474 74.2526 1.43067 74.246 1.3946C74.2395 1.35853 74.2415 1.32144 74.2518 1.28626C74.262 1.25108 74.2803 1.21876 74.3052 1.19187C74.3301 1.16497 74.361 1.14423 74.3953 1.13129L74.7313 0.989381C74.765 0.976272 74.795 0.955348 74.819 0.928337C74.8429 0.901327 74.8601 0.869005 74.8691 0.834043C74.8781 0.799081 74.8786 0.762482 74.8707 0.72727C74.8627 0.692057 74.8465 0.659242 74.8233 0.631536V0.62988C74.7507 0.510204 74.9179 0.450603 75.0454 0.550648C75.3966 0.845582 75.6869 1.20613 75.9002 1.61212C76.1045 1.94572 76.283 2.2944 76.4342 2.65515C76.5329 2.87623 76.7086 3.05388 76.9286 3.15497C77.1486 3.25607 77.3978 3.27369 77.6298 3.20457C78.002 3.08434 78.3828 2.99255 78.7689 2.92998C79.306 2.83868 79.5832 2.75236 80.0898 2.86707C80.2651 2.90656 80.3443 3.08111 80.1948 3.09814H80.1924C80.0032 3.11919 79.9162 3.24194 79.9775 3.39946L80.1194 3.76227C80.1823 3.92215 80.0976 4.04987 79.91 4.07731L79.6693 4.11278C79.4723 4.14188 79.3907 4.28 79.4697 4.44958L79.5844 4.69437C79.6653 4.86726 79.578 5.00775 79.3736 5.03282L79.1927 5.05647C78.9891 5.08154 78.9018 5.22203 78.981 5.39327L79.1061 5.66479C79.1256 5.69691 79.1364 5.73349 79.1375 5.77101C79.1387 5.80852 79.1302 5.84571 79.1128 5.87898C79.0954 5.91225 79.0698 5.94048 79.0383 5.96096C79.0069 5.98144 78.9707 5.99348 78.9332 5.99591L78.7204 6.04108C78.6684 6.04464 78.6182 6.06166 78.5748 6.09048C78.5314 6.11929 78.4962 6.15891 78.4727 6.20543C78.4493 6.25196 78.4383 6.30379 78.4409 6.35583C78.4435 6.40788 78.4596 6.45835 78.4877 6.50228L78.5492 6.63C78.6033 6.74305 78.4401 6.78113 78.3051 6.68747C77.9238 6.42163 77.771 6.16974 77.46 5.66479C77.2354 5.30259 77.0716 4.90607 76.9751 4.49097C76.955 4.37464 76.9069 4.26495 76.8349 4.17137C76.7629 4.07779 76.6693 4.00313 76.562 3.95382C76.4547 3.90452 76.3371 3.88205 76.2192 3.88836C76.1013 3.89467 75.9867 3.92956 75.8853 3.99003C75.5077 4.18751 75.1002 4.32151 74.6791 4.38667C74.2415 4.48953 73.787 4.4976 73.3461 4.41032C73.2042 4.37555 73.1394 4.23175 73.2491 4.19533L73.3752 4.15583C73.4239 4.14354 73.4691 4.11997 73.5071 4.08701C73.545 4.05406 73.5747 4.01265 73.5938 3.96612C73.6128 3.91959 73.6206 3.86923 73.6166 3.81912C73.6126 3.769 73.5969 3.72053 73.5708 3.6776L73.4828 3.49264C73.4639 3.46179 73.4524 3.42698 73.4492 3.39095C73.4461 3.35491 73.4513 3.31863 73.4645 3.28496C73.4778 3.25128 73.4986 3.22114 73.5255 3.19689C73.5523 3.17264 73.5844 3.15495 73.6193 3.14521L73.8811 3.05391C73.9189 3.04294 73.9534 3.02281 73.9816 2.99528C74.0098 2.96776 74.0307 2.93371 74.0425 2.89615C74.0544 2.85859 74.0568 2.81869 74.0495 2.77999C74.0422 2.74128 74.0254 2.70498 74.0007 2.67431L73.9149 2.52578Z" fill="currentColor"/>
<path d="M43.1199 11.7511V20.4243C43.1199 21.2284 42.6835 21.6636 41.9009 21.6636C41.1183 21.6636 40.6819 21.2476 40.6819 20.4243V20.27C40.4324 20.8275 39.5639 21.6636 38.045 21.6636C36.0432 21.6636 34.7246 20.4744 34.7246 17.6192V14.5469C34.7246 11.6725 36.0827 10.5124 38.045 10.5124C39.5639 10.5124 40.4324 11.3565 40.6819 11.9079V11.7511C40.6819 10.9469 41.118 10.5117 41.9009 10.5117C42.6838 10.5117 43.1199 10.9479 43.1199 11.7511ZM40.5332 14.7051C40.5332 13.357 39.8593 12.7621 38.9376 12.7621C37.9859 12.7621 37.3421 13.3771 37.3421 14.7446V17.4108C37.3421 18.7987 37.9762 19.4127 38.9376 19.4127C39.8894 19.4127 40.5332 18.7883 40.5332 17.4108V14.7051Z" fill="currentColor"/>
<path d="M18.5789 11.7511V20.4243C18.5789 21.2284 18.1425 21.6636 17.3599 21.6636C16.5773 21.6636 16.1409 21.2476 16.1409 20.4243V20.27C15.8914 20.8275 15.0229 21.6636 13.504 21.6636C11.5022 21.6636 10.1836 20.4744 10.1836 17.6192V14.5469C10.1836 11.6725 11.5417 10.5124 13.504 10.5124C15.0229 10.5124 15.8914 11.3565 16.1409 11.9079V11.7511C16.1409 10.9469 16.577 10.5117 17.3599 10.5117C18.1428 10.5117 18.5789 10.9479 18.5789 11.7511ZM15.9921 14.7051C15.9921 13.357 15.3183 12.7621 14.3966 12.7621C13.4449 12.7621 12.8011 13.3771 12.8011 14.7446V17.4108C12.8011 18.7987 13.4352 19.4127 14.3966 19.4127C15.3483 19.4127 15.9921 18.7883 15.9921 17.4108V14.7051Z" fill="currentColor"/>
<path d="M86.6429 11.7511V20.4243C86.6429 21.2284 86.2067 21.6636 85.4239 21.6636C84.641 21.6636 84.2049 21.2476 84.2049 20.4243V20.27C83.9554 20.8275 83.0869 21.6636 81.568 21.6636C79.5661 21.6636 78.2476 20.4744 78.2476 17.6192V14.5469C78.2476 11.6725 79.6056 10.5124 81.568 10.5124C83.0869 10.5124 83.9554 11.3565 84.2049 11.9079V11.7511C84.2049 10.9469 84.6412 10.5117 85.4239 10.5117C86.2065 10.5117 86.6429 10.9479 86.6429 11.7511ZM84.0559 14.7051C84.0559 13.357 83.382 12.7621 82.4603 12.7621C81.5086 12.7621 80.8648 13.3771 80.8648 14.7446V17.4108C80.8648 18.7987 81.4989 19.4127 82.4603 19.4127C83.4121 19.4127 84.0559 18.7883 84.0559 17.4108V14.7051Z" fill="currentColor"/>
<path d="M53.0974 14.556V17.642C53.0974 20.4802 51.7774 21.6604 49.7625 21.6604C48.3536 21.6604 47.5594 20.9655 47.2824 20.4397V24.2594C47.2824 25.0636 46.8461 25.4995 46.0424 25.4995H45.9241C45.12 25.4995 44.6841 25.0631 44.6841 24.2594V11.7479C44.6841 10.9437 45.1212 10.5078 45.9047 10.5078C46.6883 10.5078 47.1254 10.9248 47.1254 11.689V11.9137C47.3896 11.328 48.1547 10.508 49.7646 10.508C51.7771 10.5078 53.0974 11.6887 53.0974 14.556ZM50.4782 14.7547C50.4782 13.3852 49.8335 12.7504 48.8699 12.7504C47.9272 12.7504 47.2727 13.3758 47.2727 14.7547V17.4828C47.2727 18.8222 47.9473 19.4178 48.8699 19.4178C49.8427 19.4178 50.4782 18.773 50.4782 17.4336V14.7547Z" fill="currentColor"/>
<path d="M8.7702 14.556V17.642C8.7702 20.4802 7.45022 21.6604 5.43536 21.6604C4.02645 21.6604 3.23223 20.9655 2.95528 20.4397V24.2594C2.95528 25.0636 2.51891 25.4995 1.71523 25.4995H1.59698C0.792829 25.4995 0.356934 25.0631 0.356934 24.2594V11.7479C0.356934 10.9437 0.794011 10.5078 1.57758 10.5078C2.36115 10.5078 2.79823 10.9248 2.79823 11.689V11.9137C3.06242 11.328 3.82754 10.508 5.43749 10.508C7.45093 10.5078 8.7702 11.6887 8.7702 14.556ZM6.15105 14.7547C6.15105 13.3852 5.50631 12.7504 4.54276 12.7504C3.60001 12.7504 2.94558 13.3758 2.94558 14.7547V17.4828C2.94558 18.8222 3.62012 19.4178 4.54276 19.4178C5.51554 19.4178 6.15105 18.773 6.15105 17.4336V14.7547Z" fill="currentColor"/>
<path d="M54.3691 17.2914V14.9227C54.3691 12.2066 55.9155 10.5117 58.5718 10.5117C61.2184 10.5117 62.7744 12.0878 62.7744 14.8137V15.6069C62.7744 16.4111 62.338 16.8463 61.535 16.8463H56.9656V17.8569C56.9656 19.0066 57.7184 19.522 58.5718 19.522C59.6124 19.522 60.1091 19.1147 60.3104 18.4354C60.4639 18.0444 60.6595 17.7479 61.3969 17.7479H61.5755C62.2493 17.7479 62.6928 17.996 62.6661 18.5113C62.6169 20.127 61.0996 21.6532 58.5725 21.6532C55.9155 21.6532 54.3691 19.9581 54.3691 17.2914ZM60.1777 15.0317V14.4371C60.1777 13.1389 59.4935 12.6633 58.5718 12.6633C57.6598 12.6633 56.9656 13.169 56.9656 14.3581V15.032L60.1777 15.0317Z" fill="currentColor"/>
<path d="M72.4636 8.08308V20.4137C72.4636 21.2179 72.0275 21.6531 71.2446 21.6531C70.4617 21.6531 70.0256 21.237 70.0256 20.4736V20.2489C69.7614 20.8338 68.9972 21.6531 67.3887 21.6531C65.3762 21.6531 64.0586 20.4736 64.0586 17.6087V14.5257C64.0586 11.6909 65.3772 10.5114 67.3887 10.5114C68.796 10.5114 69.5883 11.2053 69.8664 11.7304V8.08308C69.8664 7.27894 70.3028 6.84375 71.1058 6.84375H71.224C72.0275 6.84446 72.4636 7.28012 72.4636 8.08308ZM69.8759 14.6842C69.8759 13.3465 69.2021 12.7519 68.2804 12.7519C67.3092 12.7519 66.6742 13.3966 66.6742 14.7343V17.4107C66.6742 18.7785 67.318 19.4126 68.2804 19.4126C69.2224 19.4126 69.8759 18.7882 69.8759 17.4107V14.6842Z" fill="currentColor"/>
<path d="M74.0635 20.4116V12.3135C74.0635 11.5094 74.4996 11.0742 75.3028 11.0742H75.4118C76.216 11.0742 76.6512 11.5103 76.6512 12.3135V20.4116C76.6512 21.2157 76.2148 21.6509 75.4118 21.6509H75.3028C74.4989 21.6509 74.0635 21.2148 74.0635 20.4116Z" fill="currentColor"/>
<path d="M19.7983 19.0548C19.5502 18.302 20.0464 17.7566 20.9082 17.7566H21.0002C21.2364 17.7426 21.4713 17.8005 21.674 17.9226C21.8767 18.0448 22.0376 18.2254 22.1355 18.4408C22.4612 19.1097 23.0435 19.5113 23.9701 19.5113C24.862 19.5113 25.5075 19.0652 25.5075 18.3124C25.5075 16.3898 19.8976 17.5393 19.8976 13.7432C19.8976 11.7414 21.3945 10.5117 23.8424 10.5117C25.9736 10.5117 27.3615 11.3447 27.8374 12.9797C28.0822 13.7188 27.595 14.2602 26.7967 14.2602H26.6964C26.4528 14.2792 26.2091 14.2227 25.9987 14.0984C25.7883 13.9741 25.6212 13.788 25.5203 13.5653C25.2327 12.9119 24.7367 12.6129 23.8616 12.6129C22.96 12.6129 22.464 13.0289 22.464 13.6931C22.464 15.804 28.124 14.6642 28.124 18.3318C28.124 20.4533 26.6472 21.6522 23.9311 21.6522C21.8503 21.6525 20.2547 20.7104 19.7983 19.0548Z" fill="currentColor"/>
<path d="M29.5809 17.4504V12.7833H29.439C28.8364 12.7833 28.502 12.41 28.502 11.7412C28.502 11.0375 28.918 10.8493 29.5724 10.5018C29.7675 10.4173 29.9355 10.2807 30.058 10.1069C30.1932 9.90636 30.2844 9.67943 30.3255 9.44108C30.5338 8.65822 30.7618 8.24219 31.3264 8.24219C31.8718 8.24219 32.1778 8.51938 32.1778 9.17358V10.5113H33.0205C33.8247 10.5113 34.2194 10.9176 34.2194 11.6513C34.2194 12.385 33.8228 12.7913 33.0496 12.7913H32.1771V17.2321C32.1771 18.7566 32.4106 19.1436 33.3737 19.2931C33.8826 19.4305 34.2689 19.6873 34.2689 20.4241C34.2689 21.3006 33.8512 21.6539 32.9207 21.6539C30.2346 21.6528 29.5809 20.0073 29.5809 17.4504Z" fill="currentColor"/>
</svg>
