<svg width="24" height="24" viewBox="0 0 24 24" fill="none" xmlns="http://www.w3.org/2000/svg">
<g clip-path="url(#clip0_479_59961)">
<path d="M22.7156 15.4969L17.9437 13.4503C17.0766 13.0899 16.0594 13.339 15.4711 14.0634L13.9177 15.9605C11.4469 14.6156 9.38906 12.5578 8.04375 10.0875L9.94312 8.53172C10.6777 7.9261 10.9195 6.93047 10.545 6.05484L8.50312 1.28297C8.09531 0.341205 7.06875 -0.17517 6.075 0.0540954L1.64859 1.08094C0.678281 1.30219 0 2.15156 0 3.14625C0 14.6438 9.35625 24 20.8547 24C21.8498 24 22.702 23.3231 22.9252 22.3533L23.947 17.925C24.1734 16.9266 23.6578 15.9047 22.7156 15.4969ZM21.4641 22.0172C21.3996 22.297 21.1433 22.5005 20.8556 22.5005C10.1822 22.5005 1.50094 13.8192 1.50094 3.14578C1.50094 2.85572 1.69941 2.60766 1.98563 2.54203L6.41109 1.515C6.45797 1.50401 6.50484 1.49889 6.55097 1.49889C6.79631 1.49889 7.02487 1.64392 7.12519 1.87534L9.168 6.64253C9.27656 6.9 9.20625 7.19531 8.99063 7.37344L6.62344 9.31406C6.35625 9.53438 6.27188 9.90938 6.42656 10.2234C7.99125 13.402 10.6036 16.0125 13.7812 17.5781C14.0925 17.7334 14.4717 17.6499 14.6925 17.3804L16.6327 15.0132C16.8062 14.7993 17.1089 14.729 17.3592 14.833L22.1217 16.8749C22.3986 16.995 22.5509 17.2953 22.4835 17.5883L21.4641 22.0172Z" fill="currentColor"/>
</g>
<defs>
<clipPath id="clip0_479_59961">
<rect width="24" height="24" fill="white"/>
</clipPath>
</defs>
</svg>
