<svg width="40" height="40" viewBox="0 0 40 40" fill="none" xmlns="http://www.w3.org/2000/svg">
<circle cx="20" cy="20" r="20" fill="white" fill-opacity="0.1"/>
<path d="M20.375 12.2031C17.1688 12.2031 14 14.3406 14 17.8C14 20 15.2375 21.25 15.9875 21.25C16.2969 21.25 16.475 20.3875 16.475 20.1438C16.475 19.8531 15.7344 19.2344 15.7344 18.025C15.7344 15.5125 17.6469 13.7313 20.1219 13.7313C22.25 13.7313 23.825 14.9406 23.825 17.1625C23.825 18.8219 23.1594 21.9344 21.0031 21.9344C20.225 21.9344 19.5594 21.3719 19.5594 20.5656C19.5594 19.3844 20.3844 18.2406 20.3844 17.0219C20.3844 14.9531 17.45 15.3281 17.45 17.8281C17.45 18.3531 17.5156 18.9344 17.75 19.4125C17.3187 21.2688 16.4375 24.0344 16.4375 25.9469C16.4375 26.5375 16.5219 27.1188 16.5781 27.7094C16.6844 27.8281 16.6313 27.8156 16.7938 27.7563C18.3688 25.6 18.3125 25.1781 19.025 22.3562C19.4094 23.0875 20.4031 23.4812 21.1906 23.4812C24.5094 23.4812 26 20.2469 26 17.3313C26 14.2281 23.3188 12.2031 20.375 12.2031Z" fill="white"/>
</svg>
