<svg width="16" height="16" viewBox="0 0 16 16" fill="none" xmlns="http://www.w3.org/2000/svg">
<path d="M13.8667 2H2.13333C1.32323 2 0.666666 2.65656 0.666666 3.46667V10.8C0.666666 11.6101 1.32323 12.2667 2.13333 12.2667H13.8667C14.6768 12.2667 15.3333 11.6101 15.3333 10.8V3.46667C15.3333 2.65656 14.6756 2 13.8667 2ZM14.6 10.8C14.6 11.2043 14.2709 11.5333 13.8667 11.5333H2.13333C1.72908 11.5333 1.4 11.2043 1.4 10.8V3.46667C1.4 3.06242 1.72908 2.73333 2.13333 2.73333H13.8667C14.2709 2.73333 14.6 3.06242 14.6 3.46667V10.8ZM12.7667 13H3.23333C3.03167 13 2.86667 13.165 2.86667 13.3667C2.86667 13.5683 3.03167 13.7333 3.23333 13.7333H12.7667C12.9692 13.7333 13.1333 13.5692 13.1333 13.3667C13.1333 13.165 12.9683 13 12.7667 13Z" fill="white"/>
<path d="M6.51538 4.59966L6.51533 4.59969L6.58875 9.26976L6.51532 9.40056C6.51532 9.40056 6.51533 9.40056 6.51533 9.40056C6.72014 9.51555 6.97268 9.51103 7.17469 9.37753L10.1694 7.54726C10.3672 7.43643 10.4833 7.22388 10.4833 6.99997C10.4833 6.77353 10.3653 6.5639 10.1724 6.44514L10.172 6.44489L7.17227 4.61197L7.17224 4.61195C6.97162 4.48944 6.72044 4.48467 6.51538 4.59966ZM6.84197 5.15243L6.842 5.15245L9.84066 6.9847C9.84446 6.98715 9.8467 6.98985 9.84798 6.99213C9.84928 6.99443 9.85 6.99696 9.85 6.99997C9.85 7.00298 9.84928 7.00551 9.84798 7.00781C9.8467 7.01009 9.84446 7.01279 9.84066 7.01525L6.84223 8.84787C6.84222 8.84788 6.84221 8.84788 6.8422 8.84789C6.84149 8.84832 6.8409 8.8486 6.84046 8.84879C6.84045 8.84878 6.84044 8.84877 6.84042 8.84876L6.82494 8.83742L6.81669 8.83414C6.81667 8.83388 6.81667 8.8336 6.81667 8.8333V5.16664C6.81667 5.16072 6.81987 5.15502 6.82541 5.1519L6.75177 5.02122L6.8251 5.15207C6.83032 5.14915 6.83674 5.14923 6.84197 5.15243Z" fill="white" stroke="white" stroke-width="0.3"/>
</svg>
