<svg width="24" height="24" viewBox="0 0 24 24" fill="none" xmlns="http://www.w3.org/2000/svg">
<path d="M18.875 14.75H5.125C4.36574 14.75 3.75 15.3657 3.75 16.125V21.625C3.75 22.3843 4.36574 23 5.125 23H18.875C19.6343 23 20.25 22.3843 20.25 21.625V16.125C20.25 15.3645 19.6355 14.75 18.875 14.75ZM18.875 21.625H5.125V16.125H18.875V21.625ZM20.25 9.25V4.03488C20.25 3.67008 20.1039 3.32031 19.8461 3.0625L18.1862 1.40262C17.891 1.1448 17.5816 1 17.2164 1H6.5C4.98105 1 3.75 2.23105 3.75 3.75V9.25C2.2332 9.25 1 10.4832 1 12V16.8125C1 17.1906 1.30748 17.5 1.6875 17.5C2.06752 17.5 2.375 17.1906 2.375 16.8125V12C2.375 11.2407 2.99074 10.625 3.75 10.625H20.25C21.0093 10.625 21.625 11.2407 21.625 12V16.8125C21.625 17.1925 21.9325 17.5 22.3125 17.5C22.6925 17.5 23 17.1925 23 16.8125V12C23 10.4832 21.7668 9.25 20.25 9.25ZM18.875 9.25H5.125V3.75C5.125 2.99074 5.74074 2.375 6.5 2.375H17.2164L18.875 4.03488V9.25ZM19.5625 11.6562C18.9932 11.6562 18.5312 12.1177 18.5312 12.6875C18.5312 13.2568 18.9932 13.7188 19.5625 13.7188C20.1318 13.7188 20.5938 13.2568 20.5938 12.6875C20.5938 12.116 20.134 11.6562 19.5625 11.6562Z" fill="#C42929"/>
</svg>
