<svg width="24" height="24" viewBox="0 0 24 24" fill="none" xmlns="http://www.w3.org/2000/svg">
<path d="M15.0051 8.3579C14.9778 8.27974 14.966 8.19768 14.966 8.11562C14.9739 8.03356 14.9934 7.95149 14.9934 7.87725C15.0637 7.803 15.1106 7.73657 15.1732 7.68186L19.8155 3.48416C19.9367 3.37318 20.1008 3.31535 20.2649 3.32355C20.433 3.33176 20.5893 3.40562 20.6987 3.52871C20.7769 3.6518 20.8667 3.81398 20.8589 3.97966C20.8511 4.14535 20.7769 4.30088 20.6205 4.41225L16.0133 8.6119C15.9547 8.66661 15.8805 8.70959 15.8062 8.73695C15.728 8.7643 15.646 8.77603 15.5639 8.77212C15.4819 8.76821 15.3998 8.74867 15.3256 8.7135C15.2513 8.67833 15.1849 8.62753 15.1302 8.56501C15.0755 8.50639 15.0325 8.43605 15.0051 8.3579ZM7.3225 14.9385C7.24434 14.9385 7.13883 14.8916 7.11539 14.833L3.11425 10.7065C2.09433 9.68653 1.40305 8.38134 1.13033 6.96674C0.857489 5.55019 1.01542 4.08478 1.58359 2.75888C1.66409 2.57131 1.78952 2.40602 1.94857 2.278C2.10761 2.1499 2.29597 2.06272 2.49643 2.02409C2.69729 1.98548 2.90401 1.9966 3.0994 2.05651C3.29479 2.11637 3.47259 2.22321 3.61678 2.36768L11.5624 10.4485C11.6718 10.5619 11.7343 10.7104 11.7343 10.8667C11.7343 11.023 11.6718 11.1715 11.5624 11.2848C11.4999 11.3473 11.4295 11.3942 11.3475 11.4294C11.2693 11.4606 11.1833 11.4802 11.0974 11.4802C11.0075 11.4802 10.9215 11.4606 10.8434 11.4294C10.7613 11.3942 10.6558 11.3473 10.6284 11.2848L2.72895 3.25048C2.25689 4.3466 2.12559 5.55956 2.35263 6.73228C2.57928 7.9046 3.15372 8.97923 4.00092 9.81939L8.01807 13.9655C8.10404 14.0515 8.16266 14.1648 8.1822 14.2859C8.20565 14.4071 8.19001 14.5321 8.14312 14.6455C8.09623 14.7588 8.01417 14.8526 7.91256 14.9229C7.80706 14.9893 7.68592 15.0245 7.52961 15.0245C7.48271 15.0245 7.39674 15.005 7.3225 14.9385ZM16.9394 10.3782C16.8808 10.2883 16.83 10.2571 16.7949 10.1828C16.7597 10.1086 16.7402 10.0265 16.7362 9.94444C16.7323 9.86238 16.7441 9.78032 16.7714 9.70216C16.7988 9.62791 16.8418 9.55367 16.8965 9.49505L21.0973 4.85343C21.152 4.79286 21.2184 4.74324 21.2966 4.70807C21.3708 4.6729 21.449 4.65258 21.531 4.64867C21.6131 4.64437 21.6952 4.65688 21.7733 4.68423C21.8515 4.71197 21.9218 4.75457 21.9492 4.80967C22.043 4.86516 22.0938 4.93159 22.1289 5.00584C22.1641 5.08008 22.1836 5.16058 22.1875 5.24265C22.1915 5.32471 22.1446 5.40716 22.1524 5.48453C22.125 5.56191 22.082 5.63303 22.0273 5.69399L17.8265 10.3352C17.7718 10.3938 17.7054 10.4446 17.6311 10.4798C17.5569 10.515 17.4748 10.5345 17.3927 10.5384C17.3107 10.5423 17.2286 10.5306 17.1544 10.5032C17.0762 10.4759 17.0059 10.4329 16.9082 10.3782H16.9394ZM23.2465 6.22818C23.3833 6.32587 23.4732 6.47046 23.5005 6.63068C23.5279 6.7948 23.4888 6.92766 23.395 7.0957L20.1321 11.6287C19.8585 12.0703 19.4912 12.4454 19.0184 12.7228C18.6159 13.0042 18.1196 13.1761 17.6038 13.2348C17.4787 13.2465 17.3537 13.2543 17.2286 13.2543C16.2712 13.2504 15.3529 12.8792 14.6691 12.2109L14.4268 11.9687L4.57496 21.8201C4.45695 21.9334 4.29908 21.9959 4.13495 21.9959C3.97122 21.9959 3.81413 21.8943 3.69846 21.8123C3.5824 21.695 3.51675 21.5387 3.51518 21.3746C3.51401 21.2105 3.57693 21.0542 3.69064 20.9369L13.5436 11.0855L13.3052 10.8471C12.9301 10.4603 12.6097 9.99915 12.469 9.49114C12.2892 8.98314 12.2267 8.44387 12.2814 7.90851C12.34 7.38878 12.5159 6.88859 12.766 6.44701C13.0825 6.00544 13.4616 5.63381 13.907 5.36144L18.4088 2.11755C18.5104 2.02072 18.7097 1.98139 18.8738 2.00825C19.0379 2.0351 19.1864 2.12591 19.2841 2.26073C19.3779 2.39546 19.417 2.5635 19.3935 2.72723C19.331 2.89097 19.2724 3.03751 19.1395 3.13403L14.6065 6.39621C14.3056 6.56424 14.0555 6.80262 13.8641 7.09179C13.6765 7.37705 13.5553 7.7014 13.5163 8.04528C13.4811 8.39307 13.5202 8.74476 13.6374 9.07692C13.7507 9.40908 13.9383 9.70998 14.1806 9.96398L14.8332 10.6166C14.8449 10.6244 14.8566 10.6322 14.8683 10.64C14.8762 10.6478 14.8801 10.6596 14.8879 10.6713L15.5444 11.3278C15.7984 11.5388 16.0993 11.7615 16.4314 11.8749C16.7636 11.9882 17.1192 12.0273 17.467 11.9882C17.7679 11.953 18.1235 11.8358 18.4049 11.6521C18.6862 11.4685 18.9246 11.2223 19.0926 10.9331L22.3751 6.36886C22.422 6.30243 22.4845 6.24772 22.5549 6.20473C22.6252 6.15784 22.7034 6.13049 22.7815 6.11876C22.8636 6.10313 22.9496 6.10704 23.0277 6.12658C23.1098 6.14612 23.184 6.14612 23.2505 6.22818H23.2465ZM22.0703 20.9408C22.1836 21.062 22.2462 21.2183 22.2462 21.3472C22.2423 21.5465 22.1758 21.7028 22.0273 21.8201C21.9453 21.9334 21.7538 21.9998 21.6248 21.9998C21.4607 22.0037 21.3044 21.9412 21.1833 21.8279L14.3056 14.9503C14.1923 14.8291 14.1298 14.6728 14.1337 14.5087C14.1337 14.3446 14.2001 14.1883 14.3134 14.071C14.4307 13.9225 14.587 13.8913 14.7511 13.8874C14.9152 13.8874 15.0715 13.9499 15.1927 14.0632L22.0703 20.9408Z" fill="currentColor"/>
</svg>
