<svg width="24" height="24" viewBox="0 0 24 24" fill="currentColor" xmlns="http://www.w3.org/2000/svg">
<path d="M11.9613 5.31375L12.477 4.79899C13.9164 3.39606 15.9102 2.75754 17.8695 3.08367C20.8301 3.57695 23 6.13875 23 9.14227V9.39149C23 11.1747 22.2609 12.8805 20.9547 14.0966L13.1902 21.3454C12.868 21.6462 12.4426 21.8138 12 21.8138C11.5574 21.8138 11.132 21.6462 10.8098 21.3454L3.04488 14.0966C1.74035 12.8805 1 11.1747 1 9.39149V9.14227C1 6.13875 3.17078 3.57695 6.13047 3.08367C8.05117 2.75754 10.0836 3.39606 11.4844 4.79899L11.9613 5.31375ZM11.9613 7.26024L10.5133 5.76922C9.42617 4.68254 7.875 4.18668 6.3582 4.43977C4.0598 4.82305 2.33633 6.81336 2.33633 9.14227V9.39149C2.33633 10.7966 2.95723 12.1329 3.98289 13.0911L11.7465 20.3399C11.8152 20.4044 11.9055 20.4388 11.9613 20.4388C12.0945 20.4388 12.1848 20.4044 12.2535 20.3399L20.018 13.0911C21.0406 12.1329 21.625 10.7966 21.625 9.39149V9.14227C21.625 6.81336 19.9406 4.82305 17.6418 4.43977C16.0863 4.18668 14.5738 4.68254 13.4867 5.76922L11.9613 7.26024Z" />
</svg>
