<svg width="24" height="24" viewBox="0 0 24 24" xmlns="http://www.w3.org/2000/svg">
<path fill="currentColor" d="M21.8164 20.9336L16.2891 15.4062C17.5078 13.9844 18.2149 12.1445 18.2149 10.125C18.2149 5.63672 14.577 2 10.0899 2C5.60274 2 2 5.63789 2 10.125C2 14.6121 5.63751 18.25 10.0899 18.25C12.1086 18.25 13.9512 17.5094 15.3711 16.291L20.8984 21.8184C21.0547 21.9375 21.2149 22 21.375 22C21.5352 22 21.6949 21.939 21.8168 21.8169C22.0625 21.5742 22.0625 21.1758 21.8164 20.9336ZM10.125 17C6.30079 17 3.25001 13.9141 3.25001 10.125C3.25001 6.33594 6.30079 3.25 10.125 3.25C13.9492 3.25 17 6.30078 17 10.125C17 13.9492 13.9141 17 10.125 17Z" />
</svg>