<svg width="24" height="24" viewBox="0 0 24 24" fill="none" xmlns="http://www.w3.org/2000/svg">
<path d="M8.57895 11.9613C8.57895 9.91172 10.2719 8.18008 12.3602 8.18008C14.4485 8.18008 16.1414 9.91172 16.1414 11.9613C16.1414 14.0883 14.4485 15.7812 12.3602 15.7812C10.2719 15.7812 8.57895 14.0883 8.57895 11.9613ZM12.3602 9.55508C11.0325 9.55508 9.95395 10.6723 9.95395 11.9613C9.95395 13.3277 11.0325 14.3676 12.3602 14.3676C13.6879 14.3676 14.7664 13.3277 14.7664 11.9613C14.7664 10.6723 13.6879 9.55508 12.3602 9.55508ZM4.18195 10.9086L2.44903 9.32734C1.97121 8.89336 1.86121 8.18437 2.18434 7.62578L3.48371 5.37422C3.80684 4.81477 4.47586 4.55566 5.0916 4.75203L7.32426 5.46445C7.90004 5.02016 8.53598 4.65062 9.21488 4.37004L9.71762 2.08109C9.85512 1.44988 10.4137 1 11.0625 1H13.6579C14.3067 1 14.8653 1.44988 15.0028 2.08109L15.5055 4.37004C16.1457 4.65062 16.8204 5.02016 17.3961 5.46445L19.6305 4.75203C20.245 4.55566 20.9153 4.81477 21.2375 5.37422L22.5352 7.62578C22.8575 8.18437 22.75 8.89336 22.2731 9.32734L20.5371 10.9086C20.5844 11.2652 20.6102 11.6305 20.6102 11.9613C20.6102 12.3695 20.5844 12.7348 20.5371 13.0914L22.2731 14.6727C22.75 15.1066 22.8575 15.8156 22.5352 16.3742L21.2375 18.6258C20.9153 19.1844 20.245 19.4422 19.6305 19.2488L17.3961 18.5355C16.8204 18.9781 16.1457 19.3477 15.5055 19.6313L15.0028 21.9172C14.8653 22.5488 14.3067 23 13.6579 23H11.0625C10.4137 23 9.85512 22.5488 9.71762 21.9172L9.21488 19.6313C8.53598 19.3477 7.90004 18.9781 7.32426 18.5355L5.0916 19.2488C4.47586 19.4422 3.80684 19.1844 3.48371 18.6258L2.18434 16.3742C1.86121 15.8156 1.97121 15.1066 2.44903 14.6727L4.18195 13.0914C4.13469 12.7348 4.1102 12.3695 4.1102 11.9613C4.1102 11.6305 4.13469 11.2652 4.18195 10.9086ZM8.16645 6.55156L7.59496 6.99414L4.67438 6.06172L3.375 8.31328L5.63903 10.3758L5.54492 11.0891C5.50539 11.3855 5.4852 11.6906 5.4852 11.9613C5.4852 12.3094 5.50539 12.6145 5.54492 12.9109L5.63903 13.6242L3.375 15.6867L4.67438 17.9383L7.59496 17.0059L8.16645 17.4484C8.6434 17.818 9.17621 18.1273 9.7391 18.3207L10.4051 18.6344L11.0625 21.625H13.6579L14.3153 18.6344L14.9426 18.3207C15.5442 18.1273 16.077 17.818 16.5539 17.4484L17.1254 17.0059L20.0473 17.9383L21.345 15.6867L19.0805 13.6242L19.175 12.9109C19.2137 12.6145 19.2352 12.3094 19.2352 12C19.2352 11.6906 19.2137 11.3855 19.175 11.0891L19.0805 10.3758L21.345 8.31328L20.0473 6.06172L17.1254 6.99414L16.5539 6.55156C16.077 6.18203 15.5442 5.87266 14.9426 5.64062L14.3153 5.36562L13.6579 2.375H11.0625L10.4051 5.36562L9.7391 5.64062C9.17621 5.87266 8.6434 6.18203 8.16645 6.55156Z" fill="currentColor"/>
</svg>
