<svg width="24" height="24" viewBox="0 0 24 24" fill="none" xmlns="http://www.w3.org/2000/svg">
<path d="M11.1395 1.20144L4.95195 7.38894C4.6834 7.65749 4.6834 8.09277 4.95195 8.36089C5.22051 8.62902 5.65578 8.62945 5.92391 8.36089L10.9375 3.34738V15.4375C10.9375 15.8175 11.245 16.125 11.625 16.125C12.005 16.125 12.3125 15.8175 12.3125 15.4375V3.34738L17.327 8.36184C17.5955 8.63039 18.0308 8.63039 18.2989 8.36184C18.567 8.09328 18.5675 7.65801 18.2989 7.38988L12.1114 1.20238C11.9773 1.06712 11.8012 1 11.625 1C11.4488 1 11.2727 1.06712 11.1395 1.20144ZM19.875 15.4375V19.5625C19.875 20.6999 18.9499 21.625 17.8125 21.625H5.4375C4.30012 21.625 3.375 20.7012 3.375 19.5625V15.4375C3.375 15.0594 3.06734 14.75 2.6875 14.75C2.30766 14.75 2 15.0594 2 15.4375V19.5625C2 21.4574 3.54172 23 5.4375 23H17.8125C19.7087 23 21.25 21.4583 21.25 19.5625V15.4375C21.25 15.0575 20.9425 14.75 20.5625 14.75C20.1825 14.75 19.875 15.0594 19.875 15.4375Z" fill="currentColor"/>
</svg>
