<svg width="25" height="24" viewBox="0 0 25 24" fill="none" xmlns="http://www.w3.org/2000/svg">
<path d="M14.2188 7.50087C14.7902 7.50087 15.25 7.0411 15.25 6.46962V6.12587V5.43837V3.37587L22.125 9.56337L15.25 15.7509V13.6884V13.0009V12.6571C15.25 12.0856 14.7902 11.6259 14.2188 11.6259H13.875H9.75C6.71211 11.6259 4.25 14.088 4.25 17.1259C4.25 17.4825 4.28008 17.8177 4.33594 18.1227C3.5582 17.113 2.875 15.6692 2.875 13.6884C2.875 10.2724 5.64648 7.50087 9.0625 7.50087H13.875H14.2188ZM13.875 13.6884V14.3759V15.7509C13.875 16.2923 14.193 16.7864 14.6914 17.0056C15.1898 17.2247 15.7656 17.1345 16.1695 16.7735L23.0445 10.586C23.3324 10.3239 23.5 9.95438 23.5 9.56337C23.5 9.17235 23.3367 8.80282 23.0445 8.54071L16.1695 2.35321C15.7656 1.98798 15.1855 1.89774 14.6914 2.12118C14.1973 2.34462 13.875 2.83446 13.875 3.37587V4.75087V5.43837V6.12587H12.5H9.0625C4.88594 6.12587 1.5 9.5118 1.5 13.6884C1.5 18.5567 5.00195 20.7309 5.80547 21.1692C5.91289 21.2294 6.0332 21.2509 6.15352 21.2509C6.62188 21.2509 7 20.8684 7 20.4044C7 20.0821 6.81523 19.7856 6.57891 19.5665C6.175 19.1841 5.625 18.4321 5.625 17.1259C5.625 14.8485 7.47266 13.0009 9.75 13.0009H12.5H13.875V13.6884Z" fill="#C42929"/>
</svg>
