<svg width="24" height="24" viewBox="0 0 24 24" fill="none" xmlns="http://www.w3.org/2000/svg">
<g clip-path="url(#clip0_61_528)">
<path d="M17.7961 10.3638C17.602 10.2223 17.4281 10.0645 17.2704 9.88658C17.1126 10.0605 16.9387 10.2182 16.7486 10.3598C16.1622 10.7966 15.4302 11.0595 14.6334 11.0595C13.8407 11.0595 13.1168 10.8006 12.5303 10.3355C12.3362 10.2263 12.1583 10.0645 11.9965 9.88658C11.8347 10.0645 11.6567 10.2263 11.4626 10.3355C10.8762 10.8006 10.1522 11.0595 9.35953 11.0595C8.57087 11.0595 7.84288 10.8006 7.25644 10.3355C7.06231 10.2263 6.88436 10.0645 6.72663 9.88658C6.56485 10.0645 6.38285 10.2263 6.18872 10.3355C5.60633 10.8006 4.84598 11.0595 4.08806 11.0595C3.92386 11.0595 3.75844 11.0473 3.59788 11.0271C1.36052 10.7278 0.301896 8.09087 1.49843 6.19809L3.81709 2.53103C4.02335 2.20137 4.39179 2 4.78531 2H19.2157C19.608 2 19.9761 2.20133 20.1823 2.53103L22.4998 6.19809C23.701 8.09491 22.6373 10.7278 20.3927 11.0271C20.2349 11.0473 20.0731 11.0595 19.9033 11.0595C19.1106 11.0595 18.3826 10.7966 17.7961 10.3638ZM19.1348 3.29421H4.8662L2.59244 6.88968C1.83735 8.08682 2.58112 9.58325 3.76774 9.74502C3.87573 9.75716 3.98452 9.76525 4.08806 9.76525C4.72465 9.76525 5.35153 9.47405 5.76406 9.02108C6.01077 8.7501 6.35859 8.59237 6.72663 8.59237C7.09062 8.59237 7.43844 8.7501 7.68515 9.02108C8.09768 9.47405 8.6922 9.76525 9.35953 9.76525C10.0309 9.76525 10.589 9.47405 11.038 9.02108C11.2806 8.7501 11.6325 8.59237 11.9965 8.59237C12.3281 8.59237 12.7123 8.7501 12.955 9.02108C13.3675 9.47405 13.9621 9.72885 14.6334 9.72885C15.3048 9.72885 15.8953 9.47405 16.3078 9.02108C16.5545 8.7501 16.9023 8.59237 17.2663 8.59237C17.6303 8.59237 17.9822 8.74606 18.2249 9.01703C18.6414 9.47405 19.2036 9.72885 19.9033 9.72885C20.0125 9.72885 20.1176 9.75716 20.2268 9.74502C21.4199 9.58325 22.1641 8.08682 21.4078 6.88968L19.1348 3.29421ZM4.23528 13.0008V16.2363H19.7658V13.0008C19.7658 12.6449 20.057 12.3537 20.4129 12.3537C20.7688 12.3537 21.06 12.6449 21.06 13.0008V20.1189C21.06 21.5466 19.8992 22.7073 18.4716 22.7073H5.52948C4.09979 22.7073 2.94107 21.5466 2.94107 20.1189V13.0008C2.94107 12.6449 3.23065 12.3537 3.58817 12.3537C3.9457 12.3537 4.23528 12.6449 4.23528 13.0008ZM4.23528 20.1189C4.23528 20.8348 4.81363 21.4131 5.52948 21.4131H18.4716C19.1874 21.4131 19.7658 20.8348 19.7658 20.1189V17.5305H4.23528V20.1189Z" fill="currentColor"/>
</g>
<defs>
<clipPath id="clip0_61_528">
<rect width="24" height="24" fill="currentColor"/>
</clipPath>
</defs>
</svg>
