<svg width="24" height="24" viewBox="0 0 24 24" fill="currentColor" xmlns="http://www.w3.org/2000/svg">
<path d="M12.25 0.9C10.635 0.9 9.30204 2.09615 9.0852 3.65H8.8125C7.89582 3.65 7.11193 4.22201 6.79664 5.025H6.75C5.17797 5.025 3.9 6.30297 3.9 7.875V20.25C3.9 21.822 5.17797 23.1 6.75 23.1H17.75C19.322 23.1 20.6 21.822 20.6 20.25V7.875C20.6 6.30297 19.322 5.025 17.75 5.025H17.7034C17.3881 4.22201 16.6042 3.65 15.6875 3.65H15.4148C15.198 2.09615 13.865 0.9 12.25 0.9ZM4.7875 7.875C4.7875 6.82509 5.61298 5.96711 6.65 5.91501V6.5C6.65 7.31577 7.30922 7.975 8.125 7.975H16.375C17.1908 7.975 17.85 7.31578 17.85 6.5V5.91501C18.887 5.96711 19.7125 6.82509 19.7125 7.875V20.25C19.7125 21.3334 18.8334 22.2125 17.75 22.2125H6.75C5.66656 22.2125 4.7875 21.3334 4.7875 20.25V7.875ZM9.94375 4.09375C9.94375 2.82124 10.9775 1.7875 12.25 1.7875C13.5225 1.7875 14.5562 2.82124 14.5562 4.09375C14.5562 4.33804 14.7557 4.5375 15 4.5375H15.6875C16.3928 4.5375 16.9625 5.10718 16.9625 5.8125V6.5C16.9625 6.8229 16.6979 7.0875 16.375 7.0875H8.125C7.8021 7.0875 7.5375 6.8229 7.5375 6.5V5.8125C7.5375 5.10718 8.10718 4.5375 8.8125 4.5375H9.5C9.74429 4.5375 9.94375 4.33804 9.94375 4.09375ZM11.6932 3.88065C11.5455 4.02834 11.4625 4.22864 11.4625 4.4375C11.4625 4.64636 11.5455 4.84666 11.6932 4.99435C11.8408 5.14203 12.0411 5.225 12.25 5.225C12.4589 5.225 12.6592 5.14203 12.8068 4.99435C12.9545 4.84666 13.0375 4.64636 13.0375 4.4375C13.0375 4.22864 12.9545 4.02834 12.8068 3.88065C12.6592 3.73297 12.4589 3.65 12.25 3.65C12.0411 3.65 11.8408 3.73297 11.6932 3.88065ZM11.2188 10.1812C10.9745 10.1812 10.775 10.3807 10.775 10.625C10.775 10.8693 10.9745 11.0688 11.2188 11.0688H17.4062C17.6505 11.0688 17.85 10.8693 17.85 10.625C17.85 10.3807 17.6505 10.1812 17.4062 10.1812H11.2188ZM11.2188 14.3062C10.9745 14.3062 10.775 14.5057 10.775 14.75C10.775 14.9943 10.9745 15.1938 11.2188 15.1938H17.4062C17.6505 15.1938 17.85 14.9943 17.85 14.75C17.85 14.5057 17.6505 14.3062 17.4062 14.3062H11.2188ZM11.2188 18.4312C10.9745 18.4312 10.775 18.6307 10.775 18.875C10.775 19.1193 10.9745 19.3188 11.2188 19.3188H17.4062C17.6505 19.3188 17.85 19.1193 17.85 18.875C17.85 18.6307 17.6505 18.4312 17.4062 18.4312H11.2188ZM8.68185 18.3182C8.53416 18.1705 8.33386 18.0875 8.125 18.0875C7.91614 18.0875 7.71584 18.1705 7.56815 18.3182C7.42047 18.4658 7.3375 18.6661 7.3375 18.875C7.3375 19.0839 7.42047 19.2842 7.56815 19.4318C7.71584 19.5795 7.91614 19.6625 8.125 19.6625C8.33386 19.6625 8.53416 19.5795 8.68185 19.4318C8.82953 19.2842 8.9125 19.0839 8.9125 18.875C8.9125 18.6661 8.82953 18.4658 8.68185 18.3182ZM7.56815 14.1932C7.42047 14.3408 7.3375 14.5411 7.3375 14.75C7.3375 14.9589 7.42047 15.1592 7.56815 15.3068C7.71584 15.4545 7.91614 15.5375 8.125 15.5375C8.33386 15.5375 8.53416 15.4545 8.68185 15.3068C8.82953 15.1592 8.9125 14.9589 8.9125 14.75C8.9125 14.5411 8.82953 14.3408 8.68185 14.1932C8.53416 14.0455 8.33386 13.9625 8.125 13.9625C7.91614 13.9625 7.71584 14.0455 7.56815 14.1932ZM8.68185 10.0682C8.53416 9.92047 8.33386 9.8375 8.125 9.8375C7.91614 9.8375 7.71584 9.92047 7.56815 10.0682C7.42047 10.2158 7.3375 10.4161 7.3375 10.625C7.3375 10.8339 7.42047 11.0342 7.56815 11.1818C7.71584 11.3295 7.91614 11.4125 8.125 11.4125C8.33386 11.4125 8.53416 11.3295 8.68185 11.1818C8.82953 11.0342 8.9125 10.8339 8.9125 10.625C8.9125 10.4161 8.82953 10.2158 8.68185 10.0682Z" stroke-width="0.2"/>
</svg>
