<svg width="40" height="40" viewBox="0 0 40 40" fill="none" xmlns="http://www.w3.org/2000/svg">
<circle cx="20" cy="20" r="20" fill="white" fill-opacity="0.1"/>
<g clip-path="url(#clip0_792_21367)">
<path d="M27.964 24.2709C27.8012 24.6508 27.1128 24.93 25.859 25.1246C25.7945 25.2117 25.741 25.5836 25.6557 25.8733C25.6049 26.0472 25.4799 26.1504 25.2767 26.1504L25.2674 26.1503C24.9738 26.1503 24.6673 26.0152 24.0533 26.0152C23.2245 26.0152 22.9388 26.204 22.2953 26.6585C21.6131 27.141 20.9587 27.5574 19.982 27.5148C18.993 27.5877 18.1687 26.9864 17.7048 26.6584C17.0574 26.2008 16.7726 26.0152 15.9472 26.0152C15.3577 26.0152 14.9867 26.1627 14.7331 26.1627C14.4808 26.1627 14.3827 26.0089 14.3449 25.8802C14.2604 25.593 14.2073 25.2157 14.1411 25.1261C13.4948 25.0258 12.0376 24.7716 12.0005 24.1214C11.996 24.0397 12.0218 23.9592 12.073 23.8954C12.1242 23.8316 12.1972 23.7889 12.2779 23.7755C14.4524 23.4176 15.4318 21.1849 15.4725 21.0901C15.4748 21.0846 15.4773 21.0793 15.4799 21.074C15.5959 20.8385 15.6219 20.6412 15.5569 20.488C15.3991 20.1162 14.7171 19.9828 14.4302 19.8693C13.6891 19.5767 13.586 19.2403 13.6298 19.0098C13.706 18.6087 14.3088 18.3619 14.6612 18.5269C14.9399 18.6576 15.1875 18.7237 15.397 18.7237C15.5539 18.7237 15.6536 18.6861 15.7083 18.6559C15.6444 17.5329 15.4863 15.9281 15.886 15.0318C16.9414 12.6657 19.1783 12.4818 19.8384 12.4818C19.8679 12.4818 20.124 12.479 20.1543 12.479C21.7839 12.479 23.3498 13.3159 24.1144 15.0303C24.5137 15.9257 24.3566 17.5238 24.2924 18.6556C24.3418 18.6829 24.4285 18.7163 24.5611 18.7225C24.761 18.7135 24.9928 18.6478 25.2508 18.5269C25.4409 18.438 25.7009 18.45 25.8908 18.5288L25.8917 18.5291C26.1878 18.6348 26.3741 18.8483 26.3788 19.0875C26.3846 19.3921 26.1125 19.6552 25.5701 19.8693C25.5039 19.8954 25.4234 19.921 25.3378 19.9482C25.0317 20.0453 24.5691 20.1921 24.4436 20.4879C24.3786 20.6412 24.4043 20.8383 24.5204 21.0738C24.5232 21.0791 24.5256 21.0845 24.5279 21.0899C24.5686 21.1846 25.5471 23.4168 27.7226 23.7753C27.9234 23.8084 28.0714 24.0215 27.964 24.2709Z" fill="white"/>
</g>
<defs>
<clipPath id="clip0_792_21367">
<rect width="16" height="16" fill="white" transform="translate(12 12)"/>
</clipPath>
</defs>
</svg>
