<svg width="12" height="12" viewBox="0 0 12 12" fill="none" xmlns="http://www.w3.org/2000/svg">
<g clip-path="url(#clip0_76_654)">
<path d="M5.39766 0.439922C5.48203 0.177938 5.72578 0 6 0C6.27422 0 6.51797 0.177938 6.60234 0.439922L7.77422 4.125H11.3766C11.7211 4.125 12 4.40391 12 4.74844C12 4.94766 11.9039 5.13516 11.7211 5.25234L8.68594 7.46016L9.87656 11.3719C9.97266 11.6859 9.73828 12 9.4125 12C9.30469 12 9.19922 11.9648 9.11484 11.8969L6 9.47578L2.88516 11.8969C2.80078 11.9648 2.67422 12 2.5875 12C2.26078 12 2.02734 11.6859 2.12227 11.3719L3.31406 7.46016L0.258281 5.25234C0.0960938 5.13516 0 4.94766 0 4.74844C0 4.40391 0.278906 4.125 0.623203 4.125H4.22578L5.39766 0.439922Z" fill="currentColor"/>
</g>
<defs>
<clipPath id="clip0_76_654">
<rect width="12" height="12" fill="currentColor"/>
</clipPath>
</defs>
</svg>
