<svg width="20" height="22" viewBox="0 0 20 22" fill="none" xmlns="http://www.w3.org/2000/svg">
<path d="M18.5625 2.75C18.9406 2.75 19.25 3.05766 19.25 3.4375C19.25 3.81734 18.9406 4.125 18.5625 4.125H17.7762L16.6805 19.4477C16.5816 20.8871 15.3441 22 13.9391 22H5.31094C3.86762 22 2.67051 20.8871 2.56738 19.4477L1.4734 4.125H0.6875C0.307828 4.125 0 3.81734 0 3.4375C0 3.05766 0.307828 2.75 0.6875 2.75H4.77383L5.88672 0.969375C6.26484 0.366352 6.92656 0 7.63555 0H11.6145C12.3234 0 12.9852 0.366352 13.3246 0.969375L14.4762 2.75H18.5625ZM7.63555 1.375C7.39922 1.375 7.18008 1.49703 7.05547 1.69813L6.39805 2.75H12.852L12.1945 1.69813C12.0699 1.49703 11.8508 1.375 11.6145 1.375H7.63555ZM16.3969 4.125H2.85184L3.93895 19.3488C3.99051 20.0664 4.58906 20.625 5.31094 20.625H13.9391C14.6609 20.625 15.2582 20.0664 15.3098 19.3488L16.3969 4.125Z" />
</svg>
