<svg width="40" height="40" viewBox="0 0 40 40" fill="none" xmlns="http://www.w3.org/2000/svg">
<circle cx="20" cy="20" r="20" fill="white" fill-opacity="0.1"/>
<path d="M26.5485 16.4946C26.5485 16.646 26.5485 16.8024 26.5485 16.9538C26.5485 21.6212 22.9963 27 16.4399 27C14.5108 27.0051 12.6215 26.4548 11 25.4156C11.2846 25.4487 11.5711 25.4639 11.8576 25.461C13.4566 25.462 15.0096 24.9289 16.2674 23.9473C15.5251 23.9351 14.8054 23.692 14.2092 23.2522C13.613 22.8124 13.1704 22.1979 12.9436 21.495C13.165 21.5312 13.389 21.5498 13.6134 21.5505C13.9303 21.5513 14.246 21.5106 14.5522 21.4294C13.7471 21.2685 13.023 20.8351 12.5031 20.2031C11.9831 19.5711 11.6994 18.7795 11.7003 17.963V17.9226C12.1941 18.1947 12.7449 18.3485 13.3089 18.3717C12.8217 18.049 12.4222 17.6117 12.146 17.0984C11.8697 16.5852 11.7253 16.0121 11.7257 15.43C11.7224 14.804 11.8889 14.1887 12.2077 13.6488C13.1007 14.7407 14.2144 15.6337 15.4768 16.27C16.7391 16.9063 18.1219 17.2716 19.5354 17.3423C19.4786 17.0769 19.4497 16.8064 19.4492 16.535C19.4486 15.8263 19.6624 15.1338 20.0629 14.5475C20.4634 13.9612 21.032 13.5083 21.6948 13.2476C22.3576 12.9869 23.0839 12.9305 23.7794 13.0858C24.4749 13.241 25.1073 13.6007 25.5944 14.1181C26.3888 13.9635 27.1509 13.6751 27.8475 13.2653C27.582 14.0791 27.0284 14.7694 26.2896 15.208C26.9897 15.1274 27.6738 14.9438 28.3195 14.663C27.8316 15.3658 27.2297 15.9831 26.5383 16.4896L26.5485 16.4946Z" fill="white"/>
</svg>
