<svg width="32" height="32" viewBox="0 0 32 32" fill="none" xmlns="http://www.w3.org/2000/svg">
<circle cx="16" cy="16" r="15.5" stroke="currentColor"/>
<g clip-path="url(#clip0_2705_32896)">
<circle cx="16" cy="16" r="11.5" stroke="currentColor"/>
<path d="M21.0721 22.7635C21.6125 22.7643 22.05 22.3267 22.05 21.7848C22.05 19.1938 19.949 17.0929 17.358 17.0929H14.642C12.0512 17.0929 9.95 19.1938 9.95 21.7848C9.95 22.3251 10.3881 22.7635 10.9284 22.7635H21.0721ZM21.0721 22.7635L21.0721 22.7135V22.7635H21.0721ZM16 15.9071C17.9214 15.9071 19.4786 14.3497 19.4786 12.4286C19.4786 10.5075 17.9214 8.95 16 8.95C14.0786 8.95 12.5214 10.5075 12.5214 12.4286C12.5214 14.3497 14.0786 15.9071 16 15.9071ZM16 9.90714C17.3904 9.90714 18.5214 11.0382 18.5214 12.4286C18.5214 13.8187 17.3904 14.95 16 14.95C14.6096 14.95 13.4786 13.8179 13.4786 12.4286C13.4786 11.0382 14.6106 9.90714 16 9.90714ZM21.0705 21.8071H10.9284C10.9174 21.8071 10.9071 21.7979 10.9071 21.7848C10.9071 19.7258 12.583 18.05 14.642 18.05H17.3554C19.4171 18.05 21.0929 19.7259 21.0929 21.7848C21.0929 21.7974 21.0831 21.8071 21.0705 21.8071Z" fill="currentColor" stroke="currentColor" stroke-width="0.1"/>
</g>
<defs>
<clipPath id="clip0_2705_32896">
<rect width="24" height="24" fill="currentColor" transform="translate(4 4)"/>
</clipPath>
</defs>
</svg>
