<svg width="24" height="24" viewBox="0 0 24 24" fill="none" xmlns="http://www.w3.org/2000/svg">
<g clip-path="url(#clip0_74_555)">
<circle cx="12" cy="12" r="11.5" stroke="currentColor"/>
<path d="M17.0721 18.7635C17.6125 18.7643 18.05 18.3267 18.05 17.7848C18.05 15.1938 15.949 13.0929 13.358 13.0929H10.642C8.05123 13.0929 5.95 15.1938 5.95 17.7848C5.95 18.3251 6.38808 18.7635 6.92839 18.7635H17.0721ZM17.0721 18.7635L17.0721 18.7135V18.7635H17.0721ZM12 11.9071C13.9214 11.9071 15.4786 10.3497 15.4786 8.42857C15.4786 6.50748 13.9214 4.95 12 4.95C10.0786 4.95 8.52143 6.50748 8.52143 8.42857C8.52143 10.3497 10.0786 11.9071 12 11.9071ZM12 5.90714C13.3904 5.90714 14.5214 7.03815 14.5214 8.42857C14.5214 9.81873 13.3904 10.95 12 10.95C10.6096 10.95 9.47857 9.81794 9.47857 8.42857C9.47857 7.03816 10.6106 5.90714 12 5.90714ZM17.0705 17.8071H6.92839C6.91738 17.8071 6.90714 17.7979 6.90714 17.7848C6.90714 15.7258 8.58297 14.05 10.642 14.05H13.3554C15.4171 14.05 17.0929 15.7259 17.0929 17.7848C17.0929 17.7974 17.0831 17.8071 17.0705 17.8071Z" fill="currentColor" stroke="currentColor" stroke-width="0.1"/>
</g>
<defs>
<clipPath id="clip0_74_555">
<rect width="24" height="24" fill="white"/>
</clipPath>
</defs>
</svg>