<svg width="28" height="28" viewBox="0 0 28 28" fill="none" xmlns="http://www.w3.org/2000/svg">
<path d="M6 6.5L5 10.5L3 12.5L2.5 15L5 18V20.5L6.5 22.5L10 23L12 25H15.5L17.5 23.5L21.5 22.5L23 20.5V18L24.5 16.5L25 13L23 10V7L20 5L17.5 4.5L15 3L12.5 3.5L8.5 5L6 6.5Z" fill="white"/>
<path d="M23.0145 4.9842C21.7571 3.72474 20.0549 3.17754 18.4154 3.33634C17.3669 2.06218 15.7726 1.25 13.9578 1.25C12.2279 1.25 10.6026 2.05612 9.5759 3.3355C7.93876 3.17944 6.24005 3.72718 4.98405 4.98467L5.51459 5.51459L4.98467 4.98405C3.72718 6.24005 3.17944 7.93876 3.3355 9.5759C2.05612 10.6026 1.25 12.2279 1.25 13.9578C1.25 15.7726 2.06218 17.3669 3.33634 18.4154C3.17754 20.0549 3.72476 21.7572 4.98429 23.0146C6.24117 24.275 7.9401 24.8195 9.57585 24.6653C10.6043 25.945 12.2343 26.75 14 26.75C15.7795 26.75 17.3692 25.9346 18.4155 24.6645C20.0538 24.8213 21.7564 24.2773 23.0147 23.0147C24.2773 21.7564 24.8213 20.0538 24.6645 18.4155C25.9368 17.3671 26.75 15.773 26.75 13.9578C26.75 12.2275 25.9428 10.6023 24.6653 9.57584C24.8195 7.94005 24.275 6.24108 23.0145 4.9842Z" fill="#69B9E7" stroke="white" stroke-width="1.5"/>
<g filter="url(#filter0_d_2202_1466)">
<path d="M13.9992 17.9092L10.8666 19.5732C10.7029 19.6709 10.4801 19.655 10.3096 19.5346C10.1414 19.4141 10.0573 19.2049 10.071 19.0003L10.687 15.4654L8.16164 12.9603C8.01478 12.8171 7.96273 12.6011 8.02729 12.4033C8.09162 12.2078 8.26143 12.0646 8.4658 12.035L11.9487 11.519L13.5081 8.30735C13.6013 8.11932 13.79 8 13.9992 8C14.2083 8 14.3993 8.11935 14.4902 8.30735L16.0496 11.519L19.5346 12.035C19.7392 12.0646 19.9074 12.2078 19.9733 12.4033C20.037 12.6011 19.9847 12.8171 19.8392 12.9603L17.3113 15.4654L17.9092 19.0003C17.9433 19.2049 17.8592 19.4141 17.6887 19.5346C17.5204 19.655 17.2772 19.6709 17.1135 19.5732L13.9992 17.9092Z" fill="white"/>
<path d="M10.2231 19.6571L10.2223 19.6565C10.0062 19.5017 9.90469 19.2393 9.92129 18.9904L9.92182 18.9824L9.92318 18.9746L10.5258 15.5168L8.05691 13.0677C8.05675 13.0675 8.05659 13.0673 8.05643 13.0672C7.86826 12.8833 7.8028 12.6076 7.88469 12.3568L7.8848 12.3564C7.96684 12.1071 8.18325 11.9245 8.44403 11.8866C8.44413 11.8866 8.44423 11.8866 8.44433 11.8866L11.8483 11.3822L13.3732 8.24183L13.3737 8.24072C13.4917 8.00275 13.7318 7.85 13.9992 7.85C14.2655 7.85 14.509 8.00193 14.6251 8.24183L10.2231 19.6571ZM10.2231 19.6571C10.4346 19.8066 10.7196 19.8336 10.94 19.704L13.999 18.0791L17.0399 19.7039M10.2231 19.6571L17.0399 19.7039M17.4722 15.5172L19.9444 13.0672L17.776 19.6565C17.7758 19.6567 17.7755 19.6569 17.7752 19.6571M17.4722 15.5172L17.4592 15.4404L17.3113 15.4654L17.4169 15.5719L17.4722 15.5172ZM17.4722 15.5172L18.0571 18.9753L18.0571 18.9757C18.1004 19.2356 17.9939 19.5025 17.7752 19.6571M17.7752 19.6571C17.5645 19.8075 17.2594 19.8329 17.0399 19.7039M17.7752 19.6571L17.0399 19.7039M16.15 11.3822L14.6252 8.24203L19.9448 13.0668L19.9447 13.0669C20.1311 12.8832 20.1968 12.608 20.1161 12.3574L20.1161 12.3574L20.1154 12.3554C20.0319 12.1077 19.8181 11.9246 19.5563 11.8866C19.5562 11.8866 19.5561 11.8866 19.556 11.8866L16.15 11.3822Z" stroke="white" stroke-width="0.3"/>
</g>
<defs>
<filter id="filter0_d_2202_1466" x="1.7002" y="1.69922" width="24.5996" height="24.2383" filterUnits="userSpaceOnUse" color-interpolation-filters="sRGB">
<feFlood flood-opacity="0" result="BackgroundImageFix"/>
<feColorMatrix in="SourceAlpha" type="matrix" values="0 0 0 0 0 0 0 0 0 0 0 0 0 0 0 0 0 0 127 0" result="hardAlpha"/>
<feOffset/>
<feGaussianBlur stdDeviation="3"/>
<feComposite in2="hardAlpha" operator="out"/>
<feColorMatrix type="matrix" values="0 0 0 0 0.8 0 0 0 0 0.976 0 0 0 0 1 0 0 0 0.56 0"/>
<feBlend mode="normal" in2="BackgroundImageFix" result="effect1_dropShadow_2202_1466"/>
<feBlend mode="normal" in="SourceGraphic" in2="effect1_dropShadow_2202_1466" result="shape"/>
</filter>
</defs>
</svg>
