<svg width="40" height="40" viewBox="0 0 40 40" fill="none" xmlns="http://www.w3.org/2000/svg">
<circle cx="20" cy="20" r="20" fill="white" fill-opacity="0.1"/>
<g clip-path="url(#clip0_792_21380)">
<path d="M29.4999 20.0227L29.5 20.0263L29.5 20.0328L29.4999 20.0591L29.4992 20.1622C29.4984 20.2521 29.4968 20.3828 29.4936 20.5447C29.4872 20.8687 29.4744 21.3166 29.4488 21.812C29.397 22.8142 29.295 23.9606 29.1037 24.6839C28.8983 25.3633 28.3602 25.8985 27.6723 26.0889C27.3334 26.1787 26.6958 26.2543 25.8883 26.3128C25.0931 26.3705 24.1735 26.4091 23.2979 26.435C22.4232 26.4608 21.5964 26.4737 20.9881 26.4802C20.684 26.4834 20.4348 26.485 20.2617 26.4858L20.0619 26.4865L20.0098 26.4866L19.9967 26.4866L19.9934 26.4866H19.9926H19.9924L19.9924 26.9866L19.9924 26.4866H19.9922H19.9914L19.9881 26.4866L19.975 26.4866L19.9229 26.4865L19.7231 26.4858C19.5501 26.485 19.3009 26.4834 18.9969 26.4802C18.3888 26.4737 17.5626 26.4608 16.6888 26.435C15.8142 26.4091 14.8961 26.3705 14.103 26.3128C13.2962 26.2542 12.6615 26.1785 12.3274 26.0888C11.6301 25.8998 11.1039 25.3692 10.8967 24.6553C10.7054 23.9406 10.6031 22.7933 10.5512 21.7873C10.5256 21.291 10.5128 20.8417 10.5064 20.5165C10.5032 20.354 10.5016 20.2228 10.5008 20.1324L10.5001 20.0289L10.5 20.0024L10.5 19.9959L10.5 19.9944L10.5 19.9941V19.9941V19.994L10.5 19.9937L10.5 19.9922L10.5 19.9858L10.5001 19.9595L10.5008 19.8565C10.5016 19.7666 10.5033 19.636 10.5066 19.4742C10.5133 19.1503 10.5265 18.7026 10.5531 18.2073C10.6069 17.2015 10.7132 16.0519 10.9123 15.33L10.9124 15.33L10.915 15.3199C11.0918 14.6222 11.6233 14.0885 12.3126 13.8977C12.6515 13.8079 13.289 13.7323 14.0965 13.6738C14.8917 13.6162 15.8113 13.5775 16.6869 13.5517C17.5616 13.5258 18.3884 13.5129 18.9967 13.5065C19.3007 13.5032 19.55 13.5016 19.7231 13.5008L19.9229 13.5001L19.975 13.5L19.9881 13.5L19.9914 13.5L19.9922 13.5H19.9924L19.9924 13L19.9924 13.5H19.9926L19.9934 13.5L19.9967 13.5L20.0098 13.5L20.0619 13.5001L20.2618 13.5008C20.4349 13.5016 20.6842 13.5032 20.9883 13.5065C21.5968 13.5129 22.4237 13.5258 23.2985 13.5517C24.1741 13.5775 25.0938 13.6162 25.8889 13.6738C26.6924 13.732 27.3274 13.8072 27.6671 13.8963C28.343 14.1007 28.8712 14.6174 29.0657 15.3055L29.0703 15.3232C29.2576 16.0512 29.3674 17.2135 29.4287 18.2267C29.4589 18.7264 29.4768 19.1784 29.4871 19.5055C29.4922 19.669 29.4955 19.801 29.4974 19.8919L29.4995 19.9961L29.4999 20.0227Z" stroke="white"/>
<path d="M17.9885 22.9923L23.1854 19.994L17.9885 16.9941V22.9923Z" fill="white"/>
</g>
<defs>
<clipPath id="clip0_792_21380">
<rect width="20" height="13.9866" fill="white" transform="translate(10 13)"/>
</clipPath>
</defs>
</svg>
